STARTFONT 2.1
COMMENT
COMMENT Converted from OpenType font "VictorMono-Medium.otf" by "otf2bdf 3.0".
COMMENT
FONT -FreeType-Victor Mono Medium-Medium-R-Normal--17-120-100-100-P-76-ISO10646-1
SIZE 12 100 100
FONTBOUNDINGBOX 19 28 -8 -8
STARTPROPERTIES 19
FOUNDRY "FreeType"
FAMILY_NAME "Victor Mono Medium"
WEIGHT_NAME "Medium"
SLANT "R"
SETWIDTH_NAME "Normal"
ADD_STYLE_NAME ""
PIXEL_SIZE 17
POINT_SIZE 120
RESOLUTION_X 100
RESOLUTION_Y 100
SPACING "P"
AVERAGE_WIDTH 76
CHARSET_REGISTRY "ISO10646"
CHARSET_ENCODING "1"
FONT_ASCENT 17
FONT_DESCENT 3
COPYRIGHT "Copyright © 2019 by Rune Bjørnerås. All rights reserved."
_OTF_FONTFILE "VictorMono-Medium.otf"
_OTF_PSNAME "VictorMono-Medium"
ENDPROPERTIES
CHARS 969
STARTCHAR 0020
ENCODING 32
SWIDTH 540 0
DWIDTH 9 0
BBX 0 0 0 0
BITMAP
ENDCHAR
STARTCHAR 0021
ENCODING 33
SWIDTH 540 0
DWIDTH 9 0
BBX 3 12 3 0
BITMAP
40
40
40
40
40
40
40
40
00
00
E0
E0
ENDCHAR
STARTCHAR 0022
ENCODING 34
SWIDTH 540 0
DWIDTH 9 0
BBX 5 5 2 7
BITMAP
88
88
88
88
88
ENDCHAR
STARTCHAR 0023
ENCODING 35
SWIDTH 540 0
DWIDTH 9 0
BBX 9 12 0 0
BITMAP
1100
1300
3300
FF80
2200
2200
2200
2200
FF80
2600
6600
6400
ENDCHAR
STARTCHAR 0024
ENCODING 36
SWIDTH 540 0
DWIDTH 9 0
BBX 7 14 1 -1
BITMAP
10
7C
D6
90
90
D0
38
1C
12
12
92
D6
7C
10
ENDCHAR
STARTCHAR 0025
ENCODING 37
SWIDTH 540 0
DWIDTH 9 0
BBX 9 12 0 0
BITMAP
7000
9980
9900
9A00
7600
0C00
1800
1780
2C80
6C80
CC80
0780
ENDCHAR
STARTCHAR 0026
ENCODING 38
SWIDTH 540 0
DWIDTH 9 0
BBX 9 12 0 0
BITMAP
3800
4800
4800
4800
5800
7000
2780
5200
DA00
8E00
CE00
7B00
ENDCHAR
STARTCHAR 0027
ENCODING 39
SWIDTH 540 0
DWIDTH 9 0
BBX 1 5 4 7
BITMAP
80
80
80
80
80
ENDCHAR
STARTCHAR 0028
ENCODING 40
SWIDTH 540 0
DWIDTH 9 0
BBX 5 16 2 -2
BITMAP
18
30
60
40
40
C0
C0
C0
C0
C0
C0
40
40
60
30
18
ENDCHAR
STARTCHAR 0029
ENCODING 41
SWIDTH 540 0
DWIDTH 9 0
BBX 5 16 2 -2
BITMAP
C0
20
30
10
10
18
18
08
08
18
18
10
10
30
20
C0
ENDCHAR
STARTCHAR 002A
ENCODING 42
SWIDTH 540 0
DWIDTH 9 0
BBX 7 9 1 2
BITMAP
10
10
92
FE
38
7C
D6
10
10
ENDCHAR
STARTCHAR 002B
ENCODING 43
SWIDTH 540 0
DWIDTH 9 0
BBX 9 9 0 2
BITMAP
0800
0800
0800
0800
FF80
0800
0800
0800
0800
ENDCHAR
STARTCHAR 002C
ENCODING 44
SWIDTH 540 0
DWIDTH 9 0
BBX 3 5 3 -3
BITMAP
E0
E0
40
40
80
ENDCHAR
STARTCHAR 002D
ENCODING 45
SWIDTH 540 0
DWIDTH 9 0
BBX 6 1 2 6
BITMAP
FC
ENDCHAR
STARTCHAR 002E
ENCODING 46
SWIDTH 540 0
DWIDTH 9 0
BBX 3 2 3 0
BITMAP
E0
E0
ENDCHAR
STARTCHAR 002F
ENCODING 47
SWIDTH 540 0
DWIDTH 9 0
BBX 7 17 1 -3
BITMAP
02
06
04
04
0C
08
08
18
10
30
20
20
60
40
40
C0
80
ENDCHAR
STARTCHAR 0030
ENCODING 48
SWIDTH 540 0
DWIDTH 9 0
BBX 7 12 1 0
BITMAP
38
6C
C6
82
82
92
92
82
82
C6
6C
38
ENDCHAR
STARTCHAR 0031
ENCODING 49
SWIDTH 540 0
DWIDTH 9 0
BBX 6 12 1 0
BITMAP
10
30
F0
10
10
10
10
10
10
10
10
7C
ENDCHAR
STARTCHAR 0032
ENCODING 50
SWIDTH 540 0
DWIDTH 9 0
BBX 7 12 1 0
BITMAP
7C
C6
82
02
02
06
0C
18
60
C0
80
FE
ENDCHAR
STARTCHAR 0033
ENCODING 51
SWIDTH 540 0
DWIDTH 9 0
BBX 7 12 1 0
BITMAP
7C
C6
82
02
02
1C
06
02
02
82
C6
7C
ENDCHAR
STARTCHAR 0034
ENCODING 52
SWIDTH 540 0
DWIDTH 9 0
BBX 7 12 1 0
BITMAP
04
0C
1C
14
34
64
44
C4
FE
04
04
04
ENDCHAR
STARTCHAR 0035
ENCODING 53
SWIDTH 540 0
DWIDTH 9 0
BBX 7 12 1 0
BITMAP
FE
80
80
80
BC
C6
02
02
02
82
C6
7C
ENDCHAR
STARTCHAR 0036
ENCODING 54
SWIDTH 540 0
DWIDTH 9 0
BBX 7 12 1 0
BITMAP
7C
C6
82
80
80
FC
C6
82
82
82
C6
7C
ENDCHAR
STARTCHAR 0037
ENCODING 55
SWIDTH 540 0
DWIDTH 9 0
BBX 7 12 1 0
BITMAP
FE
02
04
04
08
18
10
10
30
20
20
60
ENDCHAR
STARTCHAR 0038
ENCODING 56
SWIDTH 540 0
DWIDTH 9 0
BBX 7 12 1 0
BITMAP
7C
C6
82
82
C6
7C
C6
82
82
82
C6
7C
ENDCHAR
STARTCHAR 0039
ENCODING 57
SWIDTH 540 0
DWIDTH 9 0
BBX 7 12 1 0
BITMAP
7C
C6
82
82
82
C6
7E
02
02
82
C6
7C
ENDCHAR
STARTCHAR 003A
ENCODING 58
SWIDTH 540 0
DWIDTH 9 0
BBX 3 10 3 0
BITMAP
E0
E0
00
00
00
00
00
00
E0
E0
ENDCHAR
STARTCHAR 003B
ENCODING 59
SWIDTH 540 0
DWIDTH 9 0
BBX 3 13 3 -3
BITMAP
E0
E0
00
00
00
00
00
00
E0
E0
40
40
80
ENDCHAR
STARTCHAR 003C
ENCODING 60
SWIDTH 540 0
DWIDTH 9 0
BBX 7 11 1 1
BITMAP
02
04
18
30
60
C0
60
30
18
0C
06
ENDCHAR
STARTCHAR 003D
ENCODING 61
SWIDTH 540 0
DWIDTH 9 0
BBX 9 4 0 4
BITMAP
FF80
0000
0000
FF80
ENDCHAR
STARTCHAR 003E
ENCODING 62
SWIDTH 540 0
DWIDTH 9 0
BBX 7 11 1 1
BITMAP
80
40
30
18
0C
06
0C
18
30
60
C0
ENDCHAR
STARTCHAR 003F
ENCODING 63
SWIDTH 540 0
DWIDTH 9 0
BBX 7 12 1 0
BITMAP
7C
C6
82
02
02
06
1C
10
00
00
38
38
ENDCHAR
STARTCHAR 0040
ENCODING 64
SWIDTH 540 0
DWIDTH 9 0
BBX 9 12 0 0
BITMAP
3E00
6300
DD80
B680
A280
A280
A280
A280
F680
DF00
6000
3C00
ENDCHAR
STARTCHAR 0041
ENCODING 65
SWIDTH 540 0
DWIDTH 9 0
BBX 7 12 1 0
BITMAP
10
38
28
28
28
6C
44
44
FE
82
82
82
ENDCHAR
STARTCHAR 0042
ENCODING 66
SWIDTH 540 0
DWIDTH 9 0
BBX 7 12 1 0
BITMAP
FC
86
82
82
86
FC
86
82
82
82
86
FC
ENDCHAR
STARTCHAR 0043
ENCODING 67
SWIDTH 540 0
DWIDTH 9 0
BBX 7 12 1 0
BITMAP
3C
46
C2
80
80
80
80
80
80
C2
46
3C
ENDCHAR
STARTCHAR 0044
ENCODING 68
SWIDTH 540 0
DWIDTH 9 0
BBX 7 12 1 0
BITMAP
FC
86
82
82
82
82
82
82
82
82
86
FC
ENDCHAR
STARTCHAR 0045
ENCODING 69
SWIDTH 540 0
DWIDTH 9 0
BBX 7 12 1 0
BITMAP
FE
C0
C0
C0
C0
F8
C0
C0
C0
C0
C0
FE
ENDCHAR
STARTCHAR 0046
ENCODING 70
SWIDTH 540 0
DWIDTH 9 0
BBX 7 12 1 0
BITMAP
FE
C0
C0
C0
C0
C0
F8
C0
C0
C0
C0
C0
ENDCHAR
STARTCHAR 0047
ENCODING 71
SWIDTH 540 0
DWIDTH 9 0
BBX 7 12 1 0
BITMAP
7C
46
C2
80
80
80
9E
82
82
82
46
7C
ENDCHAR
STARTCHAR 0048
ENCODING 72
SWIDTH 540 0
DWIDTH 9 0
BBX 7 12 1 0
BITMAP
82
82
82
82
82
FE
82
82
82
82
82
82
ENDCHAR
STARTCHAR 0049
ENCODING 73
SWIDTH 540 0
DWIDTH 9 0
BBX 7 12 1 0
BITMAP
FE
10
10
10
10
10
10
10
10
10
10
FE
ENDCHAR
STARTCHAR 004A
ENCODING 74
SWIDTH 540 0
DWIDTH 9 0
BBX 7 12 1 0
BITMAP
0E
02
02
02
02
02
02
02
06
86
C4
78
ENDCHAR
STARTCHAR 004B
ENCODING 75
SWIDTH 540 0
DWIDTH 9 0
BBX 8 12 1 0
BITMAP
82
86
8C
98
B0
F0
90
98
8C
84
86
83
ENDCHAR
STARTCHAR 004C
ENCODING 76
SWIDTH 540 0
DWIDTH 9 0
BBX 6 12 2 0
BITMAP
80
80
80
80
80
80
80
80
80
80
80
FC
ENDCHAR
STARTCHAR 004D
ENCODING 77
SWIDTH 540 0
DWIDTH 9 0
BBX 7 12 1 0
BITMAP
82
C6
C6
C6
AE
AA
BA
92
82
82
82
82
ENDCHAR
STARTCHAR 004E
ENCODING 78
SWIDTH 540 0
DWIDTH 9 0
BBX 7 12 1 0
BITMAP
C2
C2
E2
A2
B2
92
92
8A
8A
8E
86
86
ENDCHAR
STARTCHAR 004F
ENCODING 79
SWIDTH 540 0
DWIDTH 9 0
BBX 7 12 1 0
BITMAP
7C
C6
82
82
82
82
82
82
82
82
C6
7C
ENDCHAR
STARTCHAR 0050
ENCODING 80
SWIDTH 540 0
DWIDTH 9 0
BBX 7 12 1 0
BITMAP
FC
C6
C2
C2
C2
C6
FC
C0
C0
C0
C0
C0
ENDCHAR
STARTCHAR 0051
ENCODING 81
SWIDTH 540 0
DWIDTH 9 0
BBX 8 14 1 -2
BITMAP
7C
C6
82
82
82
82
82
82
82
82
C6
7C
30
7F
ENDCHAR
STARTCHAR 0052
ENCODING 82
SWIDTH 540 0
DWIDTH 9 0
BBX 7 12 1 0
BITMAP
FC
C6
C2
C2
C2
C6
FC
D8
C8
C4
C6
C2
ENDCHAR
STARTCHAR 0053
ENCODING 83
SWIDTH 540 0
DWIDTH 9 0
BBX 7 12 1 0
BITMAP
7C
C6
80
80
C0
38
0C
02
02
82
C6
7C
ENDCHAR
STARTCHAR 0054
ENCODING 84
SWIDTH 540 0
DWIDTH 9 0
BBX 9 12 0 0
BITMAP
FF80
0800
0800
0800
0800
0800
0800
0800
0800
0800
0800
0800
ENDCHAR
STARTCHAR 0055
ENCODING 85
SWIDTH 540 0
DWIDTH 9 0
BBX 7 12 1 0
BITMAP
82
82
82
82
82
82
82
82
82
C2
46
7C
ENDCHAR
STARTCHAR 0056
ENCODING 86
SWIDTH 540 0
DWIDTH 9 0
BBX 7 12 1 0
BITMAP
82
82
C2
C6
44
44
6C
28
28
28
38
10
ENDCHAR
STARTCHAR 0057
ENCODING 87
SWIDTH 540 0
DWIDTH 9 0
BBX 9 12 0 0
BITMAP
C180
C180
4100
4100
4900
4D00
5D00
7500
7700
3700
3200
2200
ENDCHAR
STARTCHAR 0058
ENCODING 88
SWIDTH 540 0
DWIDTH 9 0
BBX 7 12 1 0
BITMAP
82
C6
44
6C
28
18
18
28
6C
44
C6
82
ENDCHAR
STARTCHAR 0059
ENCODING 89
SWIDTH 540 0
DWIDTH 9 0
BBX 9 12 0 0
BITMAP
C180
4100
6300
2200
3600
1400
1C00
0800
0800
0800
0800
0800
ENDCHAR
STARTCHAR 005A
ENCODING 90
SWIDTH 540 0
DWIDTH 9 0
BBX 7 12 1 0
BITMAP
FE
02
04
0C
08
18
10
20
60
40
80
FE
ENDCHAR
STARTCHAR 005B
ENCODING 91
SWIDTH 540 0
DWIDTH 9 0
BBX 5 16 2 -2
BITMAP
F8
C0
C0
C0
C0
C0
C0
C0
C0
C0
C0
C0
C0
C0
C0
F8
ENDCHAR
STARTCHAR 005C
ENCODING 92
SWIDTH 540 0
DWIDTH 9 0
BBX 7 17 1 -3
BITMAP
80
C0
40
40
60
20
20
10
10
18
08
08
0C
04
04
02
02
ENDCHAR
STARTCHAR 005D
ENCODING 93
SWIDTH 540 0
DWIDTH 9 0
BBX 5 16 2 -2
BITMAP
F8
08
08
08
08
08
08
08
08
08
08
08
08
08
08
F8
ENDCHAR
STARTCHAR 005E
ENCODING 94
SWIDTH 540 0
DWIDTH 9 0
BBX 7 4 1 9
BITMAP
10
38
6C
82
ENDCHAR
STARTCHAR 005F
ENCODING 95
SWIDTH 540 0
DWIDTH 9 0
BBX 9 1 0 -3
BITMAP
FF80
ENDCHAR
STARTCHAR 0060
ENCODING 96
SWIDTH 540 0
DWIDTH 9 0
BBX 3 4 3 9
BITMAP
80
C0
60
20
ENDCHAR
STARTCHAR 0061
ENCODING 97
SWIDTH 540 0
DWIDTH 9 0
BBX 8 10 1 0
BITMAP
78
C4
86
06
7E
C6
86
86
86
7B
ENDCHAR
STARTCHAR 0062
ENCODING 98
SWIDTH 540 0
DWIDTH 9 0
BBX 7 12 1 0
BITMAP
C0
C0
FC
C6
C2
C2
C2
C2
C2
C2
C6
7C
ENDCHAR
STARTCHAR 0063
ENCODING 99
SWIDTH 540 0
DWIDTH 9 0
BBX 7 10 1 0
BITMAP
3C
46
C0
80
80
80
80
C0
46
7C
ENDCHAR
STARTCHAR 0064
ENCODING 100
SWIDTH 540 0
DWIDTH 9 0
BBX 7 12 1 0
BITMAP
02
02
7A
46
82
82
82
82
82
82
C6
7E
ENDCHAR
STARTCHAR 0065
ENCODING 101
SWIDTH 540 0
DWIDTH 9 0
BBX 7 10 1 0
BITMAP
7C
C6
82
82
FE
80
80
80
C6
7C
ENDCHAR
STARTCHAR 0066
ENCODING 102
SWIDTH 540 0
DWIDTH 9 0
BBX 8 12 1 0
BITMAP
1E
23
20
20
20
FC
20
20
20
20
20
20
ENDCHAR
STARTCHAR 0067
ENCODING 103
SWIDTH 540 0
DWIDTH 9 0
BBX 7 13 1 -3
BITMAP
7A
C6
82
82
82
82
82
C6
7E
02
02
46
3C
ENDCHAR
STARTCHAR 0068
ENCODING 104
SWIDTH 540 0
DWIDTH 9 0
BBX 7 12 1 0
BITMAP
C0
C0
FC
C6
C2
C2
C2
C2
C2
C2
C2
C2
ENDCHAR
STARTCHAR 0069
ENCODING 105
SWIDTH 540 0
DWIDTH 9 0
BBX 6 14 2 0
BITMAP
30
30
00
00
F0
30
30
30
30
30
30
30
30
FC
ENDCHAR
STARTCHAR 006A
ENCODING 106
SWIDTH 540 0
DWIDTH 9 0
BBX 6 17 1 -3
BITMAP
0C
0C
00
00
1C
04
04
04
04
04
04
04
04
04
04
8C
78
ENDCHAR
STARTCHAR 006B
ENCODING 107
SWIDTH 540 0
DWIDTH 9 0
BBX 6 12 2 0
BITMAP
80
80
8C
98
B0
A0
E0
A0
B0
98
88
84
ENDCHAR
STARTCHAR 006C
ENCODING 108
SWIDTH 540 0
DWIDTH 9 0
BBX 6 12 2 0
BITMAP
E0
20
20
20
20
20
20
20
20
20
24
3C
ENDCHAR
STARTCHAR 006D
ENCODING 109
SWIDTH 540 0
DWIDTH 9 0
BBX 7 10 1 0
BITMAP
EE
9A
92
92
92
92
92
92
92
92
ENDCHAR
STARTCHAR 006E
ENCODING 110
SWIDTH 540 0
DWIDTH 9 0
BBX 7 10 1 0
BITMAP
FC
C6
C2
C2
C2
C2
C2
C2
C2
C2
ENDCHAR
STARTCHAR 006F
ENCODING 111
SWIDTH 540 0
DWIDTH 9 0
BBX 7 10 1 0
BITMAP
7C
46
C2
82
82
82
82
C2
46
7C
ENDCHAR
STARTCHAR 0070
ENCODING 112
SWIDTH 540 0
DWIDTH 9 0
BBX 7 13 1 -3
BITMAP
BC
C6
82
82
82
82
82
C2
C6
BC
80
80
80
ENDCHAR
STARTCHAR 0071
ENCODING 113
SWIDTH 540 0
DWIDTH 9 0
BBX 7 13 1 -3
BITMAP
7E
C6
82
82
82
82
82
82
C6
7A
02
02
02
ENDCHAR
STARTCHAR 0072
ENCODING 114
SWIDTH 540 0
DWIDTH 9 0
BBX 6 10 2 0
BITMAP
B8
CC
84
80
80
80
80
80
80
80
ENDCHAR
STARTCHAR 0073
ENCODING 115
SWIDTH 540 0
DWIDTH 9 0
BBX 7 10 1 0
BITMAP
7C
C6
C0
C0
78
0E
02
02
C6
7C
ENDCHAR
STARTCHAR 0074
ENCODING 116
SWIDTH 540 0
DWIDTH 9 0
BBX 7 12 1 0
BITMAP
20
20
FC
20
20
20
20
20
20
20
22
1E
ENDCHAR
STARTCHAR 0075
ENCODING 117
SWIDTH 540 0
DWIDTH 9 0
BBX 7 10 1 0
BITMAP
C2
C2
C2
C2
C2
C2
C2
C2
46
7E
ENDCHAR
STARTCHAR 0076
ENCODING 118
SWIDTH 540 0
DWIDTH 9 0
BBX 7 10 1 0
BITMAP
82
82
C6
44
44
6C
28
28
38
10
ENDCHAR
STARTCHAR 0077
ENCODING 119
SWIDTH 540 0
DWIDTH 9 0
BBX 9 10 0 0
BITMAP
C180
4180
4100
4900
4D00
5500
7700
3700
3600
2200
ENDCHAR
STARTCHAR 0078
ENCODING 120
SWIDTH 540 0
DWIDTH 9 0
BBX 7 10 1 0
BITMAP
C6
44
6C
28
18
18
28
6C
44
C6
ENDCHAR
STARTCHAR 0079
ENCODING 121
SWIDTH 540 0
DWIDTH 9 0
BBX 9 13 0 -3
BITMAP
6180
2100
2100
3300
1200
1200
1600
0C00
0C00
0C00
0800
1800
F000
ENDCHAR
STARTCHAR 007A
ENCODING 122
SWIDTH 540 0
DWIDTH 9 0
BBX 7 10 1 0
BITMAP
FE
04
0C
08
18
30
20
60
40
FE
ENDCHAR
STARTCHAR 007B
ENCODING 123
SWIDTH 540 0
DWIDTH 9 0
BBX 6 16 2 -2
BITMAP
1C
20
20
20
20
20
60
C0
C0
60
20
20
20
20
20
1C
ENDCHAR
STARTCHAR 007C
ENCODING 124
SWIDTH 540 0
DWIDTH 9 0
BBX 1 17 4 -3
BITMAP
80
80
80
80
80
80
80
80
80
80
80
80
80
80
80
80
80
ENDCHAR
STARTCHAR 007D
ENCODING 125
SWIDTH 540 0
DWIDTH 9 0
BBX 5 16 2 -2
BITMAP
C0
20
20
20
20
20
30
18
18
30
20
20
20
20
20
C0
ENDCHAR
STARTCHAR 007E
ENCODING 126
SWIDTH 540 0
DWIDTH 9 0
BBX 9 3 0 4
BITMAP
7180
CD80
0700
ENDCHAR
STARTCHAR 00A0
ENCODING 160
SWIDTH 540 0
DWIDTH 9 0
BBX 0 0 0 0
BITMAP
ENDCHAR
STARTCHAR 00A1
ENCODING 161
SWIDTH 540 0
DWIDTH 9 0
BBX 3 13 3 -3
BITMAP
E0
E0
00
00
40
40
40
40
40
40
40
40
40
ENDCHAR
STARTCHAR 00A2
ENCODING 162
SWIDTH 540 0
DWIDTH 9 0
BBX 7 12 1 -1
BITMAP
10
7C
56
D0
90
90
90
90
D0
56
7C
10
ENDCHAR
STARTCHAR 00A3
ENCODING 163
SWIDTH 540 0
DWIDTH 9 0
BBX 7 12 1 0
BITMAP
3E
62
40
40
40
40
F8
60
20
20
60
FE
ENDCHAR
STARTCHAR 00A4
ENCODING 164
SWIDTH 540 0
DWIDTH 9 0
BBX 7 8 1 1
BITMAP
82
FE
44
C6
C2
46
7E
82
ENDCHAR
STARTCHAR 00A5
ENCODING 165
SWIDTH 540 0
DWIDTH 9 0
BBX 9 12 0 0
BITMAP
C180
4100
2300
2200
1600
1400
3F00
0800
3F00
0800
0800
0800
ENDCHAR
STARTCHAR 00A6
ENCODING 166
SWIDTH 540 0
DWIDTH 9 0
BBX 1 17 4 -3
BITMAP
80
80
80
80
80
80
80
00
00
00
80
80
80
80
80
80
80
ENDCHAR
STARTCHAR 00A7
ENCODING 167
SWIDTH 540 0
DWIDTH 9 0
BBX 7 15 1 -3
BITMAP
7C
C6
80
80
C0
7C
46
C6
46
7C
06
02
02
46
7C
ENDCHAR
STARTCHAR 00A8
ENCODING 168
SWIDTH 540 0
DWIDTH 9 0
BBX 5 2 2 11
BITMAP
D8
D8
ENDCHAR
STARTCHAR 00A9
ENCODING 169
SWIDTH 540 0
DWIDTH 9 0
BBX 9 10 0 0
BITMAP
3E00
6300
DD80
B080
B080
B080
DD80
4100
6300
1C00
ENDCHAR
STARTCHAR 00AA
ENCODING 170
SWIDTH 540 0
DWIDTH 9 0
BBX 6 9 2 3
BITMAP
70
98
08
F8
88
98
FC
00
FC
ENDCHAR
STARTCHAR 00AB
ENCODING 171
SWIDTH 540 0
DWIDTH 9 0
BBX 7 7 1 3
BITMAP
32
64
CC
98
CC
64
32
ENDCHAR
STARTCHAR 00AC
ENCODING 172
SWIDTH 540 0
DWIDTH 9 0
BBX 7 4 1 4
BITMAP
FE
02
02
02
ENDCHAR
STARTCHAR 00AD
ENCODING 173
SWIDTH 540 0
DWIDTH 9 0
BBX 6 1 2 6
BITMAP
FC
ENDCHAR
STARTCHAR 00AE
ENCODING 174
SWIDTH 540 0
DWIDTH 9 0
BBX 9 9 0 3
BITMAP
3E00
6300
5D00
D580
DC80
DD80
5500
6300
1C00
ENDCHAR
STARTCHAR 00AF
ENCODING 175
SWIDTH 540 0
DWIDTH 9 0
BBX 5 1 2 11
BITMAP
F8
ENDCHAR
STARTCHAR 00B0
ENCODING 176
SWIDTH 540 0
DWIDTH 9 0
BBX 5 5 2 7
BITMAP
70
88
88
88
F8
ENDCHAR
STARTCHAR 00B1
ENCODING 177
SWIDTH 540 0
DWIDTH 9 0
BBX 9 10 0 1
BITMAP
0800
0800
0800
FF80
0800
0800
0800
0000
0000
FF80
ENDCHAR
STARTCHAR 00B2
ENCODING 178
SWIDTH 540 0
DWIDTH 9 0
BBX 5 7 2 6
BITMAP
70
C8
18
10
60
40
F8
ENDCHAR
STARTCHAR 00B3
ENCODING 179
SWIDTH 540 0
DWIDTH 9 0
BBX 4 7 3 6
BITMAP
E0
B0
30
60
30
B0
E0
ENDCHAR
STARTCHAR 00B4
ENCODING 180
SWIDTH 540 0
DWIDTH 9 0
BBX 3 4 3 9
BITMAP
20
60
C0
80
ENDCHAR
STARTCHAR 00B5
ENCODING 181
SWIDTH 540 0
DWIDTH 9 0
BBX 7 13 1 -3
BITMAP
82
82
82
82
82
82
82
82
C6
FA
80
80
80
ENDCHAR
STARTCHAR 00B6
ENCODING 182
SWIDTH 540 0
DWIDTH 9 0
BBX 7 12 1 0
BITMAP
FE
FE
FE
FE
FE
FE
1E
1E
1E
1E
1E
1E
ENDCHAR
STARTCHAR 00B7
ENCODING 183
SWIDTH 540 0
DWIDTH 9 0
BBX 3 2 3 5
BITMAP
E0
E0
ENDCHAR
STARTCHAR 00B8
ENCODING 184
SWIDTH 540 0
DWIDTH 9 0
BBX 3 4 3 -4
BITMAP
40
60
A0
E0
ENDCHAR
STARTCHAR 00B9
ENCODING 185
SWIDTH 540 0
DWIDTH 9 0
BBX 3 7 3 6
BITMAP
40
C0
40
40
40
40
E0
ENDCHAR
STARTCHAR 00BA
ENCODING 186
SWIDTH 540 0
DWIDTH 9 0
BBX 6 9 2 3
BITMAP
70
C8
88
88
88
C8
70
00
FC
ENDCHAR
STARTCHAR 00BB
ENCODING 187
SWIDTH 540 0
DWIDTH 9 0
BBX 7 7 1 3
BITMAP
98
4C
66
32
26
4C
C8
ENDCHAR
STARTCHAR 00BC
ENCODING 188
SWIDTH 540 0
DWIDTH 9 0
BBX 8 14 0 -1
BITMAP
60
E3
62
62
64
64
F8
08
13
17
35
2F
61
01
ENDCHAR
STARTCHAR 00BD
ENCODING 189
SWIDTH 540 0
DWIDTH 9 0
BBX 9 14 0 -1
BITMAP
6000
E300
6200
6200
6400
6400
F800
0800
1780
1480
3080
2300
6600
0780
ENDCHAR
STARTCHAR 00BE
ENCODING 190
SWIDTH 540 0
DWIDTH 9 0
BBX 8 14 0 -1
BITMAP
F0
93
12
72
14
94
F8
09
13
17
35
2F
61
01
ENDCHAR
STARTCHAR 00BF
ENCODING 191
SWIDTH 540 0
DWIDTH 9 0
BBX 7 13 1 -3
BITMAP
38
38
00
00
10
30
60
C0
80
82
82
C6
7C
ENDCHAR
STARTCHAR 00C0
ENCODING 192
SWIDTH 540 0
DWIDTH 9 0
BBX 7 17 1 0
BITMAP
20
20
10
10
00
10
38
28
28
28
6C
44
44
FE
82
82
82
ENDCHAR
STARTCHAR 00C1
ENCODING 193
SWIDTH 540 0
DWIDTH 9 0
BBX 7 16 1 1
BITMAP
08
10
10
00
10
38
28
28
28
6C
44
44
FE
82
82
82
ENDCHAR
STARTCHAR 00C2
ENCODING 194
SWIDTH 540 0
DWIDTH 9 0
BBX 7 16 1 0
BITMAP
10
38
6C
00
10
38
28
28
28
6C
44
44
FE
82
82
82
ENDCHAR
STARTCHAR 00C3
ENCODING 195
SWIDTH 540 0
DWIDTH 9 0
BBX 7 16 1 0
BITMAP
74
4C
00
00
10
38
28
28
28
6C
44
44
FE
82
82
82
ENDCHAR
STARTCHAR 00C4
ENCODING 196
SWIDTH 540 0
DWIDTH 9 0
BBX 7 16 1 0
BITMAP
6C
6C
00
00
10
38
28
28
28
6C
44
44
FE
82
82
82
ENDCHAR
STARTCHAR 00C5
ENCODING 197
SWIDTH 540 0
DWIDTH 9 0
BBX 7 15 1 0
BITMAP
38
6C
6C
38
38
28
28
28
6C
44
44
FE
82
82
82
ENDCHAR
STARTCHAR 00C6
ENCODING 198
SWIDTH 540 0
DWIDTH 9 0
BBX 9 12 0 0
BITMAP
1F80
1C00
1C00
3C00
2C00
2C00
6F00
6C00
7C00
4C00
CC00
CF80
ENDCHAR
STARTCHAR 00C7
ENCODING 199
SWIDTH 540 0
DWIDTH 9 0
BBX 7 16 1 -4
BITMAP
3C
46
C2
80
80
80
80
80
80
C2
46
7C
10
18
28
38
ENDCHAR
STARTCHAR 00C8
ENCODING 200
SWIDTH 540 0
DWIDTH 9 0
BBX 7 17 1 0
BITMAP
20
30
18
00
00
FE
C0
C0
C0
C0
F8
C0
C0
C0
C0
C0
FE
ENDCHAR
STARTCHAR 00C9
ENCODING 201
SWIDTH 540 0
DWIDTH 9 0
BBX 7 17 1 0
BITMAP
04
0C
18
10
00
FE
C0
C0
C0
C0
F8
C0
C0
C0
C0
C0
FE
ENDCHAR
STARTCHAR 00CA
ENCODING 202
SWIDTH 540 0
DWIDTH 9 0
BBX 7 15 1 1
BITMAP
18
6C
00
FE
C0
C0
C0
C0
F8
C0
C0
C0
C0
C0
FE
ENDCHAR
STARTCHAR 00CB
ENCODING 203
SWIDTH 540 0
DWIDTH 9 0
BBX 7 16 1 0
BITMAP
6C
6C
00
00
FE
C0
C0
C0
C0
F8
C0
C0
C0
C0
C0
FE
ENDCHAR
STARTCHAR 00CC
ENCODING 204
SWIDTH 540 0
DWIDTH 9 0
BBX 7 17 1 0
BITMAP
20
20
10
10
00
FE
10
10
10
10
10
10
10
10
10
10
FE
ENDCHAR
STARTCHAR 00CD
ENCODING 205
SWIDTH 540 0
DWIDTH 9 0
BBX 7 16 1 1
BITMAP
08
10
10
00
FE
10
10
10
10
10
10
10
10
10
10
FE
ENDCHAR
STARTCHAR 00CE
ENCODING 206
SWIDTH 540 0
DWIDTH 9 0
BBX 7 16 1 0
BITMAP
10
38
6C
00
FE
10
10
10
10
10
10
10
10
10
10
FE
ENDCHAR
STARTCHAR 00CF
ENCODING 207
SWIDTH 540 0
DWIDTH 9 0
BBX 7 16 1 0
BITMAP
6C
6C
00
00
FE
10
10
10
10
10
10
10
10
10
10
FE
ENDCHAR
STARTCHAR 00D0
ENCODING 208
SWIDTH 540 0
DWIDTH 9 0
BBX 8 12 0 0
BITMAP
7E
43
41
41
41
F9
41
41
41
41
43
7E
ENDCHAR
STARTCHAR 00D1
ENCODING 209
SWIDTH 540 0
DWIDTH 9 0
BBX 7 16 1 0
BITMAP
74
4C
00
00
C2
C2
E2
A2
B2
92
92
8A
8A
8E
86
86
ENDCHAR
STARTCHAR 00D2
ENCODING 210
SWIDTH 540 0
DWIDTH 9 0
BBX 7 16 1 1
BITMAP
20
30
10
00
7C
C6
82
82
82
82
82
82
82
82
C6
7C
ENDCHAR
STARTCHAR 00D3
ENCODING 211
SWIDTH 540 0
DWIDTH 9 0
BBX 7 16 1 1
BITMAP
08
18
10
00
7C
C6
82
82
82
82
82
82
82
82
C6
7C
ENDCHAR
STARTCHAR 00D4
ENCODING 212
SWIDTH 540 0
DWIDTH 9 0
BBX 7 15 1 0
BITMAP
18
6C
00
7C
C6
82
82
82
82
82
82
82
82
C6
7C
ENDCHAR
STARTCHAR 00D5
ENCODING 213
SWIDTH 540 0
DWIDTH 9 0
BBX 7 16 1 0
BITMAP
74
4C
00
00
7C
C6
82
82
82
82
82
82
82
82
C6
7C
ENDCHAR
STARTCHAR 00D6
ENCODING 214
SWIDTH 540 0
DWIDTH 9 0
BBX 7 15 1 0
BITMAP
6C
6C
00
7C
C6
82
82
82
82
82
82
82
82
C6
7C
ENDCHAR
STARTCHAR 00D7
ENCODING 215
SWIDTH 540 0
DWIDTH 9 0
BBX 7 6 1 3
BITMAP
82
44
28
10
28
44
ENDCHAR
STARTCHAR 00D8
ENCODING 216
SWIDTH 540 0
DWIDTH 9 0
BBX 7 14 1 -1
BITMAP
02
7E
C6
86
8E
8A
92
92
A2
A2
C2
C6
FC
80
ENDCHAR
STARTCHAR 00D9
ENCODING 217
SWIDTH 540 0
DWIDTH 9 0
BBX 7 17 1 0
BITMAP
20
20
10
10
00
82
82
82
82
82
82
82
82
82
C2
46
7C
ENDCHAR
STARTCHAR 00DA
ENCODING 218
SWIDTH 540 0
DWIDTH 9 0
BBX 7 16 1 1
BITMAP
08
10
10
00
82
82
82
82
82
82
82
82
82
C2
46
7C
ENDCHAR
STARTCHAR 00DB
ENCODING 219
SWIDTH 540 0
DWIDTH 9 0
BBX 7 16 1 0
BITMAP
10
38
6C
00
82
82
82
82
82
82
82
82
82
C2
46
7C
ENDCHAR
STARTCHAR 00DC
ENCODING 220
SWIDTH 540 0
DWIDTH 9 0
BBX 7 16 1 0
BITMAP
6C
6C
00
00
82
82
82
82
82
82
82
82
82
C2
46
7C
ENDCHAR
STARTCHAR 00DD
ENCODING 221
SWIDTH 540 0
DWIDTH 9 0
BBX 9 16 0 1
BITMAP
0400
0800
0800
0000
C180
4100
6300
2200
3600
1400
1C00
0800
0800
0800
0800
0800
ENDCHAR
STARTCHAR 00DE
ENCODING 222
SWIDTH 540 0
DWIDTH 9 0
BBX 7 12 1 0
BITMAP
C0
C0
FC
C6
C2
C2
C2
C6
FC
C0
C0
C0
ENDCHAR
STARTCHAR 00DF
ENCODING 223
SWIDTH 540 0
DWIDTH 9 0
BBX 7 12 1 0
BITMAP
7C
C4
86
86
86
9C
86
82
82
82
86
9C
ENDCHAR
STARTCHAR 00E0
ENCODING 224
SWIDTH 540 0
DWIDTH 9 0
BBX 8 14 1 0
BITMAP
20
30
10
00
78
C4
86
06
7E
C6
86
86
86
7B
ENDCHAR
STARTCHAR 00E1
ENCODING 225
SWIDTH 540 0
DWIDTH 9 0
BBX 8 13 1 1
BITMAP
18
10
00
78
C4
86
06
7E
C6
86
86
86
7B
ENDCHAR
STARTCHAR 00E2
ENCODING 226
SWIDTH 540 0
DWIDTH 9 0
BBX 8 13 1 0
BITMAP
10
6C
00
78
C4
86
06
7E
C6
86
86
86
7B
ENDCHAR
STARTCHAR 00E3
ENCODING 227
SWIDTH 540 0
DWIDTH 9 0
BBX 8 13 1 0
BITMAP
74
5C
00
78
C4
86
06
7E
C6
86
86
86
7B
ENDCHAR
STARTCHAR 00E4
ENCODING 228
SWIDTH 540 0
DWIDTH 9 0
BBX 8 13 1 0
BITMAP
6C
6C
00
78
C4
86
06
7E
C6
86
86
86
7B
ENDCHAR
STARTCHAR 00E5
ENCODING 229
SWIDTH 540 0
DWIDTH 9 0
BBX 8 15 1 0
BITMAP
38
6C
6C
38
00
78
C4
86
06
7E
C6
86
86
86
7B
ENDCHAR
STARTCHAR 00E6
ENCODING 230
SWIDTH 540 0
DWIDTH 9 0
BBX 9 10 0 0
BITMAP
7700
CD80
C880
0880
7F80
C800
8800
8800
DD80
7700
ENDCHAR
STARTCHAR 00E7
ENCODING 231
SWIDTH 540 0
DWIDTH 9 0
BBX 7 14 1 -4
BITMAP
3C
46
C0
80
80
80
80
C0
46
7C
10
18
28
38
ENDCHAR
STARTCHAR 00E8
ENCODING 232
SWIDTH 540 0
DWIDTH 9 0
BBX 7 14 1 0
BITMAP
20
30
10
00
7C
C6
82
82
FE
80
80
80
C6
7C
ENDCHAR
STARTCHAR 00E9
ENCODING 233
SWIDTH 540 0
DWIDTH 9 0
BBX 7 13 1 1
BITMAP
18
10
00
7C
C6
82
82
FE
80
80
80
C6
7C
ENDCHAR
STARTCHAR 00EA
ENCODING 234
SWIDTH 540 0
DWIDTH 9 0
BBX 7 13 1 0
BITMAP
10
6C
00
7C
C6
82
82
FE
80
80
80
C6
7C
ENDCHAR
STARTCHAR 00EB
ENCODING 235
SWIDTH 540 0
DWIDTH 9 0
BBX 7 13 1 0
BITMAP
6C
6C
00
7C
C6
82
82
FE
80
80
80
C6
7C
ENDCHAR
STARTCHAR 00EC
ENCODING 236
SWIDTH 540 0
DWIDTH 9 0
BBX 6 14 2 0
BITMAP
40
60
20
00
F0
30
30
30
30
30
30
30
30
FC
ENDCHAR
STARTCHAR 00ED
ENCODING 237
SWIDTH 540 0
DWIDTH 9 0
BBX 6 13 2 1
BITMAP
30
20
00
F0
30
30
30
30
30
30
30
30
FC
ENDCHAR
STARTCHAR 00EE
ENCODING 238
SWIDTH 540 0
DWIDTH 9 0
BBX 6 13 2 1
BITMAP
70
D8
00
F0
30
30
30
30
30
30
30
30
FC
ENDCHAR
STARTCHAR 00EF
ENCODING 239
SWIDTH 540 0
DWIDTH 9 0
BBX 6 13 2 0
BITMAP
D8
D8
00
F0
30
30
30
30
30
30
30
30
FC
ENDCHAR
STARTCHAR 00F0
ENCODING 240
SWIDTH 540 0
DWIDTH 9 0
BBX 7 12 1 0
BITMAP
74
18
24
06
7E
C6
82
82
82
82
C6
7C
ENDCHAR
STARTCHAR 00F1
ENCODING 241
SWIDTH 540 0
DWIDTH 9 0
BBX 7 13 1 0
BITMAP
74
4C
00
FC
C6
C2
C2
C2
C2
C2
C2
C2
C2
ENDCHAR
STARTCHAR 00F2
ENCODING 242
SWIDTH 540 0
DWIDTH 9 0
BBX 7 14 1 0
BITMAP
20
30
10
00
7C
46
C2
82
82
82
82
C2
46
7C
ENDCHAR
STARTCHAR 00F3
ENCODING 243
SWIDTH 540 0
DWIDTH 9 0
BBX 7 13 1 1
BITMAP
18
10
00
7C
46
C2
82
82
82
82
C2
46
7C
ENDCHAR
STARTCHAR 00F4
ENCODING 244
SWIDTH 540 0
DWIDTH 9 0
BBX 7 13 1 0
BITMAP
10
6C
00
7C
46
C2
82
82
82
82
C2
46
7C
ENDCHAR
STARTCHAR 00F5
ENCODING 245
SWIDTH 540 0
DWIDTH 9 0
BBX 7 13 1 0
BITMAP
74
5C
00
7C
46
C2
82
82
82
82
C2
46
7C
ENDCHAR
STARTCHAR 00F6
ENCODING 246
SWIDTH 540 0
DWIDTH 9 0
BBX 7 13 1 0
BITMAP
6C
6C
00
7C
46
C2
82
82
82
82
C2
46
7C
ENDCHAR
STARTCHAR 00F7
ENCODING 247
SWIDTH 540 0
DWIDTH 9 0
BBX 9 8 0 2
BITMAP
0C00
0C00
0000
FF80
0000
0000
0C00
0C00
ENDCHAR
STARTCHAR 00F8
ENCODING 248
SWIDTH 540 0
DWIDTH 9 0
BBX 7 10 1 0
BITMAP
7E
46
CE
8A
9A
92
A2
E2
46
FC
ENDCHAR
STARTCHAR 00F9
ENCODING 249
SWIDTH 540 0
DWIDTH 9 0
BBX 7 14 1 0
BITMAP
20
30
10
00
C2
C2
C2
C2
C2
C2
C2
C2
46
7E
ENDCHAR
STARTCHAR 00FA
ENCODING 250
SWIDTH 540 0
DWIDTH 9 0
BBX 7 13 1 1
BITMAP
18
10
00
C2
C2
C2
C2
C2
C2
C2
C2
46
7E
ENDCHAR
STARTCHAR 00FB
ENCODING 251
SWIDTH 540 0
DWIDTH 9 0
BBX 7 14 1 0
BITMAP
10
38
6C
00
C2
C2
C2
C2
C2
C2
C2
C2
46
7E
ENDCHAR
STARTCHAR 00FC
ENCODING 252
SWIDTH 540 0
DWIDTH 9 0
BBX 7 13 1 0
BITMAP
6C
6C
00
C2
C2
C2
C2
C2
C2
C2
C2
46
7E
ENDCHAR
STARTCHAR 00FD
ENCODING 253
SWIDTH 540 0
DWIDTH 9 0
BBX 9 16 0 -2
BITMAP
0C00
0800
0000
6180
2100
2100
3300
1200
1200
1600
0C00
0C00
0C00
0800
1800
F000
ENDCHAR
STARTCHAR 00FE
ENCODING 254
SWIDTH 540 0
DWIDTH 9 0
BBX 7 15 1 -3
BITMAP
80
80
BC
C6
82
82
82
82
82
C2
C6
BC
80
80
80
ENDCHAR
STARTCHAR 00FF
ENCODING 255
SWIDTH 540 0
DWIDTH 9 0
BBX 9 16 0 -3
BITMAP
3600
3600
0000
6180
2100
2100
3300
1200
1200
1600
0C00
0C00
0C00
0800
1800
F000
ENDCHAR
STARTCHAR 0100
ENCODING 256
SWIDTH 540 0
DWIDTH 9 0
BBX 7 15 1 0
BITMAP
7C
00
00
10
38
28
28
28
6C
44
44
FE
82
82
82
ENDCHAR
STARTCHAR 0101
ENCODING 257
SWIDTH 540 0
DWIDTH 9 0
BBX 8 12 1 0
BITMAP
7C
00
78
C4
86
06
7E
C6
86
86
86
7B
ENDCHAR
STARTCHAR 0102
ENCODING 258
SWIDTH 540 0
DWIDTH 9 0
BBX 7 16 1 0
BITMAP
6C
38
00
00
10
38
28
28
28
6C
44
44
FE
82
82
82
ENDCHAR
STARTCHAR 0103
ENCODING 259
SWIDTH 540 0
DWIDTH 9 0
BBX 8 13 1 0
BITMAP
6C
38
00
78
C4
86
06
7E
C6
86
86
86
7B
ENDCHAR
STARTCHAR 0104
ENCODING 260
SWIDTH 540 0
DWIDTH 9 0
BBX 8 15 1 -3
BITMAP
10
38
28
28
28
6C
44
44
FE
82
82
82
06
0C
07
ENDCHAR
STARTCHAR 0105
ENCODING 261
SWIDTH 540 0
DWIDTH 9 0
BBX 8 13 1 -3
BITMAP
78
C4
86
06
7E
C6
86
86
86
7B
06
0C
07
ENDCHAR
STARTCHAR 0106
ENCODING 262
SWIDTH 540 0
DWIDTH 9 0
BBX 7 15 1 1
BITMAP
08
10
00
3C
46
C2
80
80
80
80
80
80
C2
46
3C
ENDCHAR
STARTCHAR 0107
ENCODING 263
SWIDTH 540 0
DWIDTH 9 0
BBX 7 13 1 1
BITMAP
18
10
00
3C
46
C0
80
80
80
80
C0
46
7C
ENDCHAR
STARTCHAR 0108
ENCODING 264
SWIDTH 540 0
DWIDTH 9 0
BBX 7 15 1 0
BITMAP
10
6C
00
3C
46
C2
80
80
80
80
80
80
C2
46
3C
ENDCHAR
STARTCHAR 0109
ENCODING 265
SWIDTH 540 0
DWIDTH 9 0
BBX 7 13 1 0
BITMAP
10
6C
00
3C
46
C0
80
80
80
80
C0
46
7C
ENDCHAR
STARTCHAR 010A
ENCODING 266
SWIDTH 540 0
DWIDTH 9 0
BBX 7 15 1 0
BITMAP
18
18
00
3C
46
C2
80
80
80
80
80
80
C2
46
3C
ENDCHAR
STARTCHAR 010B
ENCODING 267
SWIDTH 540 0
DWIDTH 9 0
BBX 7 13 1 0
BITMAP
18
18
00
3C
46
C0
80
80
80
80
C0
46
7C
ENDCHAR
STARTCHAR 010C
ENCODING 268
SWIDTH 540 0
DWIDTH 9 0
BBX 7 15 1 0
BITMAP
6C
38
00
3C
46
C2
80
80
80
80
80
80
C2
46
3C
ENDCHAR
STARTCHAR 010D
ENCODING 269
SWIDTH 540 0
DWIDTH 9 0
BBX 7 12 1 1
BITMAP
38
10
3C
46
C0
80
80
80
80
C0
46
7C
ENDCHAR
STARTCHAR 010E
ENCODING 270
SWIDTH 540 0
DWIDTH 9 0
BBX 7 15 1 1
BITMAP
2C
10
00
FC
86
82
82
82
82
82
82
82
82
86
FC
ENDCHAR
STARTCHAR 010F
ENCODING 271
SWIDTH 540 0
DWIDTH 9 0
BBX 9 12 0 0
BITMAP
0280
0280
3A80
4680
C600
C200
C200
C200
C200
C200
4600
3A00
ENDCHAR
STARTCHAR 0110
ENCODING 272
SWIDTH 540 0
DWIDTH 9 0
BBX 8 12 0 0
BITMAP
7E
43
41
41
41
F9
41
41
41
41
43
7E
ENDCHAR
STARTCHAR 0111
ENCODING 273
SWIDTH 540 0
DWIDTH 9 0
BBX 8 13 1 0
BITMAP
02
0F
0F
7A
C6
82
82
82
82
82
82
C6
7E
ENDCHAR
STARTCHAR 0112
ENCODING 274
SWIDTH 540 0
DWIDTH 9 0
BBX 7 15 1 0
BITMAP
7C
00
00
FE
C0
C0
C0
C0
F8
C0
C0
C0
C0
C0
FE
ENDCHAR
STARTCHAR 0113
ENCODING 275
SWIDTH 540 0
DWIDTH 9 0
BBX 7 12 1 0
BITMAP
7C
00
7C
C6
82
82
FE
80
80
80
C6
7C
ENDCHAR
STARTCHAR 0116
ENCODING 278
SWIDTH 540 0
DWIDTH 9 0
BBX 7 16 1 0
BITMAP
18
18
00
00
FE
C0
C0
C0
C0
F8
C0
C0
C0
C0
C0
FE
ENDCHAR
STARTCHAR 0117
ENCODING 279
SWIDTH 540 0
DWIDTH 9 0
BBX 7 13 1 0
BITMAP
18
18
00
7C
C6
82
82
FE
80
80
80
C6
7C
ENDCHAR
STARTCHAR 0118
ENCODING 280
SWIDTH 540 0
DWIDTH 9 0
BBX 7 15 1 -3
BITMAP
FE
C0
C0
C0
C0
F8
C0
C0
C0
C0
C0
FE
04
08
0E
ENDCHAR
STARTCHAR 0119
ENCODING 281
SWIDTH 540 0
DWIDTH 9 0
BBX 7 13 1 -3
BITMAP
7C
C6
82
82
FE
80
80
80
C6
7C
30
28
38
ENDCHAR
STARTCHAR 011A
ENCODING 282
SWIDTH 540 0
DWIDTH 9 0
BBX 7 15 1 1
BITMAP
3C
18
00
FE
C0
C0
C0
C0
F8
C0
C0
C0
C0
C0
FE
ENDCHAR
STARTCHAR 011B
ENCODING 283
SWIDTH 540 0
DWIDTH 9 0
BBX 7 12 1 1
BITMAP
38
10
7C
C6
82
82
FE
80
80
80
C6
7C
ENDCHAR
STARTCHAR 011C
ENCODING 284
SWIDTH 540 0
DWIDTH 9 0
BBX 7 15 1 0
BITMAP
10
6C
00
7C
46
C2
80
80
80
9E
82
82
82
46
7C
ENDCHAR
STARTCHAR 011D
ENCODING 285
SWIDTH 540 0
DWIDTH 9 0
BBX 7 16 1 -3
BITMAP
10
6C
00
7A
C6
82
82
82
82
82
C6
7E
02
02
46
3C
ENDCHAR
STARTCHAR 011E
ENCODING 286
SWIDTH 540 0
DWIDTH 9 0
BBX 7 15 1 0
BITMAP
6C
38
00
7C
46
C2
80
80
80
9E
82
82
82
46
7C
ENDCHAR
STARTCHAR 011F
ENCODING 287
SWIDTH 540 0
DWIDTH 9 0
BBX 7 16 1 -3
BITMAP
6C
38
00
7A
C6
82
82
82
82
82
C6
7E
02
02
46
3C
ENDCHAR
STARTCHAR 0120
ENCODING 288
SWIDTH 540 0
DWIDTH 9 0
BBX 7 15 1 0
BITMAP
18
18
00
7C
46
C2
80
80
80
9E
82
82
82
46
7C
ENDCHAR
STARTCHAR 0121
ENCODING 289
SWIDTH 540 0
DWIDTH 9 0
BBX 7 17 1 -3
BITMAP
18
38
00
00
7A
C6
82
82
82
82
82
C6
7E
02
02
46
3C
ENDCHAR
STARTCHAR 0122
ENCODING 290
SWIDTH 540 0
DWIDTH 9 0
BBX 7 15 1 -4
BITMAP
7C
46
C2
80
80
80
9E
82
82
82
46
7C
10
10
10
ENDCHAR
STARTCHAR 0123
ENCODING 291
SWIDTH 540 0
DWIDTH 9 0
BBX 7 17 1 -3
BITMAP
08
10
10
10
7A
C6
82
82
82
82
82
C6
7E
02
02
46
3C
ENDCHAR
STARTCHAR 0124
ENCODING 292
SWIDTH 540 0
DWIDTH 9 0
BBX 7 16 1 0
BITMAP
10
38
6C
00
82
82
82
82
82
FE
82
82
82
82
82
82
ENDCHAR
STARTCHAR 0125
ENCODING 293
SWIDTH 540 0
DWIDTH 9 0
BBX 8 16 0 0
BITMAP
40
60
F0
90
60
60
7E
63
61
61
61
61
61
61
61
61
ENDCHAR
STARTCHAR 0126
ENCODING 294
SWIDTH 540 0
DWIDTH 9 0
BBX 9 12 0 0
BITMAP
4100
4100
FF80
4100
4100
7F00
4100
4100
4100
4100
4100
4100
ENDCHAR
STARTCHAR 0127
ENCODING 295
SWIDTH 540 0
DWIDTH 9 0
BBX 8 13 0 0
BITMAP
60
F0
F0
7E
63
61
61
61
61
61
61
61
61
ENDCHAR
STARTCHAR 0128
ENCODING 296
SWIDTH 540 0
DWIDTH 9 0
BBX 7 16 1 0
BITMAP
74
4C
00
00
FE
10
10
10
10
10
10
10
10
10
10
FE
ENDCHAR
STARTCHAR 0129
ENCODING 297
SWIDTH 540 0
DWIDTH 9 0
BBX 6 13 2 0
BITMAP
68
98
00
F0
30
30
30
30
30
30
30
30
FC
ENDCHAR
STARTCHAR 012A
ENCODING 298
SWIDTH 540 0
DWIDTH 9 0
BBX 7 15 1 0
BITMAP
7C
00
00
FE
10
10
10
10
10
10
10
10
10
10
FE
ENDCHAR
STARTCHAR 012B
ENCODING 299
SWIDTH 540 0
DWIDTH 9 0
BBX 6 12 2 0
BITMAP
F8
00
F0
30
30
30
30
30
30
30
30
FC
ENDCHAR
STARTCHAR 012E
ENCODING 302
SWIDTH 540 0
DWIDTH 9 0
BBX 7 15 1 -3
BITMAP
FE
10
10
10
10
10
10
10
10
10
10
FE
30
20
38
ENDCHAR
STARTCHAR 012F
ENCODING 303
SWIDTH 540 0
DWIDTH 9 0
BBX 6 17 2 -3
BITMAP
30
30
00
00
F0
30
30
30
30
30
30
30
30
FC
20
40
70
ENDCHAR
STARTCHAR 0130
ENCODING 304
SWIDTH 540 0
DWIDTH 9 0
BBX 7 16 1 0
BITMAP
18
38
00
00
FE
10
10
10
10
10
10
10
10
10
10
FE
ENDCHAR
STARTCHAR 0131
ENCODING 305
SWIDTH 540 0
DWIDTH 9 0
BBX 6 10 2 0
BITMAP
F0
30
30
30
30
30
30
30
30
FC
ENDCHAR
STARTCHAR 0134
ENCODING 308
SWIDTH 540 0
DWIDTH 9 0
BBX 8 15 1 1
BITMAP
0E
1B
00
0E
02
02
02
02
02
02
02
06
86
C4
78
ENDCHAR
STARTCHAR 0135
ENCODING 309
SWIDTH 540 0
DWIDTH 9 0
BBX 7 16 1 -2
BITMAP
0C
1E
00
1C
04
04
04
04
04
04
04
04
04
04
8C
78
ENDCHAR
STARTCHAR 0136
ENCODING 310
SWIDTH 540 0
DWIDTH 9 0
BBX 8 16 1 -4
BITMAP
82
86
8C
98
B0
F0
90
98
8C
84
86
83
10
18
10
10
ENDCHAR
STARTCHAR 0137
ENCODING 311
SWIDTH 540 0
DWIDTH 9 0
BBX 6 16 2 -4
BITMAP
80
80
8C
98
B0
A0
E0
A0
B0
98
88
84
20
30
20
20
ENDCHAR
STARTCHAR 0139
ENCODING 313
SWIDTH 540 0
DWIDTH 9 0
BBX 6 15 2 1
BITMAP
C0
80
00
80
80
80
80
80
80
80
80
80
80
80
FC
ENDCHAR
STARTCHAR 013A
ENCODING 314
SWIDTH 540 0
DWIDTH 9 0
BBX 6 15 2 1
BITMAP
30
20
00
E0
20
20
20
20
20
20
20
20
20
24
3C
ENDCHAR
STARTCHAR 013B
ENCODING 315
SWIDTH 540 0
DWIDTH 9 0
BBX 6 16 2 -4
BITMAP
80
80
80
80
80
80
80
80
80
80
80
FC
20
30
20
20
ENDCHAR
STARTCHAR 013C
ENCODING 316
SWIDTH 540 0
DWIDTH 9 0
BBX 6 16 2 -4
BITMAP
E0
20
20
20
20
20
20
20
20
20
24
3C
18
18
10
10
ENDCHAR
STARTCHAR 013D
ENCODING 317
SWIDTH 540 0
DWIDTH 9 0
BBX 6 12 2 0
BITMAP
90
90
90
90
80
80
80
80
80
80
80
FC
ENDCHAR
STARTCHAR 013E
ENCODING 318
SWIDTH 540 0
DWIDTH 9 0
BBX 6 12 2 0
BITMAP
E8
28
28
28
20
20
20
20
20
20
24
3C
ENDCHAR
STARTCHAR 0141
ENCODING 321
SWIDTH 540 0
DWIDTH 9 0
BBX 7 12 1 0
BITMAP
40
40
40
40
70
C0
40
40
40
40
40
7E
ENDCHAR
STARTCHAR 0142
ENCODING 322
SWIDTH 540 0
DWIDTH 9 0
BBX 6 12 2 0
BITMAP
E0
20
20
28
70
E0
20
20
20
20
24
3C
ENDCHAR
STARTCHAR 0143
ENCODING 323
SWIDTH 540 0
DWIDTH 9 0
BBX 7 16 1 1
BITMAP
08
10
10
00
C2
C2
E2
A2
B2
92
92
8A
8A
8E
86
86
ENDCHAR
STARTCHAR 0144
ENCODING 324
SWIDTH 540 0
DWIDTH 9 0
BBX 7 13 1 1
BITMAP
18
10
00
FC
C6
C2
C2
C2
C2
C2
C2
C2
C2
ENDCHAR
STARTCHAR 0145
ENCODING 325
SWIDTH 540 0
DWIDTH 9 0
BBX 7 16 1 -4
BITMAP
C2
C2
E2
A2
B2
92
92
8A
8A
8E
86
86
10
18
10
10
ENDCHAR
STARTCHAR 0146
ENCODING 326
SWIDTH 540 0
DWIDTH 9 0
BBX 7 14 1 -4
BITMAP
FC
C6
C2
C2
C2
C2
C2
C2
C2
C2
10
18
10
10
ENDCHAR
STARTCHAR 0147
ENCODING 327
SWIDTH 540 0
DWIDTH 9 0
BBX 7 15 1 1
BITMAP
2C
10
00
C2
C2
E2
A2
B2
92
92
8A
8A
8E
86
86
ENDCHAR
STARTCHAR 0148
ENCODING 328
SWIDTH 540 0
DWIDTH 9 0
BBX 7 12 1 1
BITMAP
38
10
FC
C6
C2
C2
C2
C2
C2
C2
C2
C2
ENDCHAR
STARTCHAR 014A
ENCODING 330
SWIDTH 540 0
DWIDTH 9 0
BBX 7 14 1 -2
BITMAP
C2
C2
E2
A2
B2
92
92
8A
8A
8E
86
86
02
0E
ENDCHAR
STARTCHAR 014B
ENCODING 331
SWIDTH 540 0
DWIDTH 9 0
BBX 7 12 1 -2
BITMAP
FC
C6
C2
C2
C2
C2
C2
C2
C2
C2
02
0E
ENDCHAR
STARTCHAR 014C
ENCODING 332
SWIDTH 540 0
DWIDTH 9 0
BBX 7 14 1 0
BITMAP
7C
00
7C
C6
82
82
82
82
82
82
82
82
C6
7C
ENDCHAR
STARTCHAR 014D
ENCODING 333
SWIDTH 540 0
DWIDTH 9 0
BBX 7 12 1 0
BITMAP
7C
00
7C
46
C2
82
82
82
82
C2
46
7C
ENDCHAR
STARTCHAR 0150
ENCODING 336
SWIDTH 540 0
DWIDTH 9 0
BBX 7 17 1 0
BITMAP
20
64
CC
88
00
7C
C6
82
82
82
82
82
82
82
82
C6
7C
ENDCHAR
STARTCHAR 0151
ENCODING 337
SWIDTH 540 0
DWIDTH 9 0
BBX 7 14 1 0
BITMAP
20
6C
C8
00
7C
46
C2
82
82
82
82
C2
46
7C
ENDCHAR
STARTCHAR 0152
ENCODING 338
SWIDTH 540 0
DWIDTH 9 0
BBX 9 12 0 0
BITMAP
7F80
4C00
CC00
8C00
8400
8700
8400
8400
8C00
CC00
4C00
7F80
ENDCHAR
STARTCHAR 0153
ENCODING 339
SWIDTH 540 0
DWIDTH 9 0
BBX 9 10 0 0
BITMAP
7700
DD80
8880
8880
8F80
8800
8800
8800
DD80
7700
ENDCHAR
STARTCHAR 0154
ENCODING 340
SWIDTH 540 0
DWIDTH 9 0
BBX 7 15 1 1
BITMAP
18
10
00
FC
C6
C2
C2
C2
C6
FC
D8
C8
C4
C6
C2
ENDCHAR
STARTCHAR 0155
ENCODING 341
SWIDTH 540 0
DWIDTH 9 0
BBX 6 13 2 1
BITMAP
30
20
00
B8
CC
84
80
80
80
80
80
80
80
ENDCHAR
STARTCHAR 0156
ENCODING 342
SWIDTH 540 0
DWIDTH 9 0
BBX 7 16 1 -4
BITMAP
FC
C6
C2
C2
C2
C6
FC
D8
C8
C4
C6
C2
10
18
10
10
ENDCHAR
STARTCHAR 0157
ENCODING 343
SWIDTH 540 0
DWIDTH 9 0
BBX 6 14 2 -4
BITMAP
B8
CC
84
80
80
80
80
80
80
80
20
30
20
20
ENDCHAR
STARTCHAR 0158
ENCODING 344
SWIDTH 540 0
DWIDTH 9 0
BBX 7 15 1 1
BITMAP
2C
10
00
FC
C6
C2
C2
C2
C6
FC
D8
C8
C4
C6
C2
ENDCHAR
STARTCHAR 0159
ENCODING 345
SWIDTH 540 0
DWIDTH 9 0
BBX 6 12 2 1
BITMAP
70
20
B8
CC
84
80
80
80
80
80
80
80
ENDCHAR
STARTCHAR 015A
ENCODING 346
SWIDTH 540 0
DWIDTH 9 0
BBX 7 16 1 1
BITMAP
08
18
10
00
7C
C6
80
80
C0
38
0C
02
02
82
C6
7C
ENDCHAR
STARTCHAR 015B
ENCODING 347
SWIDTH 540 0
DWIDTH 9 0
BBX 7 13 1 1
BITMAP
18
10
00
7C
C6
C0
C0
78
0E
02
02
C6
7C
ENDCHAR
STARTCHAR 015C
ENCODING 348
SWIDTH 540 0
DWIDTH 9 0
BBX 7 15 1 0
BITMAP
18
6C
00
7C
C6
80
80
C0
38
0C
02
02
82
C6
7C
ENDCHAR
STARTCHAR 015D
ENCODING 349
SWIDTH 540 0
DWIDTH 9 0
BBX 7 13 1 0
BITMAP
10
6C
00
7C
C6
C0
C0
78
0E
02
02
C6
7C
ENDCHAR
STARTCHAR 015E
ENCODING 350
SWIDTH 540 0
DWIDTH 9 0
BBX 7 16 1 -4
BITMAP
7C
C6
80
80
C0
38
0C
02
02
82
C6
7C
10
18
28
38
ENDCHAR
STARTCHAR 015F
ENCODING 351
SWIDTH 540 0
DWIDTH 9 0
BBX 7 14 1 -4
BITMAP
7C
C6
C0
C0
78
0E
02
02
C6
7C
10
18
28
38
ENDCHAR
STARTCHAR 0160
ENCODING 352
SWIDTH 540 0
DWIDTH 9 0
BBX 7 15 1 0
BITMAP
6C
38
00
7C
C6
80
80
C0
38
0C
02
02
82
C6
7C
ENDCHAR
STARTCHAR 0161
ENCODING 353
SWIDTH 540 0
DWIDTH 9 0
BBX 7 12 1 1
BITMAP
38
10
7C
C6
C0
C0
78
0E
02
02
C6
7C
ENDCHAR
STARTCHAR 0162
ENCODING 354
SWIDTH 540 0
DWIDTH 9 0
BBX 9 16 0 -4
BITMAP
FF80
0800
0800
0800
0800
0800
0800
0800
0800
0800
0800
0800
0800
0C00
0400
1C00
ENDCHAR
STARTCHAR 0163
ENCODING 355
SWIDTH 540 0
DWIDTH 9 0
BBX 7 16 1 -4
BITMAP
20
20
FC
20
20
20
20
20
20
20
22
1E
08
0C
14
1C
ENDCHAR
STARTCHAR 0164
ENCODING 356
SWIDTH 540 0
DWIDTH 9 0
BBX 9 15 0 1
BITMAP
1600
0800
0000
FF80
0800
0800
0800
0800
0800
0800
0800
0800
0800
0800
0800
ENDCHAR
STARTCHAR 0165
ENCODING 357
SWIDTH 540 0
DWIDTH 9 0
BBX 7 14 1 0
BITMAP
08
08
28
28
FC
20
20
20
20
20
20
20
22
1E
ENDCHAR
STARTCHAR 0166
ENCODING 358
SWIDTH 540 0
DWIDTH 9 0
BBX 9 12 0 0
BITMAP
FF80
0800
0800
0800
0800
3E00
0800
0800
0800
0800
0800
0800
ENDCHAR
STARTCHAR 0167
ENCODING 359
SWIDTH 540 0
DWIDTH 9 0
BBX 7 12 1 0
BITMAP
20
20
FC
20
20
20
FC
20
20
20
22
1E
ENDCHAR
STARTCHAR 0168
ENCODING 360
SWIDTH 540 0
DWIDTH 9 0
BBX 7 16 1 0
BITMAP
74
4C
00
00
82
82
82
82
82
82
82
82
82
C2
46
7C
ENDCHAR
STARTCHAR 0169
ENCODING 361
SWIDTH 540 0
DWIDTH 9 0
BBX 7 13 1 0
BITMAP
74
4C
00
C2
C2
C2
C2
C2
C2
C2
C2
46
7E
ENDCHAR
STARTCHAR 016A
ENCODING 362
SWIDTH 540 0
DWIDTH 9 0
BBX 7 15 1 0
BITMAP
7C
00
00
82
82
82
82
82
82
82
82
82
C2
46
7C
ENDCHAR
STARTCHAR 016B
ENCODING 363
SWIDTH 540 0
DWIDTH 9 0
BBX 7 12 1 0
BITMAP
7C
00
C2
C2
C2
C2
C2
C2
C2
C2
46
7E
ENDCHAR
STARTCHAR 016C
ENCODING 364
SWIDTH 540 0
DWIDTH 9 0
BBX 7 16 1 0
BITMAP
6C
38
00
00
82
82
82
82
82
82
82
82
82
C2
46
7C
ENDCHAR
STARTCHAR 016D
ENCODING 365
SWIDTH 540 0
DWIDTH 9 0
BBX 7 13 1 0
BITMAP
6C
38
00
C2
C2
C2
C2
C2
C2
C2
C2
46
7E
ENDCHAR
STARTCHAR 016E
ENCODING 366
SWIDTH 540 0
DWIDTH 9 0
BBX 7 15 1 0
BITMAP
38
6C
6C
BA
82
82
82
82
82
82
82
82
C2
46
7C
ENDCHAR
STARTCHAR 016F
ENCODING 367
SWIDTH 540 0
DWIDTH 9 0
BBX 7 15 1 0
BITMAP
38
6C
6C
38
00
C2
C2
C2
C2
C2
C2
C2
C2
46
7E
ENDCHAR
STARTCHAR 0170
ENCODING 368
SWIDTH 540 0
DWIDTH 9 0
BBX 7 17 1 0
BITMAP
20
64
CC
08
00
82
82
82
82
82
82
82
82
82
C2
46
7C
ENDCHAR
STARTCHAR 0171
ENCODING 369
SWIDTH 540 0
DWIDTH 9 0
BBX 7 13 1 0
BITMAP
24
6C
00
C2
C2
C2
C2
C2
C2
C2
C2
46
7E
ENDCHAR
STARTCHAR 0172
ENCODING 370
SWIDTH 540 0
DWIDTH 9 0
BBX 7 15 1 -3
BITMAP
82
82
82
82
82
82
82
82
82
C2
46
7C
30
20
38
ENDCHAR
STARTCHAR 0173
ENCODING 371
SWIDTH 540 0
DWIDTH 9 0
BBX 7 13 1 -3
BITMAP
C2
C2
C2
C2
C2
C2
C2
C2
46
7E
0C
08
0E
ENDCHAR
STARTCHAR 0174
ENCODING 372
SWIDTH 540 0
DWIDTH 9 0
BBX 9 16 0 0
BITMAP
0800
1C00
3600
0000
C180
C180
4100
4100
4900
4D00
5D00
7500
7700
3700
3200
2200
ENDCHAR
STARTCHAR 0175
ENCODING 373
SWIDTH 540 0
DWIDTH 9 0
BBX 9 14 0 0
BITMAP
0800
1C00
3600
0000
C180
4180
4100
4900
4D00
5500
7700
3700
3600
2200
ENDCHAR
STARTCHAR 0176
ENCODING 374
SWIDTH 540 0
DWIDTH 9 0
BBX 9 16 0 0
BITMAP
0800
1C00
3600
0000
C180
4100
6300
2200
3600
1400
1C00
0800
0800
0800
0800
0800
ENDCHAR
STARTCHAR 0177
ENCODING 375
SWIDTH 540 0
DWIDTH 9 0
BBX 9 17 0 -3
BITMAP
0800
1C00
3600
0000
6180
2100
2100
3300
1200
1200
1600
0C00
0C00
0C00
0800
1800
F000
ENDCHAR
STARTCHAR 0178
ENCODING 376
SWIDTH 540 0
DWIDTH 9 0
BBX 9 16 0 0
BITMAP
3600
3600
0000
0000
C180
4100
6300
2200
3600
1400
1C00
0800
0800
0800
0800
0800
ENDCHAR
STARTCHAR 0179
ENCODING 377
SWIDTH 540 0
DWIDTH 9 0
BBX 7 15 1 1
BITMAP
18
10
00
FE
02
04
0C
08
18
10
20
60
40
80
FE
ENDCHAR
STARTCHAR 017A
ENCODING 378
SWIDTH 540 0
DWIDTH 9 0
BBX 7 13 1 1
BITMAP
18
10
00
FE
04
0C
08
18
30
20
60
40
FE
ENDCHAR
STARTCHAR 017B
ENCODING 379
SWIDTH 540 0
DWIDTH 9 0
BBX 7 16 1 0
BITMAP
18
38
00
00
FE
02
04
0C
08
18
10
20
60
40
80
FE
ENDCHAR
STARTCHAR 017C
ENCODING 380
SWIDTH 540 0
DWIDTH 9 0
BBX 7 14 1 0
BITMAP
18
38
00
00
FE
04
0C
08
18
30
20
60
40
FE
ENDCHAR
STARTCHAR 017D
ENCODING 381
SWIDTH 540 0
DWIDTH 9 0
BBX 7 15 1 1
BITMAP
2C
10
00
FE
02
04
0C
08
18
10
20
60
40
80
FE
ENDCHAR
STARTCHAR 017E
ENCODING 382
SWIDTH 540 0
DWIDTH 9 0
BBX 7 12 1 1
BITMAP
38
00
FE
04
0C
08
18
30
20
60
40
FE
ENDCHAR
STARTCHAR 0192
ENCODING 402
SWIDTH 540 0
DWIDTH 9 0
BBX 9 12 0 0
BITMAP
0700
0D80
0800
0800
0800
0800
3F00
0800
0800
0800
C800
7000
ENDCHAR
STARTCHAR 01A0
ENCODING 416
SWIDTH 540 0
DWIDTH 9 0
BBX 9 14 1 0
BITMAP
0080
0080
7C80
C680
8380
8200
8200
8200
8200
8200
8200
8200
C600
7C00
ENDCHAR
STARTCHAR 01A1
ENCODING 417
SWIDTH 540 0
DWIDTH 9 0
BBX 9 11 1 0
BITMAP
0080
7C80
4480
C700
8200
8200
8200
8200
C200
4600
7C00
ENDCHAR
STARTCHAR 01AF
ENCODING 431
SWIDTH 540 0
DWIDTH 9 0
BBX 9 15 1 0
BITMAP
0080
0080
0080
8280
8380
8200
8200
8200
8200
8200
8200
8200
C200
4600
7C00
ENDCHAR
STARTCHAR 01B0
ENCODING 432
SWIDTH 540 0
DWIDTH 9 0
BBX 9 13 1 0
BITMAP
0080
0080
0080
C280
C380
C200
C200
C200
C200
C200
C200
4600
7E00
ENDCHAR
STARTCHAR 01CD
ENCODING 461
SWIDTH 540 0
DWIDTH 9 0
BBX 7 15 1 1
BITMAP
2C
10
00
10
38
28
28
28
6C
44
44
FE
82
82
82
ENDCHAR
STARTCHAR 01CE
ENCODING 462
SWIDTH 540 0
DWIDTH 9 0
BBX 8 12 1 1
BITMAP
38
10
78
C4
86
06
7E
C6
86
86
86
7B
ENDCHAR
STARTCHAR 01CF
ENCODING 463
SWIDTH 540 0
DWIDTH 9 0
BBX 7 15 1 1
BITMAP
2C
10
00
FE
10
10
10
10
10
10
10
10
10
10
FE
ENDCHAR
STARTCHAR 01D0
ENCODING 464
SWIDTH 540 0
DWIDTH 9 0
BBX 6 13 2 0
BITMAP
40
78
00
F0
30
30
30
30
30
30
30
30
FC
ENDCHAR
STARTCHAR 01D1
ENCODING 465
SWIDTH 540 0
DWIDTH 9 0
BBX 7 15 1 0
BITMAP
6C
38
00
7C
C6
82
82
82
82
82
82
82
82
C6
7C
ENDCHAR
STARTCHAR 01D2
ENCODING 466
SWIDTH 540 0
DWIDTH 9 0
BBX 7 12 1 1
BITMAP
38
10
7C
46
C2
82
82
82
82
C2
46
7C
ENDCHAR
STARTCHAR 01D3
ENCODING 467
SWIDTH 540 0
DWIDTH 9 0
BBX 7 15 1 1
BITMAP
2C
10
00
82
82
82
82
82
82
82
82
82
C2
46
7C
ENDCHAR
STARTCHAR 01D4
ENCODING 468
SWIDTH 540 0
DWIDTH 9 0
BBX 7 12 1 1
BITMAP
38
00
C2
C2
C2
C2
C2
C2
C2
C2
46
7E
ENDCHAR
STARTCHAR 01D5
ENCODING 469
SWIDTH 540 0
DWIDTH 9 0
BBX 7 16 1 0
BITMAP
7C
00
6C
6C
82
82
82
82
82
82
82
82
82
C2
46
7C
ENDCHAR
STARTCHAR 01D6
ENCODING 470
SWIDTH 540 0
DWIDTH 9 0
BBX 7 16 1 0
BITMAP
7C
00
6C
6C
00
00
C2
C2
C2
C2
C2
C2
C2
C2
46
7E
ENDCHAR
STARTCHAR 01D7
ENCODING 471
SWIDTH 540 0
DWIDTH 9 0
BBX 7 17 1 0
BITMAP
08
18
7C
6C
00
82
82
82
82
82
82
82
82
82
C2
46
7C
ENDCHAR
STARTCHAR 01D8
ENCODING 472
SWIDTH 540 0
DWIDTH 9 0
BBX 7 16 1 1
BITMAP
08
10
00
6C
6C
00
C2
C2
C2
C2
C2
C2
C2
C2
46
7E
ENDCHAR
STARTCHAR 01D9
ENCODING 473
SWIDTH 540 0
DWIDTH 9 0
BBX 7 17 1 0
BITMAP
28
38
7C
6C
00
82
82
82
82
82
82
82
82
82
C2
46
7C
ENDCHAR
STARTCHAR 01DA
ENCODING 474
SWIDTH 540 0
DWIDTH 9 0
BBX 7 16 1 0
BITMAP
6C
38
00
6C
6C
00
C2
C2
C2
C2
C2
C2
C2
C2
46
7E
ENDCHAR
STARTCHAR 01DB
ENCODING 475
SWIDTH 540 0
DWIDTH 9 0
BBX 7 17 1 0
BITMAP
20
30
7C
6C
00
82
82
82
82
82
82
82
82
82
C2
46
7C
ENDCHAR
STARTCHAR 01DC
ENCODING 476
SWIDTH 540 0
DWIDTH 9 0
BBX 7 16 1 1
BITMAP
20
10
00
6C
6C
00
C2
C2
C2
C2
C2
C2
C2
C2
46
7E
ENDCHAR
STARTCHAR 0218
ENCODING 536
SWIDTH 540 0
DWIDTH 9 0
BBX 7 15 1 -4
BITMAP
7C
C6
80
80
C0
38
0C
02
02
82
C6
7C
10
10
10
ENDCHAR
STARTCHAR 0219
ENCODING 537
SWIDTH 540 0
DWIDTH 9 0
BBX 7 13 1 -4
BITMAP
7C
C6
C0
C0
78
0E
02
02
C6
7C
10
10
10
ENDCHAR
STARTCHAR 021A
ENCODING 538
SWIDTH 540 0
DWIDTH 9 0
BBX 9 16 0 -4
BITMAP
FF80
0800
0800
0800
0800
0800
0800
0800
0800
0800
0800
0800
0800
0C00
0800
0800
ENDCHAR
STARTCHAR 021B
ENCODING 539
SWIDTH 540 0
DWIDTH 9 0
BBX 7 16 1 -4
BITMAP
20
20
FC
20
20
20
20
20
20
20
22
1E
08
08
08
10
ENDCHAR
STARTCHAR 0237
ENCODING 567
SWIDTH 540 0
DWIDTH 9 0
BBX 6 13 1 -3
BITMAP
1C
04
04
04
04
04
04
04
04
04
04
8C
78
ENDCHAR
STARTCHAR 02BC
ENCODING 700
SWIDTH 540 0
DWIDTH 9 0
BBX 3 5 3 7
BITMAP
E0
E0
40
40
80
ENDCHAR
STARTCHAR 02C6
ENCODING 710
SWIDTH 540 0
DWIDTH 9 0
BBX 3 3 3 10
BITMAP
40
E0
A0
ENDCHAR
STARTCHAR 02C7
ENCODING 711
SWIDTH 540 0
DWIDTH 9 0
BBX 3 2 3 11
BITMAP
E0
40
ENDCHAR
STARTCHAR 02D8
ENCODING 728
SWIDTH 540 0
DWIDTH 9 0
BBX 5 2 2 11
BITMAP
D8
70
ENDCHAR
STARTCHAR 02D9
ENCODING 729
SWIDTH 540 0
DWIDTH 9 0
BBX 2 2 4 11
BITMAP
C0
C0
ENDCHAR
STARTCHAR 02DA
ENCODING 730
SWIDTH 540 0
DWIDTH 9 0
BBX 5 4 2 11
BITMAP
70
D8
D8
70
ENDCHAR
STARTCHAR 02DB
ENCODING 731
SWIDTH 540 0
DWIDTH 9 0
BBX 3 3 3 -3
BITMAP
C0
80
E0
ENDCHAR
STARTCHAR 02DC
ENCODING 732
SWIDTH 540 0
DWIDTH 9 0
BBX 5 3 2 10
BITMAP
E0
B8
18
ENDCHAR
STARTCHAR 02DD
ENCODING 733
SWIDTH 540 0
DWIDTH 9 0
BBX 6 3 1 10
BITMAP
20
6C
C8
ENDCHAR
STARTCHAR 0300
ENCODING 768
SWIDTH 0 0
DWIDTH 0 0
BBX 2 2 -6 11
BITMAP
C0
40
ENDCHAR
STARTCHAR 0301
ENCODING 769
SWIDTH 0 0
DWIDTH 0 0
BBX 2 3 -5 10
BITMAP
40
C0
80
ENDCHAR
STARTCHAR 0302
ENCODING 770
SWIDTH 0 0
DWIDTH 0 0
BBX 3 3 -6 10
BITMAP
40
E0
20
ENDCHAR
STARTCHAR 0303
ENCODING 771
SWIDTH 0 0
DWIDTH 0 0
BBX 5 3 -7 10
BITMAP
C0
B8
10
ENDCHAR
STARTCHAR 0304
ENCODING 772
SWIDTH 0 0
DWIDTH 0 0
BBX 5 1 -7 11
BITMAP
F8
ENDCHAR
STARTCHAR 0306
ENCODING 774
SWIDTH 0 0
DWIDTH 0 0
BBX 5 2 -7 10
BITMAP
D8
70
ENDCHAR
STARTCHAR 0307
ENCODING 775
SWIDTH 0 0
DWIDTH 0 0
BBX 2 2 -6 11
BITMAP
C0
C0
ENDCHAR
STARTCHAR 0308
ENCODING 776
SWIDTH 0 0
DWIDTH 0 0
BBX 5 2 -7 11
BITMAP
D8
D8
ENDCHAR
STARTCHAR 0309
ENCODING 777
SWIDTH 0 0
DWIDTH 0 0
BBX 3 3 -6 10
BITMAP
E0
20
40
ENDCHAR
STARTCHAR 030A
ENCODING 778
SWIDTH 0 0
DWIDTH 0 0
BBX 5 3 -7 11
BITMAP
70
D8
70
ENDCHAR
STARTCHAR 030B
ENCODING 779
SWIDTH 0 0
DWIDTH 0 0
BBX 6 3 -8 10
BITMAP
24
6C
C8
ENDCHAR
STARTCHAR 030C
ENCODING 780
SWIDTH 0 0
DWIDTH 0 0
BBX 3 3 -6 10
BITMAP
20
E0
40
ENDCHAR
STARTCHAR 0312
ENCODING 786
SWIDTH 0 0
DWIDTH 0 0
BBX 1 3 -5 10
BITMAP
80
80
80
ENDCHAR
STARTCHAR 031B
ENCODING 795
SWIDTH 0 0
DWIDTH 0 0
BBX 3 4 -5 10
BITMAP
20
20
20
E0
ENDCHAR
STARTCHAR 0323
ENCODING 803
SWIDTH 0 0
DWIDTH 0 0
BBX 2 2 -6 -4
BITMAP
C0
C0
ENDCHAR
STARTCHAR 0326
ENCODING 806
SWIDTH 0 0
DWIDTH 0 0
BBX 2 3 -6 -4
BITMAP
40
40
80
ENDCHAR
STARTCHAR 0327
ENCODING 807
SWIDTH 0 0
DWIDTH 0 0
BBX 3 4 -6 -4
BITMAP
40
60
A0
E0
ENDCHAR
STARTCHAR 0328
ENCODING 808
SWIDTH 0 0
DWIDTH 0 0
BBX 3 3 -6 -3
BITMAP
C0
80
E0
ENDCHAR
STARTCHAR 0374
ENCODING 884
SWIDTH 540 0
DWIDTH 9 0
BBX 1 5 4 7
BITMAP
80
80
80
80
80
ENDCHAR
STARTCHAR 0375
ENCODING 885
SWIDTH 540 0
DWIDTH 9 0
BBX 1 5 4 -3
BITMAP
80
80
80
80
80
ENDCHAR
STARTCHAR 037E
ENCODING 894
SWIDTH 540 0
DWIDTH 9 0
BBX 3 13 3 -3
BITMAP
E0
E0
00
00
00
00
00
00
E0
E0
40
40
80
ENDCHAR
STARTCHAR 0384
ENCODING 900
SWIDTH 540 0
DWIDTH 9 0
BBX 2 2 4 11
BITMAP
C0
80
ENDCHAR
STARTCHAR 0385
ENCODING 901
SWIDTH 540 0
DWIDTH 9 0
BBX 7 3 1 11
BITMAP
18
F6
C6
ENDCHAR
STARTCHAR 0386
ENCODING 902
SWIDTH 540 0
DWIDTH 9 0
BBX 8 12 0 0
BITMAP
28
7C
94
14
14
36
22
22
7F
41
41
41
ENDCHAR
STARTCHAR 0387
ENCODING 903
SWIDTH 540 0
DWIDTH 9 0
BBX 3 2 3 5
BITMAP
E0
E0
ENDCHAR
STARTCHAR 0388
ENCODING 904
SWIDTH 540 0
DWIDTH 9 0
BBX 10 12 -2 0
BITMAP
5FC0
D800
9800
1800
1800
1F00
1800
1800
1800
1800
1800
1FC0
ENDCHAR
STARTCHAR 0389
ENCODING 905
SWIDTH 540 0
DWIDTH 9 0
BBX 10 12 -2 0
BITMAP
5040
D040
9040
1040
1040
1FC0
1040
1040
1040
1040
1040
1040
ENDCHAR
STARTCHAR 038A
ENCODING 906
SWIDTH 540 0
DWIDTH 9 0
BBX 10 12 -2 0
BITMAP
7FC0
C200
8200
0200
0200
0200
0200
0200
0200
0200
0200
1FC0
ENDCHAR
STARTCHAR 038C
ENCODING 908
SWIDTH 540 0
DWIDTH 9 0
BBX 10 12 -2 0
BITMAP
2F80
78C0
9040
1040
1040
1040
1040
1040
1040
1040
18C0
0F80
ENDCHAR
STARTCHAR 038E
ENCODING 910
SWIDTH 540 0
DWIDTH 9 0
BBX 12 12 -3 0
BITMAP
5830
C820
8C60
0440
06C0
0280
0380
0100
0100
0100
0100
0100
ENDCHAR
STARTCHAR 038F
ENCODING 911
SWIDTH 540 0
DWIDTH 9 0
BBX 11 12 -2 0
BITMAP
2F80
78C0
9040
1040
1040
1040
1040
1040
1040
1040
18C0
3DE0
ENDCHAR
STARTCHAR 0390
ENCODING 912
SWIDTH 540 0
DWIDTH 9 0
BBX 8 14 0 0
BITMAP
08
F3
C3
00
10
10
10
10
10
10
10
10
18
0E
ENDCHAR
STARTCHAR 0391
ENCODING 913
SWIDTH 540 0
DWIDTH 9 0
BBX 7 12 1 0
BITMAP
10
38
28
28
28
6C
44
44
FE
82
82
82
ENDCHAR
STARTCHAR 0392
ENCODING 914
SWIDTH 540 0
DWIDTH 9 0
BBX 7 12 1 0
BITMAP
FC
86
82
82
86
FC
86
82
82
82
86
FC
ENDCHAR
STARTCHAR 0393
ENCODING 915
SWIDTH 540 0
DWIDTH 9 0
BBX 7 12 1 0
BITMAP
FE
C0
C0
C0
C0
C0
C0
C0
C0
C0
C0
C0
ENDCHAR
STARTCHAR 0394
ENCODING 916
SWIDTH 540 0
DWIDTH 9 0
BBX 7 12 1 0
BITMAP
10
38
28
28
28
6C
44
44
C6
82
82
FE
ENDCHAR
STARTCHAR 0395
ENCODING 917
SWIDTH 540 0
DWIDTH 9 0
BBX 7 12 1 0
BITMAP
FE
C0
C0
C0
C0
F8
C0
C0
C0
C0
C0
FE
ENDCHAR
STARTCHAR 0396
ENCODING 918
SWIDTH 540 0
DWIDTH 9 0
BBX 7 12 1 0
BITMAP
FE
02
04
0C
08
18
10
20
60
40
80
FE
ENDCHAR
STARTCHAR 0397
ENCODING 919
SWIDTH 540 0
DWIDTH 9 0
BBX 7 12 1 0
BITMAP
82
82
82
82
82
FE
82
82
82
82
82
82
ENDCHAR
STARTCHAR 0398
ENCODING 920
SWIDTH 540 0
DWIDTH 9 0
BBX 7 12 1 0
BITMAP
7C
C6
82
82
82
BA
82
82
82
82
C6
7C
ENDCHAR
STARTCHAR 0399
ENCODING 921
SWIDTH 540 0
DWIDTH 9 0
BBX 7 12 1 0
BITMAP
FE
10
10
10
10
10
10
10
10
10
10
FE
ENDCHAR
STARTCHAR 039A
ENCODING 922
SWIDTH 540 0
DWIDTH 9 0
BBX 8 12 1 0
BITMAP
82
86
8C
98
B0
F0
90
98
8C
84
86
83
ENDCHAR
STARTCHAR 039B
ENCODING 923
SWIDTH 540 0
DWIDTH 9 0
BBX 7 12 1 0
BITMAP
10
38
28
28
28
6C
44
44
C6
82
82
82
ENDCHAR
STARTCHAR 039C
ENCODING 924
SWIDTH 540 0
DWIDTH 9 0
BBX 7 12 1 0
BITMAP
82
C6
C6
C6
AE
AA
BA
92
82
82
82
82
ENDCHAR
STARTCHAR 039D
ENCODING 925
SWIDTH 540 0
DWIDTH 9 0
BBX 7 12 1 0
BITMAP
C2
C2
E2
A2
B2
92
92
8A
8A
8E
86
86
ENDCHAR
STARTCHAR 039E
ENCODING 926
SWIDTH 540 0
DWIDTH 9 0
BBX 9 12 0 0
BITMAP
FF80
0000
0000
0000
0000
3F00
0000
0000
0000
0000
0000
FF80
ENDCHAR
STARTCHAR 039F
ENCODING 927
SWIDTH 540 0
DWIDTH 9 0
BBX 7 12 1 0
BITMAP
7C
C6
82
82
82
82
82
82
82
82
C6
7C
ENDCHAR
STARTCHAR 03A0
ENCODING 928
SWIDTH 540 0
DWIDTH 9 0
BBX 7 12 1 0
BITMAP
FE
82
82
82
82
82
82
82
82
82
82
82
ENDCHAR
STARTCHAR 03A1
ENCODING 929
SWIDTH 540 0
DWIDTH 9 0
BBX 7 12 1 0
BITMAP
FC
C6
C2
C2
C2
C6
FC
C0
C0
C0
C0
C0
ENDCHAR
STARTCHAR 03A3
ENCODING 931
SWIDTH 540 0
DWIDTH 9 0
BBX 8 12 1 0
BITMAP
FF
C0
40
60
30
10
10
30
60
40
C0
FF
ENDCHAR
STARTCHAR 03A4
ENCODING 932
SWIDTH 540 0
DWIDTH 9 0
BBX 9 12 0 0
BITMAP
FF80
0800
0800
0800
0800
0800
0800
0800
0800
0800
0800
0800
ENDCHAR
STARTCHAR 03A5
ENCODING 933
SWIDTH 540 0
DWIDTH 9 0
BBX 9 12 0 0
BITMAP
C180
4100
6300
2200
3600
1400
1C00
0800
0800
0800
0800
0800
ENDCHAR
STARTCHAR 03A6
ENCODING 934
SWIDTH 540 0
DWIDTH 9 0
BBX 9 12 0 0
BITMAP
0800
0800
7F00
C980
C880
8880
8880
C880
C980
7F00
0800
0800
ENDCHAR
STARTCHAR 03A7
ENCODING 935
SWIDTH 540 0
DWIDTH 9 0
BBX 7 12 1 0
BITMAP
82
C6
44
6C
28
18
18
28
6C
44
C6
82
ENDCHAR
STARTCHAR 03A8
ENCODING 936
SWIDTH 540 0
DWIDTH 9 0
BBX 9 12 0 0
BITMAP
C980
C980
C980
C980
C980
C980
4980
7F00
1C00
0800
0800
0800
ENDCHAR
STARTCHAR 03A9
ENCODING 937
SWIDTH 540 0
DWIDTH 9 0
BBX 9 12 0 0
BITMAP
3E00
6300
4100
4100
4100
4100
4100
4100
4100
4100
6300
F780
ENDCHAR
STARTCHAR 03AA
ENCODING 938
SWIDTH 540 0
DWIDTH 9 0
BBX 7 16 1 0
BITMAP
6C
6C
00
00
FE
10
10
10
10
10
10
10
10
10
10
FE
ENDCHAR
STARTCHAR 03AB
ENCODING 939
SWIDTH 540 0
DWIDTH 9 0
BBX 9 16 0 0
BITMAP
3600
3600
0000
0000
C180
4100
6300
2200
3600
1400
1C00
0800
0800
0800
0800
0800
ENDCHAR
STARTCHAR 03AC
ENCODING 940
SWIDTH 540 0
DWIDTH 9 0
BBX 7 14 1 0
BITMAP
08
18
30
00
7A
4A
8E
86
86
84
84
84
CE
7A
ENDCHAR
STARTCHAR 03AD
ENCODING 941
SWIDTH 540 0
DWIDTH 9 0
BBX 7 14 1 0
BITMAP
08
18
30
00
7C
C6
80
C0
78
C0
80
82
C6
7C
ENDCHAR
STARTCHAR 03AE
ENCODING 942
SWIDTH 540 0
DWIDTH 9 0
BBX 7 17 1 -3
BITMAP
08
18
30
00
FC
E6
42
42
42
42
42
42
42
42
02
02
02
ENDCHAR
STARTCHAR 03AF
ENCODING 943
SWIDTH 540 0
DWIDTH 9 0
BBX 5 14 2 0
BITMAP
20
60
C0
00
40
40
40
40
40
40
40
40
60
38
ENDCHAR
STARTCHAR 03B0
ENCODING 944
SWIDTH 540 0
DWIDTH 9 0
BBX 8 14 0 0
BITMAP
0C
DB
D3
00
42
43
41
41
41
41
41
61
23
3E
ENDCHAR
STARTCHAR 03B1
ENCODING 945
SWIDTH 540 0
DWIDTH 9 0
BBX 7 10 1 0
BITMAP
7A
4A
8E
86
86
84
84
84
CE
7A
ENDCHAR
STARTCHAR 03B2
ENCODING 946
SWIDTH 540 0
DWIDTH 9 0
BBX 8 14 1 -2
BITMAP
7C
C4
84
84
84
9C
82
82
83
83
C2
BE
80
80
ENDCHAR
STARTCHAR 03B3
ENCODING 947
SWIDTH 540 0
DWIDTH 9 0
BBX 7 13 1 -3
BITMAP
82
82
C2
42
42
66
24
2C
38
18
10
10
10
ENDCHAR
STARTCHAR 03B4
ENCODING 948
SWIDTH 540 0
DWIDTH 9 0
BBX 7 12 1 0
BITMAP
3C
40
60
38
7C
C6
82
82
82
82
C6
7C
ENDCHAR
STARTCHAR 03B5
ENCODING 949
SWIDTH 540 0
DWIDTH 9 0
BBX 7 10 1 0
BITMAP
7C
C6
80
C0
78
C0
80
82
C6
7C
ENDCHAR
STARTCHAR 03B6
ENCODING 950
SWIDTH 540 0
DWIDTH 9 0
BBX 7 15 1 -3
BITMAP
7E
0C
18
20
60
40
C0
80
C0
40
70
1E
02
02
02
ENDCHAR
STARTCHAR 03B7
ENCODING 951
SWIDTH 540 0
DWIDTH 9 0
BBX 7 13 1 -3
BITMAP
FC
E6
42
42
42
42
42
42
42
42
02
02
02
ENDCHAR
STARTCHAR 03B8
ENCODING 952
SWIDTH 540 0
DWIDTH 9 0
BBX 7 12 1 0
BITMAP
38
6C
C6
82
82
FE
82
82
82
C6
6C
38
ENDCHAR
STARTCHAR 03B9
ENCODING 953
SWIDTH 540 0
DWIDTH 9 0
BBX 4 10 3 0
BITMAP
80
80
80
80
80
80
80
80
C0
70
ENDCHAR
STARTCHAR 03BA
ENCODING 954
SWIDTH 540 0
DWIDTH 9 0
BBX 6 10 2 0
BITMAP
8C
98
90
A0
E0
A0
B0
98
88
84
ENDCHAR
STARTCHAR 03BB
ENCODING 955
SWIDTH 540 0
DWIDTH 9 0
BBX 9 12 0 0
BITMAP
6000
3000
1000
1800
1800
1800
1C00
2400
2400
6600
4200
C180
ENDCHAR
STARTCHAR 03BC
ENCODING 956
SWIDTH 540 0
DWIDTH 9 0
BBX 7 13 1 -3
BITMAP
82
82
82
82
82
82
82
86
CE
FA
80
80
80
ENDCHAR
STARTCHAR 03BD
ENCODING 957
SWIDTH 540 0
DWIDTH 9 0
BBX 7 10 1 0
BITMAP
82
82
C2
42
42
66
24
2C
38
18
ENDCHAR
STARTCHAR 03BE
ENCODING 958
SWIDTH 540 0
DWIDTH 9 0
BBX 8 15 1 -3
BITMAP
7E
3C
60
40
60
3E
78
C0
80
E0
3C
06
02
03
02
ENDCHAR
STARTCHAR 03BF
ENCODING 959
SWIDTH 540 0
DWIDTH 9 0
BBX 7 10 1 0
BITMAP
7C
46
C2
82
82
82
82
C2
46
7C
ENDCHAR
STARTCHAR 03C0
ENCODING 960
SWIDTH 540 0
DWIDTH 9 0
BBX 9 10 0 0
BITMAP
FF80
2200
2200
2200
2200
2200
2200
2200
2200
2380
ENDCHAR
STARTCHAR 03C1
ENCODING 961
SWIDTH 540 0
DWIDTH 9 0
BBX 7 13 1 -3
BITMAP
7C
46
C2
82
82
82
82
C2
C6
BC
80
80
80
ENDCHAR
STARTCHAR 03C2
ENCODING 962
SWIDTH 540 0
DWIDTH 9 0
BBX 9 13 0 -3
BITMAP
3E00
6100
4180
4180
C000
4000
6000
3800
0E00
0200
0200
0200
0400
ENDCHAR
STARTCHAR 03C3
ENCODING 963
SWIDTH 540 0
DWIDTH 9 0
BBX 8 10 1 0
BITMAP
7F
46
C2
82
82
82
82
C2
46
7C
ENDCHAR
STARTCHAR 03C4
ENCODING 964
SWIDTH 540 0
DWIDTH 9 0
BBX 7 10 1 0
BITMAP
FE
10
10
10
10
10
10
10
12
1E
ENDCHAR
STARTCHAR 03C5
ENCODING 965
SWIDTH 540 0
DWIDTH 9 0
BBX 7 10 1 0
BITMAP
84
86
82
82
82
82
82
C2
46
7C
ENDCHAR
STARTCHAR 03C6
ENCODING 966
SWIDTH 540 0
DWIDTH 9 0
BBX 7 13 1 -3
BITMAP
6C
5E
D2
92
92
92
92
D2
56
7C
10
10
10
ENDCHAR
STARTCHAR 03C7
ENCODING 967
SWIDTH 540 0
DWIDTH 9 0
BBX 8 13 1 -3
BITMAP
C2
66
24
3C
18
18
10
38
28
28
4C
44
83
ENDCHAR
STARTCHAR 03C8
ENCODING 968
SWIDTH 540 0
DWIDTH 9 0
BBX 9 13 0 -3
BITMAP
0800
0800
C980
C980
C980
C980
C980
4900
7F00
0800
0800
0800
0800
ENDCHAR
STARTCHAR 03C9
ENCODING 969
SWIDTH 540 0
DWIDTH 9 0
BBX 9 10 0 0
BITMAP
6300
4100
4100
4180
C980
C980
4980
4900
5D00
7700
ENDCHAR
STARTCHAR 03CA
ENCODING 970
SWIDTH 540 0
DWIDTH 9 0
BBX 6 13 1 0
BITMAP
D8
D8
00
20
20
20
20
20
20
20
20
30
1C
ENDCHAR
STARTCHAR 03CB
ENCODING 971
SWIDTH 540 0
DWIDTH 9 0
BBX 7 13 1 0
BITMAP
6C
6C
00
84
86
82
82
82
82
82
C2
46
7C
ENDCHAR
STARTCHAR 03CC
ENCODING 972
SWIDTH 540 0
DWIDTH 9 0
BBX 7 14 1 0
BITMAP
08
18
30
00
7C
46
C2
82
82
82
82
C2
46
7C
ENDCHAR
STARTCHAR 03CD
ENCODING 973
SWIDTH 540 0
DWIDTH 9 0
BBX 7 14 1 0
BITMAP
08
10
20
00
84
86
82
82
82
82
82
C2
46
7C
ENDCHAR
STARTCHAR 03CE
ENCODING 974
SWIDTH 540 0
DWIDTH 9 0
BBX 9 14 0 0
BITMAP
0400
0C00
1000
0000
6300
4100
4100
4180
C980
C980
4980
4900
5D00
7700
ENDCHAR
STARTCHAR 03CF
ENCODING 975
SWIDTH 540 0
DWIDTH 9 0
BBX 8 14 1 -2
BITMAP
82
86
8C
98
B0
F0
90
98
8C
84
86
83
03
06
ENDCHAR
STARTCHAR 03D7
ENCODING 983
SWIDTH 540 0
DWIDTH 9 0
BBX 9 13 0 -3
BITMAP
4300
2780
3500
3600
3C00
3C00
3400
7600
E200
6380
0180
0500
0700
ENDCHAR
STARTCHAR 0400
ENCODING 1024
SWIDTH 540 0
DWIDTH 9 0
BBX 7 17 1 0
BITMAP
20
30
18
00
00
FE
C0
C0
C0
C0
F8
C0
C0
C0
C0
C0
FE
ENDCHAR
STARTCHAR 0401
ENCODING 1025
SWIDTH 540 0
DWIDTH 9 0
BBX 7 16 1 0
BITMAP
6C
6C
00
00
FE
C0
C0
C0
C0
F8
C0
C0
C0
C0
C0
FE
ENDCHAR
STARTCHAR 0402
ENCODING 1026
SWIDTH 540 0
DWIDTH 9 0
BBX 9 12 0 0
BITMAP
F800
2000
2000
2000
2F00
3180
2180
2080
2080
2180
2180
2700
ENDCHAR
STARTCHAR 0403
ENCODING 1027
SWIDTH 540 0
DWIDTH 9 0
BBX 7 15 1 1
BITMAP
18
10
00
FE
C0
C0
C0
C0
C0
C0
C0
C0
C0
C0
C0
ENDCHAR
STARTCHAR 0404
ENCODING 1028
SWIDTH 540 0
DWIDTH 9 0
BBX 7 12 1 0
BITMAP
7C
C6
80
80
80
F8
80
80
80
80
C6
7C
ENDCHAR
STARTCHAR 0405
ENCODING 1029
SWIDTH 540 0
DWIDTH 9 0
BBX 7 12 1 0
BITMAP
7C
C6
80
80
C0
38
0C
02
02
82
C6
7C
ENDCHAR
STARTCHAR 0406
ENCODING 1030
SWIDTH 540 0
DWIDTH 9 0
BBX 7 12 1 0
BITMAP
FE
10
10
10
10
10
10
10
10
10
10
FE
ENDCHAR
STARTCHAR 0407
ENCODING 1031
SWIDTH 540 0
DWIDTH 9 0
BBX 7 16 1 0
BITMAP
6C
6C
00
00
FE
10
10
10
10
10
10
10
10
10
10
FE
ENDCHAR
STARTCHAR 0408
ENCODING 1032
SWIDTH 540 0
DWIDTH 9 0
BBX 7 12 1 0
BITMAP
0E
02
02
02
02
02
02
02
06
86
C4
78
ENDCHAR
STARTCHAR 0409
ENCODING 1033
SWIDTH 540 0
DWIDTH 9 0
BBX 9 12 0 0
BITMAP
3C00
3400
3400
3400
2700
2580
2480
2480
2480
2480
6580
C700
ENDCHAR
STARTCHAR 040A
ENCODING 1034
SWIDTH 540 0
DWIDTH 9 0
BBX 9 12 0 0
BITMAP
8800
8800
8800
8800
FF00
8980
8880
8880
8880
8880
8980
8F00
ENDCHAR
STARTCHAR 040B
ENCODING 1035
SWIDTH 540 0
DWIDTH 9 0
BBX 9 12 0 0
BITMAP
F800
2000
2000
2000
3E00
3100
2180
2180
2180
2180
2180
2180
ENDCHAR
STARTCHAR 040C
ENCODING 1036
SWIDTH 540 0
DWIDTH 9 0
BBX 7 15 1 1
BITMAP
18
10
00
86
84
8C
88
90
F0
A0
90
98
8C
84
82
ENDCHAR
STARTCHAR 040D
ENCODING 1037
SWIDTH 540 0
DWIDTH 9 0
BBX 7 16 1 0
BITMAP
20
30
10
00
86
86
8E
8A
8A
92
92
B2
A2
E2
C2
C2
ENDCHAR
STARTCHAR 040E
ENCODING 1038
SWIDTH 540 0
DWIDTH 9 0
BBX 8 15 1 0
BITMAP
24
3C
00
83
C2
42
46
64
24
24
3C
18
18
98
F0
ENDCHAR
STARTCHAR 040F
ENCODING 1039
SWIDTH 540 0
DWIDTH 9 0
BBX 7 14 1 -2
BITMAP
82
82
82
82
82
82
82
82
82
82
82
FE
10
10
ENDCHAR
STARTCHAR 0410
ENCODING 1040
SWIDTH 540 0
DWIDTH 9 0
BBX 7 12 1 0
BITMAP
10
38
28
28
28
6C
44
44
FE
82
82
82
ENDCHAR
STARTCHAR 0411
ENCODING 1041
SWIDTH 540 0
DWIDTH 9 0
BBX 7 12 1 0
BITMAP
FC
80
80
80
FC
86
82
82
82
82
86
FC
ENDCHAR
STARTCHAR 0412
ENCODING 1042
SWIDTH 540 0
DWIDTH 9 0
BBX 7 12 1 0
BITMAP
FC
86
82
82
86
FC
86
82
82
82
86
FC
ENDCHAR
STARTCHAR 0413
ENCODING 1043
SWIDTH 540 0
DWIDTH 9 0
BBX 7 12 1 0
BITMAP
FE
C0
C0
C0
C0
C0
C0
C0
C0
C0
C0
C0
ENDCHAR
STARTCHAR 0414
ENCODING 1044
SWIDTH 540 0
DWIDTH 9 0
BBX 9 13 0 -1
BITMAP
1F00
1100
1100
1100
1100
1100
1100
1100
3100
2100
6100
FF80
C180
ENDCHAR
STARTCHAR 0415
ENCODING 1045
SWIDTH 540 0
DWIDTH 9 0
BBX 7 12 1 0
BITMAP
FE
C0
C0
C0
C0
F8
C0
C0
C0
C0
C0
FE
ENDCHAR
STARTCHAR 0416
ENCODING 1046
SWIDTH 540 0
DWIDTH 9 0
BBX 9 12 0 0
BITMAP
C980
4900
4900
6B00
2A00
3E00
3E00
2A00
6B00
4900
4900
C980
ENDCHAR
STARTCHAR 0417
ENCODING 1047
SWIDTH 540 0
DWIDTH 9 0
BBX 7 12 1 0
BITMAP
7C
C6
82
02
02
1C
06
02
02
82
C6
7C
ENDCHAR
STARTCHAR 0418
ENCODING 1048
SWIDTH 540 0
DWIDTH 9 0
BBX 7 12 1 0
BITMAP
86
86
8E
8A
8A
92
92
B2
A2
E2
C2
C2
ENDCHAR
STARTCHAR 0419
ENCODING 1049
SWIDTH 540 0
DWIDTH 9 0
BBX 7 15 1 0
BITMAP
6C
38
00
86
86
8E
8A
8A
92
92
B2
A2
E2
C2
C2
ENDCHAR
STARTCHAR 041A
ENCODING 1050
SWIDTH 540 0
DWIDTH 9 0
BBX 7 12 1 0
BITMAP
86
84
8C
88
90
F0
A0
90
98
8C
84
82
ENDCHAR
STARTCHAR 041B
ENCODING 1051
SWIDTH 540 0
DWIDTH 9 0
BBX 7 12 1 0
BITMAP
3E
22
22
22
22
22
22
22
62
62
42
82
ENDCHAR
STARTCHAR 041C
ENCODING 1052
SWIDTH 540 0
DWIDTH 9 0
BBX 7 12 1 0
BITMAP
82
C6
C6
C6
AE
AA
BA
92
82
82
82
82
ENDCHAR
STARTCHAR 041D
ENCODING 1053
SWIDTH 540 0
DWIDTH 9 0
BBX 7 12 1 0
BITMAP
82
82
82
82
82
FE
82
82
82
82
82
82
ENDCHAR
STARTCHAR 041E
ENCODING 1054
SWIDTH 540 0
DWIDTH 9 0
BBX 7 12 1 0
BITMAP
7C
C6
82
82
82
82
82
82
82
82
C6
7C
ENDCHAR
STARTCHAR 041F
ENCODING 1055
SWIDTH 540 0
DWIDTH 9 0
BBX 7 12 1 0
BITMAP
FE
82
82
82
82
82
82
82
82
82
82
82
ENDCHAR
STARTCHAR 0420
ENCODING 1056
SWIDTH 540 0
DWIDTH 9 0
BBX 7 12 1 0
BITMAP
FC
C6
C2
C2
C2
C6
FC
C0
C0
C0
C0
C0
ENDCHAR
STARTCHAR 0421
ENCODING 1057
SWIDTH 540 0
DWIDTH 9 0
BBX 7 12 1 0
BITMAP
3C
46
C2
80
80
80
80
80
80
C2
46
3C
ENDCHAR
STARTCHAR 0422
ENCODING 1058
SWIDTH 540 0
DWIDTH 9 0
BBX 9 12 0 0
BITMAP
FF80
0800
0800
0800
0800
0800
0800
0800
0800
0800
0800
0800
ENDCHAR
STARTCHAR 0423
ENCODING 1059
SWIDTH 540 0
DWIDTH 9 0
BBX 8 12 1 0
BITMAP
83
C2
42
46
64
24
24
3C
18
18
98
F0
ENDCHAR
STARTCHAR 0424
ENCODING 1060
SWIDTH 540 0
DWIDTH 9 0
BBX 9 12 0 0
BITMAP
0800
1C00
7F00
C980
C880
8880
8880
C880
C980
7F00
1C00
0800
ENDCHAR
STARTCHAR 0425
ENCODING 1061
SWIDTH 540 0
DWIDTH 9 0
BBX 7 12 1 0
BITMAP
82
C6
44
6C
28
18
18
28
6C
44
C6
82
ENDCHAR
STARTCHAR 0426
ENCODING 1062
SWIDTH 540 0
DWIDTH 9 0
BBX 8 14 1 -2
BITMAP
84
84
84
84
84
84
84
84
84
84
84
FF
03
03
ENDCHAR
STARTCHAR 0427
ENCODING 1063
SWIDTH 540 0
DWIDTH 9 0
BBX 7 12 1 0
BITMAP
86
86
86
86
86
86
86
C6
7E
06
06
06
ENDCHAR
STARTCHAR 0428
ENCODING 1064
SWIDTH 540 0
DWIDTH 9 0
BBX 8 12 1 0
BITMAP
93
93
93
93
93
93
93
93
93
93
93
FF
ENDCHAR
STARTCHAR 0429
ENCODING 1065
SWIDTH 540 0
DWIDTH 9 0
BBX 9 14 0 -2
BITMAP
9B00
9B00
9B00
9B00
9B00
9B00
9B00
9B00
9B00
9B00
9B00
FF80
0080
0080
ENDCHAR
STARTCHAR 042A
ENCODING 1066
SWIDTH 540 0
DWIDTH 9 0
BBX 9 12 0 0
BITMAP
E000
2000
2000
2000
3F00
2100
2180
2180
2180
2180
2100
3F00
ENDCHAR
STARTCHAR 042B
ENCODING 1067
SWIDTH 540 0
DWIDTH 9 0
BBX 9 12 0 0
BITMAP
C180
C180
C180
C180
F980
CD80
C580
C580
C580
C580
CD80
F980
ENDCHAR
STARTCHAR 042C
ENCODING 1068
SWIDTH 540 0
DWIDTH 9 0
BBX 7 12 1 0
BITMAP
C0
C0
C0
C0
FC
C6
C2
C2
C2
C2
C6
FC
ENDCHAR
STARTCHAR 042D
ENCODING 1069
SWIDTH 540 0
DWIDTH 9 0
BBX 7 12 1 0
BITMAP
7C
C6
02
02
02
3E
02
02
02
02
C6
7C
ENDCHAR
STARTCHAR 042E
ENCODING 1070
SWIDTH 540 0
DWIDTH 9 0
BBX 9 12 0 0
BITMAP
CF00
D900
D180
D080
D080
F080
D080
D080
D080
D180
D900
CF00
ENDCHAR
STARTCHAR 042F
ENCODING 1071
SWIDTH 540 0
DWIDTH 9 0
BBX 7 12 1 0
BITMAP
7E
C2
82
82
82
C2
7E
32
22
62
C2
82
ENDCHAR
STARTCHAR 0430
ENCODING 1072
SWIDTH 540 0
DWIDTH 9 0
BBX 8 10 1 0
BITMAP
78
C4
86
06
7E
C6
86
86
86
7B
ENDCHAR
STARTCHAR 0431
ENCODING 1073
SWIDTH 540 0
DWIDTH 9 0
BBX 7 12 1 0
BITMAP
06
7C
C0
80
FC
C6
82
82
82
82
C6
7C
ENDCHAR
STARTCHAR 0432
ENCODING 1074
SWIDTH 540 0
DWIDTH 9 0
BBX 7 10 1 0
BITMAP
FC
C6
C6
C6
FC
C6
C2
C2
C6
FC
ENDCHAR
STARTCHAR 0433
ENCODING 1075
SWIDTH 540 0
DWIDTH 9 0
BBX 7 10 1 0
BITMAP
FE
C0
C0
C0
C0
C0
C0
C0
C0
C0
ENDCHAR
STARTCHAR 0434
ENCODING 1076
SWIDTH 540 0
DWIDTH 9 0
BBX 9 11 0 -1
BITMAP
1F00
1100
1100
1100
1100
1100
3100
2100
6100
FF80
C180
ENDCHAR
STARTCHAR 0435
ENCODING 1077
SWIDTH 540 0
DWIDTH 9 0
BBX 7 10 1 0
BITMAP
7C
C6
82
82
FE
80
80
80
C6
7C
ENDCHAR
STARTCHAR 0436
ENCODING 1078
SWIDTH 540 0
DWIDTH 9 0
BBX 9 10 0 0
BITMAP
C980
4900
6B00
2A00
3E00
3E00
2A00
6B00
4900
C980
ENDCHAR
STARTCHAR 0437
ENCODING 1079
SWIDTH 540 0
DWIDTH 9 0
BBX 7 10 1 0
BITMAP
7C
C6
02
02
1C
06
02
82
C6
7C
ENDCHAR
STARTCHAR 0438
ENCODING 1080
SWIDTH 540 0
DWIDTH 9 0
BBX 7 10 1 0
BITMAP
86
86
8E
8A
9A
92
A2
E2
C2
C2
ENDCHAR
STARTCHAR 0439
ENCODING 1081
SWIDTH 540 0
DWIDTH 9 0
BBX 7 13 1 0
BITMAP
6C
38
00
86
86
8E
8A
9A
92
A2
E2
C2
C2
ENDCHAR
STARTCHAR 043A
ENCODING 1082
SWIDTH 540 0
DWIDTH 9 0
BBX 7 10 1 0
BITMAP
86
84
8C
98
F0
B0
98
88
84
86
ENDCHAR
STARTCHAR 043B
ENCODING 1083
SWIDTH 540 0
DWIDTH 9 0
BBX 7 10 1 0
BITMAP
3E
22
22
22
22
22
22
62
42
C2
ENDCHAR
STARTCHAR 043C
ENCODING 1084
SWIDTH 540 0
DWIDTH 9 0
BBX 7 10 1 0
BITMAP
82
C2
C6
C6
AE
AA
9A
92
82
82
ENDCHAR
STARTCHAR 043D
ENCODING 1085
SWIDTH 540 0
DWIDTH 9 0
BBX 7 10 1 0
BITMAP
82
82
82
82
FE
82
82
82
82
82
ENDCHAR
STARTCHAR 043E
ENCODING 1086
SWIDTH 540 0
DWIDTH 9 0
BBX 7 10 1 0
BITMAP
7C
46
C2
82
82
82
82
C2
46
7C
ENDCHAR
STARTCHAR 043F
ENCODING 1087
SWIDTH 540 0
DWIDTH 9 0
BBX 7 10 1 0
BITMAP
FE
82
82
82
82
82
82
82
82
82
ENDCHAR
STARTCHAR 0440
ENCODING 1088
SWIDTH 540 0
DWIDTH 9 0
BBX 7 13 1 -3
BITMAP
BC
C6
82
82
82
82
82
C2
C6
BC
80
80
80
ENDCHAR
STARTCHAR 0441
ENCODING 1089
SWIDTH 540 0
DWIDTH 9 0
BBX 7 10 1 0
BITMAP
3C
46
C0
80
80
80
80
C0
46
7C
ENDCHAR
STARTCHAR 0442
ENCODING 1090
SWIDTH 540 0
DWIDTH 9 0
BBX 9 10 0 0
BITMAP
FF80
0800
0800
0800
0800
0800
0800
0800
0800
0800
ENDCHAR
STARTCHAR 0443
ENCODING 1091
SWIDTH 540 0
DWIDTH 9 0
BBX 9 13 0 -3
BITMAP
6180
2100
2100
3300
1200
1200
1600
0C00
0C00
0C00
0800
1800
F000
ENDCHAR
STARTCHAR 0444
ENCODING 1092
SWIDTH 540 0
DWIDTH 9 0
BBX 8 15 1 -3
BITMAP
10
10
10
7C
D6
92
93
93
93
92
D6
7C
10
10
10
ENDCHAR
STARTCHAR 0445
ENCODING 1093
SWIDTH 540 0
DWIDTH 9 0
BBX 7 10 1 0
BITMAP
C6
44
6C
28
18
18
28
6C
44
C6
ENDCHAR
STARTCHAR 0446
ENCODING 1094
SWIDTH 540 0
DWIDTH 9 0
BBX 8 12 1 -2
BITMAP
84
84
84
84
84
84
84
84
84
FF
03
03
ENDCHAR
STARTCHAR 0447
ENCODING 1095
SWIDTH 540 0
DWIDTH 9 0
BBX 7 10 1 0
BITMAP
86
86
86
86
86
86
C6
7E
06
06
ENDCHAR
STARTCHAR 0448
ENCODING 1096
SWIDTH 540 0
DWIDTH 9 0
BBX 8 10 1 0
BITMAP
93
93
93
93
93
93
93
93
93
FF
ENDCHAR
STARTCHAR 0449
ENCODING 1097
SWIDTH 540 0
DWIDTH 9 0
BBX 9 12 0 -2
BITMAP
9B00
9B00
9B00
9B00
9B00
9B00
9B00
9B00
9B00
FF80
0080
0080
ENDCHAR
STARTCHAR 044A
ENCODING 1098
SWIDTH 540 0
DWIDTH 9 0
BBX 9 10 0 0
BITMAP
E000
2000
2000
2000
3F00
2180
2180
2180
2180
3F00
ENDCHAR
STARTCHAR 044B
ENCODING 1099
SWIDTH 540 0
DWIDTH 9 0
BBX 9 10 0 0
BITMAP
C180
C180
C180
C180
FD80
C580
C580
C580
C580
FD80
ENDCHAR
STARTCHAR 044C
ENCODING 1100
SWIDTH 540 0
DWIDTH 9 0
BBX 7 10 1 0
BITMAP
C0
C0
C0
C0
FE
C2
C2
C2
C6
FC
ENDCHAR
STARTCHAR 044D
ENCODING 1101
SWIDTH 540 0
DWIDTH 9 0
BBX 7 10 1 0
BITMAP
7C
C6
02
02
02
3E
02
02
C6
7C
ENDCHAR
STARTCHAR 044E
ENCODING 1102
SWIDTH 540 0
DWIDTH 9 0
BBX 9 10 0 0
BITMAP
CF00
D980
D180
D080
D080
F080
D080
D080
D980
CF00
ENDCHAR
STARTCHAR 044F
ENCODING 1103
SWIDTH 540 0
DWIDTH 9 0
BBX 7 10 1 0
BITMAP
7E
C2
82
82
C2
7E
32
62
42
82
ENDCHAR
STARTCHAR 0450
ENCODING 1104
SWIDTH 540 0
DWIDTH 9 0
BBX 7 14 1 0
BITMAP
20
30
10
00
7C
C6
82
82
FE
80
80
80
C6
7C
ENDCHAR
STARTCHAR 0451
ENCODING 1105
SWIDTH 540 0
DWIDTH 9 0
BBX 7 13 1 0
BITMAP
6C
6C
00
7C
C6
82
82
FE
80
80
80
C6
7C
ENDCHAR
STARTCHAR 0452
ENCODING 1106
SWIDTH 540 0
DWIDTH 9 0
BBX 8 15 0 -2
BITMAP
60
F0
F0
7E
63
61
61
61
61
61
61
61
61
01
07
ENDCHAR
STARTCHAR 0453
ENCODING 1107
SWIDTH 540 0
DWIDTH 9 0
BBX 7 13 1 1
BITMAP
18
10
00
FE
C0
C0
C0
C0
C0
C0
C0
C0
C0
ENDCHAR
STARTCHAR 0454
ENCODING 1108
SWIDTH 540 0
DWIDTH 9 0
BBX 7 10 1 0
BITMAP
7C
C6
80
80
80
F8
80
80
C6
7C
ENDCHAR
STARTCHAR 0455
ENCODING 1109
SWIDTH 540 0
DWIDTH 9 0
BBX 7 10 1 0
BITMAP
7C
C6
C0
C0
78
0E
02
02
C6
7C
ENDCHAR
STARTCHAR 0456
ENCODING 1110
SWIDTH 540 0
DWIDTH 9 0
BBX 6 14 2 0
BITMAP
30
30
00
00
F0
30
30
30
30
30
30
30
30
FC
ENDCHAR
STARTCHAR 0457
ENCODING 1111
SWIDTH 540 0
DWIDTH 9 0
BBX 6 13 2 0
BITMAP
D8
D8
00
F0
30
30
30
30
30
30
30
30
FC
ENDCHAR
STARTCHAR 0458
ENCODING 1112
SWIDTH 540 0
DWIDTH 9 0
BBX 6 17 1 -3
BITMAP
0C
0C
00
00
1C
04
04
04
04
04
04
04
04
04
04
8C
78
ENDCHAR
STARTCHAR 0459
ENCODING 1113
SWIDTH 540 0
DWIDTH 9 0
BBX 9 10 0 0
BITMAP
3C00
3400
3400
3400
2780
2480
2480
2480
6580
C700
ENDCHAR
STARTCHAR 045A
ENCODING 1114
SWIDTH 540 0
DWIDTH 9 0
BBX 9 10 0 0
BITMAP
8800
8800
8800
8800
FF00
8880
8880
8880
8980
8F00
ENDCHAR
STARTCHAR 045B
ENCODING 1115
SWIDTH 540 0
DWIDTH 9 0
BBX 8 13 0 0
BITMAP
60
F0
F0
7E
63
61
61
61
61
61
61
61
61
ENDCHAR
STARTCHAR 045C
ENCODING 1116
SWIDTH 540 0
DWIDTH 9 0
BBX 7 13 1 1
BITMAP
18
10
00
86
84
8C
98
F0
B0
98
88
84
86
ENDCHAR
STARTCHAR 045D
ENCODING 1117
SWIDTH 540 0
DWIDTH 9 0
BBX 7 14 1 0
BITMAP
20
30
10
00
86
86
8E
8A
9A
92
A2
E2
C2
C2
ENDCHAR
STARTCHAR 045E
ENCODING 1118
SWIDTH 540 0
DWIDTH 9 0
BBX 9 16 0 -3
BITMAP
1200
1E00
0000
6180
2100
2100
3300
1200
1200
1600
0C00
0C00
0C00
0800
1800
F000
ENDCHAR
STARTCHAR 045F
ENCODING 1119
SWIDTH 540 0
DWIDTH 9 0
BBX 7 12 1 -2
BITMAP
82
82
82
82
82
82
82
82
82
FE
10
10
ENDCHAR
STARTCHAR 0462
ENCODING 1122
SWIDTH 540 0
DWIDTH 9 0
BBX 9 12 0 0
BITMAP
2000
2000
F800
2000
3E00
2300
2100
2180
2180
2100
2100
3E00
ENDCHAR
STARTCHAR 0463
ENCODING 1123
SWIDTH 540 0
DWIDTH 9 0
BBX 8 12 0 0
BITMAP
60
60
60
F8
60
60
7E
63
61
61
61
7E
ENDCHAR
STARTCHAR 046A
ENCODING 1130
SWIDTH 540 0
DWIDTH 9 0
BBX 9 12 0 0
BITMAP
FF80
C180
4100
2300
3200
1C00
3E00
2A00
6B00
4900
4900
C980
ENDCHAR
STARTCHAR 046B
ENCODING 1131
SWIDTH 540 0
DWIDTH 9 0
BBX 9 10 0 0
BITMAP
FF80
C180
6300
2200
1C00
2A00
6B00
4900
4900
C980
ENDCHAR
STARTCHAR 0490
ENCODING 1168
SWIDTH 540 0
DWIDTH 9 0
BBX 7 14 1 0
BITMAP
02
02
FE
C0
C0
C0
C0
C0
C0
C0
C0
C0
C0
C0
ENDCHAR
STARTCHAR 0491
ENCODING 1169
SWIDTH 540 0
DWIDTH 9 0
BBX 7 12 1 0
BITMAP
02
02
FE
C0
C0
C0
C0
C0
C0
C0
C0
C0
ENDCHAR
STARTCHAR 0498
ENCODING 1176
SWIDTH 540 0
DWIDTH 9 0
BBX 7 16 1 -4
BITMAP
7C
C6
82
02
02
1C
06
02
02
82
C6
7C
10
18
28
38
ENDCHAR
STARTCHAR 0499
ENCODING 1177
SWIDTH 540 0
DWIDTH 9 0
BBX 7 14 1 -4
BITMAP
7C
C6
02
02
1C
06
02
82
C6
7C
10
18
28
38
ENDCHAR
STARTCHAR 04BB
ENCODING 1211
SWIDTH 540 0
DWIDTH 9 0
BBX 7 12 1 0
BITMAP
C0
C0
FC
C6
C2
C2
C2
C2
C2
C2
C2
C2
ENDCHAR
STARTCHAR 04C0
ENCODING 1216
SWIDTH 540 0
DWIDTH 9 0
BBX 7 12 1 0
BITMAP
FE
10
10
10
10
10
10
10
10
10
10
FE
ENDCHAR
STARTCHAR 04C1
ENCODING 1217
SWIDTH 540 0
DWIDTH 9 0
BBX 9 15 0 0
BITMAP
3600
1C00
0000
C980
4900
4900
6B00
2A00
3E00
3E00
2A00
6B00
4900
4900
C980
ENDCHAR
STARTCHAR 04C2
ENCODING 1218
SWIDTH 540 0
DWIDTH 9 0
BBX 9 13 0 0
BITMAP
3600
1C00
0000
C980
4900
6B00
2A00
3E00
3E00
2A00
6B00
4900
C980
ENDCHAR
STARTCHAR 04D0
ENCODING 1232
SWIDTH 540 0
DWIDTH 9 0
BBX 7 16 1 0
BITMAP
6C
38
00
00
10
38
28
28
28
6C
44
44
FE
82
82
82
ENDCHAR
STARTCHAR 04D1
ENCODING 1233
SWIDTH 540 0
DWIDTH 9 0
BBX 8 13 1 0
BITMAP
6C
38
00
78
C4
86
06
7E
C6
86
86
86
7B
ENDCHAR
STARTCHAR 04D2
ENCODING 1234
SWIDTH 540 0
DWIDTH 9 0
BBX 7 16 1 0
BITMAP
6C
6C
00
00
10
38
28
28
28
6C
44
44
FE
82
82
82
ENDCHAR
STARTCHAR 04D3
ENCODING 1235
SWIDTH 540 0
DWIDTH 9 0
BBX 8 13 1 0
BITMAP
6C
6C
00
78
C4
86
06
7E
C6
86
86
86
7B
ENDCHAR
STARTCHAR 04D4
ENCODING 1236
SWIDTH 540 0
DWIDTH 9 0
BBX 9 12 0 0
BITMAP
1F80
1C00
1C00
3C00
2C00
2C00
6F00
6C00
7C00
4C00
CC00
CF80
ENDCHAR
STARTCHAR 04D5
ENCODING 1237
SWIDTH 540 0
DWIDTH 9 0
BBX 9 10 0 0
BITMAP
7700
CD80
C880
0880
7F80
C800
8800
8800
DD80
7700
ENDCHAR
STARTCHAR 04D6
ENCODING 1238
SWIDTH 540 0
DWIDTH 9 0
BBX 7 16 1 0
BITMAP
24
3C
00
00
FE
C0
C0
C0
C0
F8
C0
C0
C0
C0
C0
FE
ENDCHAR
STARTCHAR 04D7
ENCODING 1239
SWIDTH 540 0
DWIDTH 9 0
BBX 7 13 1 0
BITMAP
6C
38
00
7C
C6
82
82
FE
80
80
80
C6
7C
ENDCHAR
STARTCHAR 04DC
ENCODING 1244
SWIDTH 540 0
DWIDTH 9 0
BBX 9 15 0 0
BITMAP
3600
3600
0000
C980
4900
4900
6B00
2A00
3E00
3E00
2A00
6B00
4900
4900
C980
ENDCHAR
STARTCHAR 04DD
ENCODING 1245
SWIDTH 540 0
DWIDTH 9 0
BBX 9 13 0 0
BITMAP
3600
3600
0000
C980
4900
6B00
2A00
3E00
3E00
2A00
6B00
4900
C980
ENDCHAR
STARTCHAR 04DE
ENCODING 1246
SWIDTH 540 0
DWIDTH 9 0
BBX 7 15 1 0
BITMAP
6C
6C
00
7C
C6
82
02
02
1C
06
02
02
82
C6
7C
ENDCHAR
STARTCHAR 04DF
ENCODING 1247
SWIDTH 540 0
DWIDTH 9 0
BBX 7 13 1 0
BITMAP
6C
6C
00
7C
C6
02
02
1C
06
02
82
C6
7C
ENDCHAR
STARTCHAR 04E2
ENCODING 1250
SWIDTH 540 0
DWIDTH 9 0
BBX 7 14 1 0
BITMAP
7C
00
86
86
8E
8A
8A
92
92
B2
A2
E2
C2
C2
ENDCHAR
STARTCHAR 04E3
ENCODING 1251
SWIDTH 540 0
DWIDTH 9 0
BBX 7 12 1 0
BITMAP
7C
00
86
86
8E
8A
9A
92
A2
E2
C2
C2
ENDCHAR
STARTCHAR 04E4
ENCODING 1252
SWIDTH 540 0
DWIDTH 9 0
BBX 7 15 1 0
BITMAP
6C
6C
00
86
86
8E
8A
8A
92
92
B2
A2
E2
C2
C2
ENDCHAR
STARTCHAR 04E5
ENCODING 1253
SWIDTH 540 0
DWIDTH 9 0
BBX 7 13 1 0
BITMAP
6C
6C
00
86
86
8E
8A
9A
92
A2
E2
C2
C2
ENDCHAR
STARTCHAR 04E6
ENCODING 1254
SWIDTH 540 0
DWIDTH 9 0
BBX 7 15 1 0
BITMAP
6C
6C
00
7C
C6
82
82
82
82
82
82
82
82
C6
7C
ENDCHAR
STARTCHAR 04E7
ENCODING 1255
SWIDTH 540 0
DWIDTH 9 0
BBX 7 13 1 0
BITMAP
6C
6C
00
7C
46
C2
82
82
82
82
C2
46
7C
ENDCHAR
STARTCHAR 04EC
ENCODING 1260
SWIDTH 540 0
DWIDTH 9 0
BBX 7 15 1 0
BITMAP
6C
6C
00
7C
C6
02
02
02
3E
02
02
02
02
C6
7C
ENDCHAR
STARTCHAR 04ED
ENCODING 1261
SWIDTH 540 0
DWIDTH 9 0
BBX 7 13 1 0
BITMAP
6C
6C
00
7C
C6
02
02
02
3E
02
02
C6
7C
ENDCHAR
STARTCHAR 04EE
ENCODING 1262
SWIDTH 540 0
DWIDTH 9 0
BBX 8 14 1 0
BITMAP
7C
00
83
C2
42
46
64
24
24
3C
18
18
98
F0
ENDCHAR
STARTCHAR 04EF
ENCODING 1263
SWIDTH 540 0
DWIDTH 9 0
BBX 9 15 0 -3
BITMAP
1E00
0000
6180
2100
2100
3300
1200
1200
1600
0C00
0C00
0C00
0800
1800
F000
ENDCHAR
STARTCHAR 04F0
ENCODING 1264
SWIDTH 540 0
DWIDTH 9 0
BBX 8 15 1 0
BITMAP
6C
6C
00
83
C2
42
46
64
24
24
3C
18
18
98
F0
ENDCHAR
STARTCHAR 04F1
ENCODING 1265
SWIDTH 540 0
DWIDTH 9 0
BBX 9 16 0 -3
BITMAP
3300
3300
0000
6180
2100
2100
3300
1200
1200
1600
0C00
0C00
0C00
0800
1800
F000
ENDCHAR
STARTCHAR 04F2
ENCODING 1266
SWIDTH 540 0
DWIDTH 9 0
BBX 8 16 1 0
BITMAP
02
66
48
00
83
C2
42
46
64
24
24
3C
18
18
98
F0
ENDCHAR
STARTCHAR 04F3
ENCODING 1267
SWIDTH 540 0
DWIDTH 9 0
BBX 9 17 0 -3
BITMAP
0100
1300
2600
0000
6180
2100
2100
3300
1200
1200
1600
0C00
0C00
0C00
0800
1800
F000
ENDCHAR
STARTCHAR 04F4
ENCODING 1268
SWIDTH 540 0
DWIDTH 9 0
BBX 7 15 1 0
BITMAP
6C
6C
00
86
86
86
86
86
86
86
C6
7E
06
06
06
ENDCHAR
STARTCHAR 04F5
ENCODING 1269
SWIDTH 540 0
DWIDTH 9 0
BBX 7 13 1 0
BITMAP
6C
6C
00
86
86
86
86
86
86
C6
7E
06
06
ENDCHAR
STARTCHAR 04F8
ENCODING 1272
SWIDTH 540 0
DWIDTH 9 0
BBX 9 15 0 0
BITMAP
3600
3600
0000
C180
C180
C180
C180
F980
CD80
C580
C580
C580
C580
CD80
F980
ENDCHAR
STARTCHAR 04F9
ENCODING 1273
SWIDTH 540 0
DWIDTH 9 0
BBX 9 13 0 0
BITMAP
3600
3600
0000
C180
C180
C180
C180
FD80
C580
C580
C580
C580
FD80
ENDCHAR
STARTCHAR 1E80
ENCODING 7808
SWIDTH 540 0
DWIDTH 9 0
BBX 9 17 0 0
BITMAP
1000
1000
0800
0800
0000
C180
C180
4100
4100
4900
4D00
5D00
7500
7700
3700
3200
2200
ENDCHAR
STARTCHAR 1E81
ENCODING 7809
SWIDTH 540 0
DWIDTH 9 0
BBX 9 14 0 0
BITMAP
1000
1800
0800
0000
C180
4180
4100
4900
4D00
5500
7700
3700
3600
2200
ENDCHAR
STARTCHAR 1E82
ENCODING 7810
SWIDTH 540 0
DWIDTH 9 0
BBX 9 16 0 1
BITMAP
0400
0800
0800
0000
C180
C180
4100
4100
4900
4D00
5D00
7500
7700
3700
3200
2200
ENDCHAR
STARTCHAR 1E83
ENCODING 7811
SWIDTH 540 0
DWIDTH 9 0
BBX 9 13 0 1
BITMAP
0C00
0800
0000
C180
4180
4100
4900
4D00
5500
7700
3700
3600
2200
ENDCHAR
STARTCHAR 1E84
ENCODING 7812
SWIDTH 540 0
DWIDTH 9 0
BBX 9 16 0 0
BITMAP
3600
3600
0000
0000
C180
C180
4100
4100
4900
4D00
5D00
7500
7700
3700
3200
2200
ENDCHAR
STARTCHAR 1E85
ENCODING 7813
SWIDTH 540 0
DWIDTH 9 0
BBX 9 13 0 0
BITMAP
3600
3600
0000
C180
4180
4100
4900
4D00
5500
7700
3700
3600
2200
ENDCHAR
STARTCHAR 1E9E
ENCODING 7838
SWIDTH 540 0
DWIDTH 9 0
BBX 9 12 0 0
BITMAP
3F80
6100
C200
8600
8400
8F00
8100
8180
8180
8180
9100
9F00
ENDCHAR
STARTCHAR 1EA0
ENCODING 7840
SWIDTH 540 0
DWIDTH 9 0
BBX 7 16 1 -4
BITMAP
10
38
28
28
28
6C
44
44
FE
82
82
82
00
00
18
18
ENDCHAR
STARTCHAR 1EA1
ENCODING 7841
SWIDTH 540 0
DWIDTH 9 0
BBX 8 13 1 -3
BITMAP
78
C4
86
06
7E
C6
86
86
86
7B
00
18
38
ENDCHAR
STARTCHAR 1EA2
ENCODING 7842
SWIDTH 540 0
DWIDTH 9 0
BBX 7 16 1 0
BITMAP
38
28
18
00
10
38
28
28
28
6C
44
44
FE
82
82
82
ENDCHAR
STARTCHAR 1EA3
ENCODING 7843
SWIDTH 540 0
DWIDTH 9 0
BBX 8 14 1 0
BITMAP
38
28
18
10
78
C4
86
06
7E
C6
86
86
86
7B
ENDCHAR
STARTCHAR 1EA4
ENCODING 7844
SWIDTH 540 0
DWIDTH 9 0
BBX 8 16 1 0
BITMAP
03
1E
6C
00
10
38
28
28
28
6C
44
44
FE
82
82
82
ENDCHAR
STARTCHAR 1EA5
ENCODING 7845
SWIDTH 540 0
DWIDTH 9 0
BBX 8 16 1 1
BITMAP
18
10
00
10
6C
00
78
C4
86
06
7E
C6
86
86
86
7B
ENDCHAR
STARTCHAR 1EA6
ENCODING 7846
SWIDTH 540 0
DWIDTH 9 0
BBX 7 16 1 0
BITMAP
04
1A
6C
00
10
38
28
28
28
6C
44
44
FE
82
82
82
ENDCHAR
STARTCHAR 1EA7
ENCODING 7847
SWIDTH 540 0
DWIDTH 9 0
BBX 8 16 1 1
BITMAP
30
10
00
10
6C
00
78
C4
86
06
7E
C6
86
86
86
7B
ENDCHAR
STARTCHAR 1EA8
ENCODING 7848
SWIDTH 540 0
DWIDTH 9 0
BBX 8 16 1 0
BITMAP
07
11
2F
00
10
38
28
28
28
6C
44
44
FE
82
82
82
ENDCHAR
STARTCHAR 1EA9
ENCODING 7849
SWIDTH 540 0
DWIDTH 9 0
BBX 8 17 1 0
BITMAP
38
28
18
00
38
6C
00
78
C4
86
06
7E
C6
86
86
86
7B
ENDCHAR
STARTCHAR 1EAA
ENCODING 7850
SWIDTH 540 0
DWIDTH 9 0
BBX 10 17 1 0
BITMAP
0740
15C0
2800
2800
0000
1000
3800
2800
2800
2800
6C00
4400
4400
FE00
8200
8200
8200
ENDCHAR
STARTCHAR 1EAB
ENCODING 7851
SWIDTH 540 0
DWIDTH 9 0
BBX 8 16 1 0
BITMAP
74
5C
00
10
6C
00
78
C4
86
06
7E
C6
86
86
86
7B
ENDCHAR
STARTCHAR 1EAC
ENCODING 7852
SWIDTH 540 0
DWIDTH 9 0
BBX 7 20 1 -4
BITMAP
10
38
6C
00
10
38
28
28
28
6C
44
44
FE
82
82
82
00
00
18
18
ENDCHAR
STARTCHAR 1EAD
ENCODING 7853
SWIDTH 540 0
DWIDTH 9 0
BBX 8 16 1 -3
BITMAP
10
6C
00
78
C4
86
06
7E
C6
86
86
86
7B
00
18
38
ENDCHAR
STARTCHAR 1EAE
ENCODING 7854
SWIDTH 540 0
DWIDTH 9 0
BBX 7 16 1 0
BITMAP
18
7C
38
00
10
38
28
28
28
6C
44
44
FE
82
82
82
ENDCHAR
STARTCHAR 1EAF
ENCODING 7855
SWIDTH 540 0
DWIDTH 9 0
BBX 8 17 1 0
BITMAP
08
18
10
00
6C
38
00
78
C4
86
06
7E
C6
86
86
86
7B
ENDCHAR
STARTCHAR 1EB0
ENCODING 7856
SWIDTH 540 0
DWIDTH 9 0
BBX 7 16 1 0
BITMAP
30
7C
38
00
10
38
28
28
28
6C
44
44
FE
82
82
82
ENDCHAR
STARTCHAR 1EB1
ENCODING 7857
SWIDTH 540 0
DWIDTH 9 0
BBX 8 17 1 0
BITMAP
20
30
10
00
6C
38
00
78
C4
86
06
7E
C6
86
86
86
7B
ENDCHAR
STARTCHAR 1EB2
ENCODING 7858
SWIDTH 540 0
DWIDTH 9 0
BBX 8 16 1 0
BITMAP
07
01
7F
00
10
38
28
28
28
6C
44
44
FE
82
82
82
ENDCHAR
STARTCHAR 1EB3
ENCODING 7859
SWIDTH 540 0
DWIDTH 9 0
BBX 8 17 1 0
BITMAP
38
28
18
00
6C
38
00
78
C4
86
06
7E
C6
86
86
86
7B
ENDCHAR
STARTCHAR 1EB4
ENCODING 7860
SWIDTH 540 0
DWIDTH 9 0
BBX 9 17 1 0
BITMAP
0600
0F80
0180
6C00
3800
1000
3800
2800
2800
2800
6C00
4400
4400
FE00
8200
8200
8200
ENDCHAR
STARTCHAR 1EB5
ENCODING 7861
SWIDTH 540 0
DWIDTH 9 0
BBX 8 16 1 0
BITMAP
74
5C
00
6C
38
00
78
C4
86
06
7E
C6
86
86
86
7B
ENDCHAR
STARTCHAR 1EB6
ENCODING 7862
SWIDTH 540 0
DWIDTH 9 0
BBX 7 20 1 -4
BITMAP
6C
38
00
00
10
38
28
28
28
6C
44
44
FE
82
82
82
00
00
18
18
ENDCHAR
STARTCHAR 1EB7
ENCODING 7863
SWIDTH 540 0
DWIDTH 9 0
BBX 8 16 1 -3
BITMAP
6C
38
00
78
C4
86
06
7E
C6
86
86
86
7B
00
18
38
ENDCHAR
STARTCHAR 1EB8
ENCODING 7864
SWIDTH 540 0
DWIDTH 9 0
BBX 7 16 1 -4
BITMAP
FE
C0
C0
C0
C0
F8
C0
C0
C0
C0
C0
FE
00
00
18
18
ENDCHAR
STARTCHAR 1EB9
ENCODING 7865
SWIDTH 540 0
DWIDTH 9 0
BBX 7 13 1 -3
BITMAP
7C
C6
82
82
FE
80
80
80
C6
7C
00
18
38
ENDCHAR
STARTCHAR 1EBA
ENCODING 7866
SWIDTH 540 0
DWIDTH 9 0
BBX 7 16 1 0
BITMAP
38
28
18
00
FE
C0
C0
C0
C0
F8
C0
C0
C0
C0
C0
FE
ENDCHAR
STARTCHAR 1EBB
ENCODING 7867
SWIDTH 540 0
DWIDTH 9 0
BBX 7 14 1 0
BITMAP
38
28
18
00
7C
C6
82
82
FE
80
80
80
C6
7C
ENDCHAR
STARTCHAR 1EBC
ENCODING 7868
SWIDTH 540 0
DWIDTH 9 0
BBX 7 16 1 0
BITMAP
34
6C
00
00
FE
C0
C0
C0
C0
F8
C0
C0
C0
C0
C0
FE
ENDCHAR
STARTCHAR 1EBD
ENCODING 7869
SWIDTH 540 0
DWIDTH 9 0
BBX 7 13 1 0
BITMAP
74
5C
00
7C
C6
82
82
FE
80
80
80
C6
7C
ENDCHAR
STARTCHAR 1EBE
ENCODING 7870
SWIDTH 540 0
DWIDTH 9 0
BBX 8 16 1 0
BITMAP
03
1E
2C
00
FE
C0
C0
C0
C0
F8
C0
C0
C0
C0
C0
FE
ENDCHAR
STARTCHAR 1EBF
ENCODING 7871
SWIDTH 540 0
DWIDTH 9 0
BBX 7 16 1 1
BITMAP
18
10
00
10
6C
00
7C
C6
82
82
FE
80
80
80
C6
7C
ENDCHAR
STARTCHAR 1EC0
ENCODING 7872
SWIDTH 540 0
DWIDTH 9 0
BBX 8 16 1 0
BITMAP
04
1B
2C
00
FE
C0
C0
C0
C0
F8
C0
C0
C0
C0
C0
FE
ENDCHAR
STARTCHAR 1EC1
ENCODING 7873
SWIDTH 540 0
DWIDTH 9 0
BBX 7 16 1 1
BITMAP
30
10
00
10
6C
00
7C
C6
82
82
FE
80
80
80
C6
7C
ENDCHAR
STARTCHAR 1EC2
ENCODING 7874
SWIDTH 540 0
DWIDTH 9 0
BBX 8 16 1 0
BITMAP
07
1D
3F
00
FE
C0
C0
C0
C0
F8
C0
C0
C0
C0
C0
FE
ENDCHAR
STARTCHAR 1EC3
ENCODING 7875
SWIDTH 540 0
DWIDTH 9 0
BBX 7 17 1 0
BITMAP
38
28
18
00
38
6C
00
7C
C6
82
82
FE
80
80
80
C6
7C
ENDCHAR
STARTCHAR 1EC4
ENCODING 7876
SWIDTH 540 0
DWIDTH 9 0
BBX 10 17 1 0
BITMAP
0740
1DC0
3C00
2400
0000
FE00
C000
C000
C000
C000
F800
C000
C000
C000
C000
C000
FE00
ENDCHAR
STARTCHAR 1EC5
ENCODING 7877
SWIDTH 540 0
DWIDTH 9 0
BBX 7 16 1 0
BITMAP
74
5C
00
10
28
00
7C
C6
82
82
FE
80
80
80
C6
7C
ENDCHAR
STARTCHAR 1EC6
ENCODING 7878
SWIDTH 540 0
DWIDTH 9 0
BBX 7 19 1 -3
BITMAP
18
6C
00
FE
C0
C0
C0
C0
F8
C0
C0
C0
C0
C0
FE
00
00
18
18
ENDCHAR
STARTCHAR 1EC7
ENCODING 7879
SWIDTH 540 0
DWIDTH 9 0
BBX 7 16 1 -3
BITMAP
10
6C
00
7C
C6
82
82
FE
80
80
80
C6
7C
00
18
38
ENDCHAR
STARTCHAR 1EC8
ENCODING 7880
SWIDTH 540 0
DWIDTH 9 0
BBX 7 16 1 0
BITMAP
38
28
18
00
FE
10
10
10
10
10
10
10
10
10
10
FE
ENDCHAR
STARTCHAR 1EC9
ENCODING 7881
SWIDTH 540 0
DWIDTH 9 0
BBX 6 14 2 0
BITMAP
70
50
30
00
F0
30
30
30
30
30
30
30
30
FC
ENDCHAR
STARTCHAR 1ECA
ENCODING 7882
SWIDTH 540 0
DWIDTH 9 0
BBX 7 16 1 -4
BITMAP
FE
10
10
10
10
10
10
10
10
10
10
FE
00
00
18
18
ENDCHAR
STARTCHAR 1ECB
ENCODING 7883
SWIDTH 540 0
DWIDTH 9 0
BBX 6 18 2 -4
BITMAP
30
30
00
00
F0
30
30
30
30
30
30
30
30
FC
00
00
30
30
ENDCHAR
STARTCHAR 1ECC
ENCODING 7884
SWIDTH 540 0
DWIDTH 9 0
BBX 7 15 1 -3
BITMAP
7C
C6
82
82
82
82
82
82
82
82
C6
7C
00
18
38
ENDCHAR
STARTCHAR 1ECD
ENCODING 7885
SWIDTH 540 0
DWIDTH 9 0
BBX 7 13 1 -3
BITMAP
7C
46
C2
82
82
82
82
C2
46
7C
00
18
38
ENDCHAR
STARTCHAR 1ECE
ENCODING 7886
SWIDTH 540 0
DWIDTH 9 0
BBX 7 16 1 0
BITMAP
38
28
18
00
7C
C6
82
82
82
82
82
82
82
82
C6
7C
ENDCHAR
STARTCHAR 1ECF
ENCODING 7887
SWIDTH 540 0
DWIDTH 9 0
BBX 7 14 1 0
BITMAP
38
28
18
00
7C
46
C2
82
82
82
82
C2
46
7C
ENDCHAR
STARTCHAR 1ED0
ENCODING 7888
SWIDTH 540 0
DWIDTH 9 0
BBX 8 16 1 0
BITMAP
03
16
38
00
7C
C6
82
82
82
82
82
82
82
82
C6
7C
ENDCHAR
STARTCHAR 1ED1
ENCODING 7889
SWIDTH 540 0
DWIDTH 9 0
BBX 7 16 1 1
BITMAP
18
10
00
10
6C
00
7C
46
C2
82
82
82
82
C2
46
7C
ENDCHAR
STARTCHAR 1ED2
ENCODING 7890
SWIDTH 540 0
DWIDTH 9 0
BBX 7 16 1 0
BITMAP
04
16
3A
00
7C
C6
82
82
82
82
82
82
82
82
C6
7C
ENDCHAR
STARTCHAR 1ED3
ENCODING 7891
SWIDTH 540 0
DWIDTH 9 0
BBX 7 16 1 1
BITMAP
30
10
00
10
6C
00
7C
46
C2
82
82
82
82
C2
46
7C
ENDCHAR
STARTCHAR 1ED4
ENCODING 7892
SWIDTH 540 0
DWIDTH 9 0
BBX 8 16 1 0
BITMAP
07
11
2B
00
7C
C6
82
82
82
82
82
82
82
82
C6
7C
ENDCHAR
STARTCHAR 1ED5
ENCODING 7893
SWIDTH 540 0
DWIDTH 9 0
BBX 7 17 1 0
BITMAP
38
28
18
00
38
6C
00
7C
46
C2
82
82
82
82
C2
46
7C
ENDCHAR
STARTCHAR 1ED6
ENCODING 7894
SWIDTH 540 0
DWIDTH 9 0
BBX 10 17 1 0
BITMAP
0740
15C0
2800
6C00
0000
7C00
C600
8200
8200
8200
8200
8200
8200
8200
8200
C600
7C00
ENDCHAR
STARTCHAR 1ED7
ENCODING 7895
SWIDTH 540 0
DWIDTH 9 0
BBX 7 16 1 0
BITMAP
74
5C
00
10
6C
00
7C
46
C2
82
82
82
82
C2
46
7C
ENDCHAR
STARTCHAR 1ED8
ENCODING 7896
SWIDTH 540 0
DWIDTH 9 0
BBX 7 18 1 -3
BITMAP
18
6C
00
7C
C6
82
82
82
82
82
82
82
82
C6
7C
00
18
38
ENDCHAR
STARTCHAR 1ED9
ENCODING 7897
SWIDTH 540 0
DWIDTH 9 0
BBX 7 16 1 -3
BITMAP
10
6C
00
7C
46
C2
82
82
82
82
C2
46
7C
00
18
38
ENDCHAR
STARTCHAR 1EDA
ENCODING 7898
SWIDTH 540 0
DWIDTH 9 0
BBX 9 16 1 1
BITMAP
0800
1800
1080
0080
7C80
C680
8380
8200
8200
8200
8200
8200
8200
8200
C600
7C00
ENDCHAR
STARTCHAR 1EDB
ENCODING 7899
SWIDTH 540 0
DWIDTH 9 0
BBX 9 13 1 1
BITMAP
1800
1080
0080
7C80
4480
C700
8200
8200
8200
8200
C200
4600
7C00
ENDCHAR
STARTCHAR 1EDC
ENCODING 7900
SWIDTH 540 0
DWIDTH 9 0
BBX 9 16 1 1
BITMAP
2000
3000
1080
0080
7C80
C680
8380
8200
8200
8200
8200
8200
8200
8200
C600
7C00
ENDCHAR
STARTCHAR 1EDD
ENCODING 7901
SWIDTH 540 0
DWIDTH 9 0
BBX 9 14 1 0
BITMAP
2000
3000
1080
0080
7C80
4480
C700
8200
8200
8200
8200
C200
4600
7C00
ENDCHAR
STARTCHAR 1EDE
ENCODING 7902
SWIDTH 540 0
DWIDTH 9 0
BBX 9 16 1 0
BITMAP
3800
2800
1880
0080
7C80
C680
8380
8200
8200
8200
8200
8200
8200
8200
C600
7C00
ENDCHAR
STARTCHAR 1EDF
ENCODING 7903
SWIDTH 540 0
DWIDTH 9 0
BBX 9 14 1 0
BITMAP
3800
2800
1880
0080
7C80
4480
C700
8200
8200
8200
8200
C200
4600
7C00
ENDCHAR
STARTCHAR 1EE0
ENCODING 7904
SWIDTH 540 0
DWIDTH 9 0
BBX 9 16 1 0
BITMAP
7400
4C80
0080
0080
7C80
C680
8380
8200
8200
8200
8200
8200
8200
8200
C600
7C00
ENDCHAR
STARTCHAR 1EE1
ENCODING 7905
SWIDTH 540 0
DWIDTH 9 0
BBX 9 13 1 0
BITMAP
7400
5C00
0080
7C80
4480
C700
8200
8200
8200
8200
C200
4600
7C00
ENDCHAR
STARTCHAR 1EE2
ENCODING 7906
SWIDTH 540 0
DWIDTH 9 0
BBX 9 17 1 -3
BITMAP
0080
0080
7C80
C680
8380
8200
8200
8200
8200
8200
8200
8200
C600
7C00
0000
1800
3800
ENDCHAR
STARTCHAR 1EE3
ENCODING 7907
SWIDTH 540 0
DWIDTH 9 0
BBX 9 14 1 -3
BITMAP
0080
7C80
4480
C700
8200
8200
8200
8200
C200
4600
7C00
0000
1800
3800
ENDCHAR
STARTCHAR 1EE4
ENCODING 7908
SWIDTH 540 0
DWIDTH 9 0
BBX 7 15 1 -3
BITMAP
82
82
82
82
82
82
82
82
82
C2
46
7C
00
18
38
ENDCHAR
STARTCHAR 1EE5
ENCODING 7909
SWIDTH 540 0
DWIDTH 9 0
BBX 7 13 1 -3
BITMAP
C2
C2
C2
C2
C2
C2
C2
C2
46
7E
00
18
38
ENDCHAR
STARTCHAR 1EE6
ENCODING 7910
SWIDTH 540 0
DWIDTH 9 0
BBX 7 16 1 0
BITMAP
38
28
18
00
82
82
82
82
82
82
82
82
82
C2
46
7C
ENDCHAR
STARTCHAR 1EE7
ENCODING 7911
SWIDTH 540 0
DWIDTH 9 0
BBX 7 14 1 0
BITMAP
38
28
18
00
C2
C2
C2
C2
C2
C2
C2
C2
46
7E
ENDCHAR
STARTCHAR 1EE8
ENCODING 7912
SWIDTH 540 0
DWIDTH 9 0
BBX 9 16 1 1
BITMAP
0800
1080
1080
0080
8280
8300
8200
8200
8200
8200
8200
8200
8200
C200
4600
7C00
ENDCHAR
STARTCHAR 1EE9
ENCODING 7913
SWIDTH 540 0
DWIDTH 9 0
BBX 9 13 1 1
BITMAP
1880
1080
0080
C280
C380
C200
C200
C200
C200
C200
C200
4600
7E00
ENDCHAR
STARTCHAR 1EEA
ENCODING 7914
SWIDTH 540 0
DWIDTH 9 0
BBX 9 17 1 0
BITMAP
2000
2000
1080
1080
0080
8280
8300
8200
8200
8200
8200
8200
8200
8200
C200
4600
7C00
ENDCHAR
STARTCHAR 1EEB
ENCODING 7915
SWIDTH 540 0
DWIDTH 9 0
BBX 9 14 1 0
BITMAP
2000
3080
1080
0080
C280
C380
C200
C200
C200
C200
C200
C200
4600
7E00
ENDCHAR
STARTCHAR 1EEC
ENCODING 7916
SWIDTH 540 0
DWIDTH 9 0
BBX 9 16 1 0
BITMAP
3800
2880
1880
0080
8280
8380
8200
8200
8200
8200
8200
8200
8200
C200
4600
7C00
ENDCHAR
STARTCHAR 1EED
ENCODING 7917
SWIDTH 540 0
DWIDTH 9 0
BBX 9 14 1 0
BITMAP
3800
2880
1880
0080
C280
C380
C200
C200
C200
C200
C200
C200
4600
7E00
ENDCHAR
STARTCHAR 1EEE
ENCODING 7918
SWIDTH 540 0
DWIDTH 9 0
BBX 9 16 1 0
BITMAP
7400
4C80
0080
0080
8280
8300
8200
8200
8200
8200
8200
8200
8200
C200
4600
7C00
ENDCHAR
STARTCHAR 1EEF
ENCODING 7919
SWIDTH 540 0
DWIDTH 9 0
BBX 9 13 1 0
BITMAP
7400
4C80
0080
C280
C380
C200
C200
C200
C200
C200
C200
4600
7E00
ENDCHAR
STARTCHAR 1EF0
ENCODING 7920
SWIDTH 540 0
DWIDTH 9 0
BBX 9 18 1 -3
BITMAP
0080
0080
0080
8280
8380
8200
8200
8200
8200
8200
8200
8200
C200
4600
7C00
0000
1800
3800
ENDCHAR
STARTCHAR 1EF1
ENCODING 7921
SWIDTH 540 0
DWIDTH 9 0
BBX 9 16 1 -3
BITMAP
0080
0080
0080
C280
C380
C200
C200
C200
C200
C200
C200
4600
7E00
0000
1800
3800
ENDCHAR
STARTCHAR 1EF2
ENCODING 7922
SWIDTH 540 0
DWIDTH 9 0
BBX 9 17 0 0
BITMAP
1000
1000
0800
0800
0000
C180
4100
6300
2200
3600
1400
1C00
0800
0800
0800
0800
0800
ENDCHAR
STARTCHAR 1EF3
ENCODING 7923
SWIDTH 540 0
DWIDTH 9 0
BBX 9 17 0 -3
BITMAP
1000
1800
0800
0000
6180
2100
2100
3300
1200
1200
1600
0C00
0C00
0C00
0800
1800
F000
ENDCHAR
STARTCHAR 1EF4
ENCODING 7924
SWIDTH 540 0
DWIDTH 9 0
BBX 9 16 0 -4
BITMAP
C180
4100
6300
2200
3600
1400
1C00
0800
0800
0800
0800
0800
0000
0000
0C00
0C00
ENDCHAR
STARTCHAR 1EF5
ENCODING 7925
SWIDTH 540 0
DWIDTH 9 0
BBX 9 14 0 -4
BITMAP
6180
2100
2100
3300
1200
1200
1600
0C00
0C00
0C00
0800
1800
F300
0300
ENDCHAR
STARTCHAR 1EF6
ENCODING 7926
SWIDTH 540 0
DWIDTH 9 0
BBX 9 16 0 0
BITMAP
1C00
1400
0C00
0000
C180
4100
6300
2200
3600
1400
1C00
0800
0800
0800
0800
0800
ENDCHAR
STARTCHAR 1EF7
ENCODING 7927
SWIDTH 540 0
DWIDTH 9 0
BBX 9 17 0 -3
BITMAP
1C00
1400
0C00
0000
6180
2100
2100
3300
1200
1200
1600
0C00
0C00
0C00
0800
1800
F000
ENDCHAR
STARTCHAR 1EF8
ENCODING 7928
SWIDTH 540 0
DWIDTH 9 0
BBX 9 16 0 0
BITMAP
3A00
2600
0000
0000
C180
4100
6300
2200
3600
1400
1C00
0800
0800
0800
0800
0800
ENDCHAR
STARTCHAR 1EF9
ENCODING 7929
SWIDTH 540 0
DWIDTH 9 0
BBX 9 16 0 -3
BITMAP
3A00
2600
0000
6180
2100
2100
3300
1200
1200
1600
0C00
0C00
0C00
0800
1800
F000
ENDCHAR
STARTCHAR 2013
ENCODING 8211
SWIDTH 540 0
DWIDTH 9 0
BBX 7 1 1 6
BITMAP
FE
ENDCHAR
STARTCHAR 2014
ENCODING 8212
SWIDTH 540 0
DWIDTH 9 0
BBX 9 1 0 6
BITMAP
FF80
ENDCHAR
STARTCHAR 2015
ENCODING 8213
SWIDTH 540 0
DWIDTH 9 0
BBX 9 1 0 6
BITMAP
FF80
ENDCHAR
STARTCHAR 2018
ENCODING 8216
SWIDTH 540 0
DWIDTH 9 0
BBX 3 5 3 7
BITMAP
20
40
40
E0
E0
ENDCHAR
STARTCHAR 2019
ENCODING 8217
SWIDTH 540 0
DWIDTH 9 0
BBX 3 5 3 7
BITMAP
E0
E0
40
40
80
ENDCHAR
STARTCHAR 201A
ENCODING 8218
SWIDTH 540 0
DWIDTH 9 0
BBX 3 5 3 -3
BITMAP
E0
E0
40
40
80
ENDCHAR
STARTCHAR 201C
ENCODING 8220
SWIDTH 540 0
DWIDTH 9 0
BBX 7 5 1 7
BITMAP
62
44
CC
CE
CE
ENDCHAR
STARTCHAR 201D
ENCODING 8221
SWIDTH 540 0
DWIDTH 9 0
BBX 7 5 1 7
BITMAP
66
66
66
44
8C
ENDCHAR
STARTCHAR 201E
ENCODING 8222
SWIDTH 540 0
DWIDTH 9 0
BBX 7 5 1 -3
BITMAP
66
66
66
44
84
ENDCHAR
STARTCHAR 2020
ENCODING 8224
SWIDTH 540 0
DWIDTH 9 0
BBX 6 7 2 5
BITMAP
20
20
FC
20
20
20
20
ENDCHAR
STARTCHAR 2021
ENCODING 8225
SWIDTH 540 0
DWIDTH 9 0
BBX 6 8 2 4
BITMAP
20
20
FC
20
20
FC
20
20
ENDCHAR
STARTCHAR 2022
ENCODING 8226
SWIDTH 540 0
DWIDTH 9 0
BBX 3 4 3 4
BITMAP
E0
E0
E0
40
ENDCHAR
STARTCHAR 2026
ENCODING 8230
SWIDTH 540 0
DWIDTH 9 0
BBX 9 2 0 0
BITMAP
FF80
FF80
ENDCHAR
STARTCHAR 2030
ENCODING 8240
SWIDTH 540 0
DWIDTH 9 0
BBX 9 11 0 1
BITMAP
0080
E100
B200
EC00
1800
3000
6000
FB80
2E80
2E80
3F80
ENDCHAR
STARTCHAR 2039
ENCODING 8249
SWIDTH 540 0
DWIDTH 9 0
BBX 4 7 2 3
BITMAP
30
20
40
C0
40
60
30
ENDCHAR
STARTCHAR 203A
ENCODING 8250
SWIDTH 540 0
DWIDTH 9 0
BBX 4 7 3 3
BITMAP
C0
40
20
30
20
60
C0
ENDCHAR
STARTCHAR 203C
ENCODING 8252
SWIDTH 540 0
DWIDTH 9 0
BBX 7 12 1 0
BITMAP
44
44
44
44
44
44
44
44
00
00
E6
C6
ENDCHAR
STARTCHAR 2044
ENCODING 8260
SWIDTH 0 0
DWIDTH 0 0
BBX 6 12 -3 0
BITMAP
04
0C
08
08
10
10
20
20
40
40
C0
80
ENDCHAR
STARTCHAR 2070
ENCODING 8304
SWIDTH 540 0
DWIDTH 9 0
BBX 5 7 2 6
BITMAP
70
50
D8
E8
58
50
70
ENDCHAR
STARTCHAR 2071
ENCODING 8305
SWIDTH 540 0
DWIDTH 9 0
BBX 4 9 3 5
BITMAP
60
00
E0
60
60
60
60
60
F0
ENDCHAR
STARTCHAR 2074
ENCODING 8308
SWIDTH 540 0
DWIDTH 9 0
BBX 5 7 2 6
BITMAP
10
30
30
50
F8
10
10
ENDCHAR
STARTCHAR 2075
ENCODING 8309
SWIDTH 540 0
DWIDTH 9 0
BBX 5 7 2 6
BITMAP
78
40
70
58
08
D8
70
ENDCHAR
STARTCHAR 2076
ENCODING 8310
SWIDTH 540 0
DWIDTH 9 0
BBX 5 7 2 6
BITMAP
70
58
F0
D8
D8
58
70
ENDCHAR
STARTCHAR 2077
ENCODING 8311
SWIDTH 540 0
DWIDTH 9 0
BBX 5 7 2 6
BITMAP
F8
10
10
20
20
40
40
ENDCHAR
STARTCHAR 2078
ENCODING 8312
SWIDTH 540 0
DWIDTH 9 0
BBX 5 7 2 6
BITMAP
70
50
50
70
C8
C8
70
ENDCHAR
STARTCHAR 2079
ENCODING 8313
SWIDTH 540 0
DWIDTH 9 0
BBX 5 7 2 6
BITMAP
70
D8
D8
78
18
58
70
ENDCHAR
STARTCHAR 207A
ENCODING 8314
SWIDTH 540 0
DWIDTH 9 0
BBX 5 5 2 7
BITMAP
20
20
F8
20
20
ENDCHAR
STARTCHAR 207B
ENCODING 8315
SWIDTH 540 0
DWIDTH 9 0
BBX 5 1 2 9
BITMAP
F8
ENDCHAR
STARTCHAR 207C
ENCODING 8316
SWIDTH 540 0
DWIDTH 9 0
BBX 5 3 2 8
BITMAP
F8
00
F8
ENDCHAR
STARTCHAR 207D
ENCODING 8317
SWIDTH 540 0
DWIDTH 9 0
BBX 4 12 3 2
BITMAP
30
60
C0
80
80
80
80
80
80
C0
40
30
ENDCHAR
STARTCHAR 207E
ENCODING 8318
SWIDTH 540 0
DWIDTH 9 0
BBX 4 12 2 2
BITMAP
C0
20
30
10
10
10
10
10
10
10
20
C0
ENDCHAR
STARTCHAR 207F
ENCODING 8319
SWIDTH 540 0
DWIDTH 9 0
BBX 5 7 2 4
BITMAP
F8
C8
88
88
88
88
88
ENDCHAR
STARTCHAR 2080
ENCODING 8320
SWIDTH 540 0
DWIDTH 9 0
BBX 5 7 2 -1
BITMAP
70
50
58
E8
D8
50
70
ENDCHAR
STARTCHAR 2081
ENCODING 8321
SWIDTH 540 0
DWIDTH 9 0
BBX 3 7 3 -1
BITMAP
40
C0
40
40
40
40
E0
ENDCHAR
STARTCHAR 2082
ENCODING 8322
SWIDTH 540 0
DWIDTH 9 0
BBX 5 7 2 -1
BITMAP
70
C8
18
10
60
40
F8
ENDCHAR
STARTCHAR 2083
ENCODING 8323
SWIDTH 540 0
DWIDTH 9 0
BBX 4 7 3 -1
BITMAP
E0
B0
30
60
30
B0
E0
ENDCHAR
STARTCHAR 2084
ENCODING 8324
SWIDTH 540 0
DWIDTH 9 0
BBX 5 7 2 -1
BITMAP
10
30
30
50
F8
10
10
ENDCHAR
STARTCHAR 2085
ENCODING 8325
SWIDTH 540 0
DWIDTH 9 0
BBX 5 7 2 -1
BITMAP
78
40
70
58
08
D8
70
ENDCHAR
STARTCHAR 2086
ENCODING 8326
SWIDTH 540 0
DWIDTH 9 0
BBX 5 7 2 -1
BITMAP
70
58
F0
D8
D8
58
70
ENDCHAR
STARTCHAR 2087
ENCODING 8327
SWIDTH 540 0
DWIDTH 9 0
BBX 5 7 2 -1
BITMAP
F8
10
10
20
20
40
40
ENDCHAR
STARTCHAR 2088
ENCODING 8328
SWIDTH 540 0
DWIDTH 9 0
BBX 5 7 2 -1
BITMAP
70
50
50
70
C8
C8
70
ENDCHAR
STARTCHAR 2089
ENCODING 8329
SWIDTH 540 0
DWIDTH 9 0
BBX 5 7 2 -1
BITMAP
70
58
D8
58
78
D8
70
ENDCHAR
STARTCHAR 208A
ENCODING 8330
SWIDTH 540 0
DWIDTH 9 0
BBX 5 5 2 0
BITMAP
20
20
F8
20
20
ENDCHAR
STARTCHAR 208B
ENCODING 8331
SWIDTH 540 0
DWIDTH 9 0
BBX 5 1 2 2
BITMAP
F8
ENDCHAR
STARTCHAR 208C
ENCODING 8332
SWIDTH 540 0
DWIDTH 9 0
BBX 5 3 2 1
BITMAP
F8
00
F8
ENDCHAR
STARTCHAR 208D
ENCODING 8333
SWIDTH 540 0
DWIDTH 9 0
BBX 4 12 3 -2
BITMAP
30
60
C0
80
80
80
80
80
80
C0
40
30
ENDCHAR
STARTCHAR 208E
ENCODING 8334
SWIDTH 540 0
DWIDTH 9 0
BBX 4 12 2 -2
BITMAP
C0
20
30
10
10
10
10
10
10
10
20
C0
ENDCHAR
STARTCHAR 2090
ENCODING 8336
SWIDTH 540 0
DWIDTH 9 0
BBX 6 7 2 -1
BITMAP
78
88
08
F8
88
98
FC
ENDCHAR
STARTCHAR 2091
ENCODING 8337
SWIDTH 540 0
DWIDTH 9 0
BBX 5 7 2 -1
BITMAP
78
C8
88
F8
80
C8
78
ENDCHAR
STARTCHAR 2092
ENCODING 8338
SWIDTH 540 0
DWIDTH 9 0
BBX 5 7 2 -1
BITMAP
F8
88
88
88
88
C8
70
ENDCHAR
STARTCHAR 2093
ENCODING 8339
SWIDTH 540 0
DWIDTH 9 0
BBX 5 7 2 -1
BITMAP
88
58
70
20
70
58
88
ENDCHAR
STARTCHAR 2094
ENCODING 8340
SWIDTH 540 0
DWIDTH 9 0
BBX 5 7 2 -1
BITMAP
F8
88
08
F8
88
98
70
ENDCHAR
STARTCHAR 2095
ENCODING 8341
SWIDTH 540 0
DWIDTH 9 0
BBX 5 9 2 -1
BITMAP
80
80
F8
C8
88
88
88
88
88
ENDCHAR
STARTCHAR 2096
ENCODING 8342
SWIDTH 540 0
DWIDTH 9 0
BBX 5 9 2 -1
BITMAP
C0
C0
C0
D8
F0
E0
F0
D8
C8
ENDCHAR
STARTCHAR 2097
ENCODING 8343
SWIDTH 540 0
DWIDTH 9 0
BBX 5 9 2 -1
BITMAP
E0
60
60
60
60
60
20
28
38
ENDCHAR
STARTCHAR 2098
ENCODING 8344
SWIDTH 540 0
DWIDTH 9 0
BBX 7 7 1 -1
BITMAP
FE
D2
92
92
92
92
92
ENDCHAR
STARTCHAR 2099
ENCODING 8345
SWIDTH 540 0
DWIDTH 9 0
BBX 5 7 2 -1
BITMAP
F8
88
88
88
88
88
88
ENDCHAR
STARTCHAR 209A
ENCODING 8346
SWIDTH 540 0
DWIDTH 9 0
BBX 5 9 2 -3
BITMAP
F8
88
88
88
88
C8
F8
80
80
ENDCHAR
STARTCHAR 209B
ENCODING 8347
SWIDTH 540 0
DWIDTH 9 0
BBX 5 7 2 -1
BITMAP
F8
88
C0
78
08
88
78
ENDCHAR
STARTCHAR 209C
ENCODING 8348
SWIDTH 540 0
DWIDTH 9 0
BBX 5 9 2 -1
BITMAP
40
40
F0
40
40
40
40
68
38
ENDCHAR
STARTCHAR 20A3
ENCODING 8355
SWIDTH 540 0
DWIDTH 9 0
BBX 9 12 0 0
BITMAP
3F80
2000
2000
2000
2000
2000
3E00
2000
2000
FC00
2000
2000
ENDCHAR
STARTCHAR 20A4
ENCODING 8356
SWIDTH 540 0
DWIDTH 9 0
BBX 7 12 1 0
BITMAP
3E
62
40
40
F8
40
40
F8
20
20
60
FE
ENDCHAR
STARTCHAR 20AC
ENCODING 8364
SWIDTH 540 0
DWIDTH 9 0
BBX 7 12 1 0
BITMAP
0E
18
20
60
FC
40
40
FC
60
20
18
0E
ENDCHAR
STARTCHAR 2122
ENCODING 8482
SWIDTH 540 0
DWIDTH 9 0
BBX 9 6 0 6
BITMAP
F580
2780
2780
2680
2480
2480
ENDCHAR
STARTCHAR 2150
ENCODING 8528
SWIDTH 540 0
DWIDTH 9 0
BBX 9 14 0 -1
BITMAP
6000
E300
6200
6200
6400
6400
FC00
0800
1F80
1180
3100
2200
6200
0200
ENDCHAR
STARTCHAR 2151
ENCODING 8529
SWIDTH 540 0
DWIDTH 9 0
BBX 9 14 0 -1
BITMAP
6000
E300
6200
6200
6400
6400
F800
0800
1780
1480
3480
2780
6480
0780
ENDCHAR
STARTCHAR 2152
ENCODING 8530
SWIDTH 540 0
DWIDTH 9 0
BBX 9 14 0 -1
BITMAP
4000
C180
4100
4200
4400
4800
F000
2000
7300
F480
1780
1480
1480
3B00
ENDCHAR
STARTCHAR 2153
ENCODING 8531
SWIDTH 540 0
DWIDTH 9 0
BBX 9 14 0 -1
BITMAP
6000
E300
6200
6200
6400
6400
F800
0800
1780
1480
3380
2080
6480
0780
ENDCHAR
STARTCHAR 2154
ENCODING 8532
SWIDTH 540 0
DWIDTH 9 0
BBX 9 14 0 -1
BITMAP
F000
9300
1200
3200
6400
C400
F800
0800
1780
1480
3380
2080
6480
0780
ENDCHAR
STARTCHAR 2155
ENCODING 8533
SWIDTH 540 0
DWIDTH 9 0
BBX 9 14 0 -1
BITMAP
6000
E300
6200
6200
6400
F400
0800
0F80
1400
1780
3480
2080
6480
0780
ENDCHAR
STARTCHAR 2156
ENCODING 8534
SWIDTH 540 0
DWIDTH 9 0
BBX 9 14 0 -1
BITMAP
F000
9300
1200
2600
C400
FC00
0800
0F80
1400
1780
3480
2080
6480
0780
ENDCHAR
STARTCHAR 2157
ENCODING 8535
SWIDTH 540 0
DWIDTH 9 0
BBX 9 14 0 -1
BITMAP
F000
9300
1200
7200
9400
F400
0800
0F80
1400
1780
3480
2080
6480
0780
ENDCHAR
STARTCHAR 2158
ENCODING 8536
SWIDTH 540 0
DWIDTH 9 0
BBX 9 14 0 -1
BITMAP
1000
3300
7200
5200
F400
1400
0800
0F80
1400
1780
3480
2080
6480
0780
ENDCHAR
STARTCHAR 2159
ENCODING 8537
SWIDTH 540 0
DWIDTH 9 0
BBX 9 14 0 -1
BITMAP
6000
E300
6200
6200
6400
6400
F800
0800
1780
1480
3780
2480
6480
0780
ENDCHAR
STARTCHAR 215A
ENCODING 8538
SWIDTH 540 0
DWIDTH 9 0
BBX 9 14 0 -1
BITMAP
F000
8300
F200
9200
1400
9400
F800
0800
1780
1480
3780
2480
6480
0780
ENDCHAR
STARTCHAR 215B
ENCODING 8539
SWIDTH 540 0
DWIDTH 9 0
BBX 9 14 0 -1
BITMAP
6000
E300
6200
6200
6400
6400
F800
0800
1780
1480
3700
2480
6480
0780
ENDCHAR
STARTCHAR 215C
ENCODING 8540
SWIDTH 540 0
DWIDTH 9 0
BBX 9 14 0 -1
BITMAP
F000
9300
1200
7200
1400
9400
F800
0800
1780
1480
3700
2480
6480
0780
ENDCHAR
STARTCHAR 215D
ENCODING 8541
SWIDTH 540 0
DWIDTH 9 0
BBX 9 14 0 -1
BITMAP
F000
8300
F200
9200
1400
9400
F800
0800
1780
1480
3700
2480
6480
0780
ENDCHAR
STARTCHAR 215E
ENCODING 8542
SWIDTH 540 0
DWIDTH 9 0
BBX 8 14 1 -1
BITMAP
F0
16
24
24
48
48
10
1E
29
29
6E
49
C9
0F
ENDCHAR
STARTCHAR 215F
ENCODING 8543
SWIDTH 540 0
DWIDTH 9 0
BBX 8 13 0 0
BITMAP
60
E3
62
62
64
64
F8
08
10
10
30
20
60
ENDCHAR
STARTCHAR 2189
ENCODING 8585
SWIDTH 540 0
DWIDTH 9 0
BBX 9 14 0 -1
BITMAP
7000
5300
9200
BA00
9400
5400
7800
0800
1780
1480
3380
2080
6480
0780
ENDCHAR
STARTCHAR 2190
ENCODING 8592
SWIDTH 540 0
DWIDTH 9 0
BBX 9 9 0 1
BITMAP
0800
1000
2000
4000
FF80
4000
2000
1000
0800
ENDCHAR
STARTCHAR 2191
ENCODING 8593
SWIDTH 540 0
DWIDTH 9 0
BBX 9 12 0 0
BITMAP
0800
1C00
3E00
6B00
C980
8880
0800
0800
0800
0800
0800
0800
ENDCHAR
STARTCHAR 2192
ENCODING 8594
SWIDTH 540 0
DWIDTH 9 0
BBX 9 10 0 1
BITMAP
0800
0400
0200
0100
FF80
0100
0300
0600
0C00
0800
ENDCHAR
STARTCHAR 2193
ENCODING 8595
SWIDTH 540 0
DWIDTH 9 0
BBX 9 13 0 0
BITMAP
0800
0800
0800
0800
0800
0800
0800
8880
C980
6B00
3E00
1C00
0800
ENDCHAR
STARTCHAR 2194
ENCODING 8596
SWIDTH 540 0
DWIDTH 9 0
BBX 9 7 0 3
BITMAP
1400
2200
4100
FF80
4100
2300
1600
ENDCHAR
STARTCHAR 2195
ENCODING 8597
SWIDTH 540 0
DWIDTH 9 0
BBX 7 10 1 1
BITMAP
10
38
7C
D6
10
10
D6
7C
38
10
ENDCHAR
STARTCHAR 2196
ENCODING 8598
SWIDTH 540 0
DWIDTH 9 0
BBX 9 9 0 3
BITMAP
FE00
E000
B000
9800
8C00
8600
8300
0180
0080
ENDCHAR
STARTCHAR 2197
ENCODING 8599
SWIDTH 540 0
DWIDTH 9 0
BBX 9 9 0 3
BITMAP
3F80
0180
0280
0480
0880
1080
2080
4000
8000
ENDCHAR
STARTCHAR 2198
ENCODING 8600
SWIDTH 540 0
DWIDTH 9 0
BBX 9 9 0 0
BITMAP
8000
C000
6080
3080
1880
0C80
0680
0380
3F80
ENDCHAR
STARTCHAR 2199
ENCODING 8601
SWIDTH 540 0
DWIDTH 9 0
BBX 9 9 0 0
BITMAP
0080
0180
8300
8600
8C00
9800
B000
E000
FE00
ENDCHAR
STARTCHAR 21D2
ENCODING 8658
SWIDTH 540 0
DWIDTH 9 0
BBX 8 6 1 3
BITMAP
08
04
FE
03
FE
04
ENDCHAR
STARTCHAR 21D4
ENCODING 8660
SWIDTH 540 0
DWIDTH 9 0
BBX 9 7 0 3
BITMAP
2200
2200
7F00
C180
7F00
2200
0200
ENDCHAR
STARTCHAR 2200
ENCODING 8704
SWIDTH 540 0
DWIDTH 9 0
BBX 7 12 1 0
BITMAP
82
82
82
FE
44
44
6C
28
28
28
38
10
ENDCHAR
STARTCHAR 2202
ENCODING 8706
SWIDTH 540 0
DWIDTH 9 0
BBX 7 12 1 0
BITMAP
70
18
0C
06
7E
C6
82
82
82
82
C6
7C
ENDCHAR
STARTCHAR 2203
ENCODING 8707
SWIDTH 540 0
DWIDTH 9 0
BBX 7 12 1 0
BITMAP
FE
02
02
02
02
3E
02
02
02
02
02
FE
ENDCHAR
STARTCHAR 2205
ENCODING 8709
SWIDTH 540 0
DWIDTH 9 0
BBX 9 10 0 1
BITMAP
3F00
6300
4780
C480
8C80
9880
D080
7100
6300
7E00
ENDCHAR
STARTCHAR 2207
ENCODING 8711
SWIDTH 540 0
DWIDTH 9 0
BBX 7 12 1 0
BITMAP
FE
82
82
C6
44
44
6C
28
28
28
38
10
ENDCHAR
STARTCHAR 2208
ENCODING 8712
SWIDTH 540 0
DWIDTH 9 0
BBX 7 10 1 0
BITMAP
3E
60
C0
80
FE
80
C0
40
60
1E
ENDCHAR
STARTCHAR 2209
ENCODING 8713
SWIDTH 540 0
DWIDTH 9 0
BBX 7 12 1 -1
BITMAP
06
3E
6C
C8
88
FE
90
F0
70
60
7E
40
ENDCHAR
STARTCHAR 220F
ENCODING 8719
SWIDTH 540 0
DWIDTH 9 0
BBX 9 15 0 -3
BITMAP
FF80
2200
2200
2200
2200
2200
2200
2200
2200
2200
2200
2200
2200
2200
2200
ENDCHAR
STARTCHAR 2211
ENCODING 8721
SWIDTH 540 0
DWIDTH 9 0
BBX 9 15 0 -3
BITMAP
FF80
4000
2000
2000
1000
1000
0800
0C00
0800
1000
1000
2000
2000
4000
FF80
ENDCHAR
STARTCHAR 2212
ENCODING 8722
SWIDTH 540 0
DWIDTH 9 0
BBX 9 1 0 6
BITMAP
FF80
ENDCHAR
STARTCHAR 221A
ENCODING 8730
SWIDTH 540 0
DWIDTH 9 0
BBX 9 15 0 -3
BITMAP
0780
0400
0400
0400
0400
0C00
0800
C800
4800
4800
7800
3800
3000
3000
3000
ENDCHAR
STARTCHAR 221E
ENCODING 8734
SWIDTH 540 0
DWIDTH 9 0
BBX 9 4 0 4
BITMAP
7700
9C80
9C80
7700
ENDCHAR
STARTCHAR 2227
ENCODING 8743
SWIDTH 540 0
DWIDTH 9 0
BBX 7 7 1 1
BITMAP
10
10
28
6C
44
C2
82
ENDCHAR
STARTCHAR 2228
ENCODING 8744
SWIDTH 540 0
DWIDTH 9 0
BBX 7 7 1 1
BITMAP
82
C6
44
28
38
10
10
ENDCHAR
STARTCHAR 2229
ENCODING 8745
SWIDTH 540 0
DWIDTH 9 0
BBX 7 10 1 0
BITMAP
38
44
C6
C6
C6
C6
C6
C6
C6
C6
ENDCHAR
STARTCHAR 222A
ENCODING 8746
SWIDTH 540 0
DWIDTH 9 0
BBX 7 10 1 0
BITMAP
C6
C6
C6
C6
C6
C6
C6
C6
44
38
ENDCHAR
STARTCHAR 222B
ENCODING 8747
SWIDTH 540 0
DWIDTH 9 0
BBX 9 15 0 -3
BITMAP
0380
0400
0400
0400
0C00
0C00
0800
0800
0800
0800
1800
1800
1000
1000
E000
ENDCHAR
STARTCHAR 2248
ENCODING 8776
SWIDTH 540 0
DWIDTH 9 0
BBX 9 6 0 4
BITMAP
7180
CD80
0700
7000
5980
0700
ENDCHAR
STARTCHAR 2260
ENCODING 8800
SWIDTH 540 0
DWIDTH 9 0
BBX 9 8 0 2
BITMAP
0600
0400
FF80
0800
0800
FF80
1000
3000
ENDCHAR
STARTCHAR 2261
ENCODING 8801
SWIDTH 540 0
DWIDTH 9 0
BBX 7 8 1 2
BITMAP
FE
00
00
FE
00
00
00
FE
ENDCHAR
STARTCHAR 2264
ENCODING 8804
SWIDTH 540 0
DWIDTH 9 0
BBX 7 9 1 2
BITMAP
02
0C
30
E0
30
1C
06
00
FE
ENDCHAR
STARTCHAR 2265
ENCODING 8805
SWIDTH 540 0
DWIDTH 9 0
BBX 7 9 1 2
BITMAP
C0
60
18
06
18
70
C0
00
FE
ENDCHAR
STARTCHAR 2282
ENCODING 8834
SWIDTH 540 0
DWIDTH 9 0
BBX 7 10 1 0
BITMAP
3E
60
40
C0
80
80
C0
40
60
3E
ENDCHAR
STARTCHAR 2283
ENCODING 8835
SWIDTH 540 0
DWIDTH 9 0
BBX 7 10 1 0
BITMAP
F8
0C
06
02
02
02
02
04
0C
F8
ENDCHAR
STARTCHAR 2284
ENCODING 8836
SWIDTH 540 0
DWIDTH 9 0
BBX 7 12 1 -1
BITMAP
06
3E
6C
48
C8
98
90
D0
70
60
7E
40
ENDCHAR
STARTCHAR 2285
ENCODING 8837
SWIDTH 540 0
DWIDTH 9 0
BBX 7 12 1 -1
BITMAP
04
FC
0C
0E
12
12
32
22
24
6C
F8
40
ENDCHAR
STARTCHAR 2286
ENCODING 8838
SWIDTH 540 0
DWIDTH 9 0
BBX 7 10 1 0
BITMAP
3E
60
C0
80
80
C0
60
3E
00
FE
ENDCHAR
STARTCHAR 2287
ENCODING 8839
SWIDTH 540 0
DWIDTH 9 0
BBX 7 10 1 0
BITMAP
F8
0C
06
02
02
06
0C
F8
00
FE
ENDCHAR
STARTCHAR 2308
ENCODING 8968
SWIDTH 540 0
DWIDTH 9 0
BBX 4 17 4 -3
BITMAP
F0
80
80
80
80
80
80
80
80
80
80
80
80
80
80
80
80
ENDCHAR
STARTCHAR 2309
ENCODING 8969
SWIDTH 540 0
DWIDTH 9 0
BBX 4 17 1 -3
BITMAP
F0
10
10
10
10
10
10
10
10
10
10
10
10
10
10
10
10
ENDCHAR
STARTCHAR 230A
ENCODING 8970
SWIDTH 540 0
DWIDTH 9 0
BBX 4 17 4 -3
BITMAP
80
80
80
80
80
80
80
80
80
80
80
80
80
80
80
80
F0
ENDCHAR
STARTCHAR 230B
ENCODING 8971
SWIDTH 540 0
DWIDTH 9 0
BBX 4 17 1 -3
BITMAP
10
10
10
10
10
10
10
10
10
10
10
10
10
10
10
10
F0
ENDCHAR
STARTCHAR 2500
ENCODING 9472
SWIDTH 540 0
DWIDTH 9 0
BBX 11 1 -1 6
BITMAP
FFE0
ENDCHAR
STARTCHAR 2501
ENCODING 9473
SWIDTH 540 0
DWIDTH 9 0
BBX 11 3 -1 5
BITMAP
FFE0
FFE0
FFE0
ENDCHAR
STARTCHAR 2502
ENCODING 9474
SWIDTH 540 0
DWIDTH 9 0
BBX 1 27 4 -7
BITMAP
80
80
80
80
80
80
80
80
80
80
80
80
80
80
80
80
80
80
80
80
80
80
80
80
80
80
80
ENDCHAR
STARTCHAR 2503
ENCODING 9475
SWIDTH 540 0
DWIDTH 9 0
BBX 3 27 3 -7
BITMAP
E0
E0
E0
E0
E0
E0
E0
E0
E0
E0
E0
E0
E0
E0
E0
E0
E0
E0
E0
E0
E0
E0
E0
E0
E0
E0
E0
ENDCHAR
STARTCHAR 2504
ENCODING 9476
SWIDTH 540 0
DWIDTH 9 0
BBX 9 1 0 6
BITMAP
ED80
ENDCHAR
STARTCHAR 2505
ENCODING 9477
SWIDTH 540 0
DWIDTH 9 0
BBX 9 3 0 5
BITMAP
ED80
ED80
ED80
ENDCHAR
STARTCHAR 2506
ENCODING 9478
SWIDTH 540 0
DWIDTH 9 0
BBX 1 22 4 -5
BITMAP
80
80
80
80
80
00
00
00
80
80
80
80
80
00
00
00
80
80
80
80
80
80
ENDCHAR
STARTCHAR 2507
ENCODING 9479
SWIDTH 540 0
DWIDTH 9 0
BBX 3 22 3 -5
BITMAP
E0
E0
E0
E0
E0
00
00
00
E0
E0
E0
E0
E0
00
00
00
E0
E0
E0
E0
E0
E0
ENDCHAR
STARTCHAR 2508
ENCODING 9480
SWIDTH 540 0
DWIDTH 9 0
BBX 9 1 0 6
BITMAP
D780
ENDCHAR
STARTCHAR 2509
ENCODING 9481
SWIDTH 540 0
DWIDTH 9 0
BBX 9 3 0 5
BITMAP
D780
D780
D780
ENDCHAR
STARTCHAR 250A
ENCODING 9482
SWIDTH 540 0
DWIDTH 9 0
BBX 1 24 4 -6
BITMAP
80
80
80
80
80
00
80
80
80
80
80
00
80
80
80
80
80
00
00
80
80
80
80
80
ENDCHAR
STARTCHAR 250B
ENCODING 9483
SWIDTH 540 0
DWIDTH 9 0
BBX 3 24 3 -6
BITMAP
E0
E0
E0
E0
E0
00
E0
E0
E0
E0
E0
00
E0
E0
E0
E0
E0
00
00
E0
E0
E0
E0
E0
ENDCHAR
STARTCHAR 250C
ENCODING 9484
SWIDTH 540 0
DWIDTH 9 0
BBX 6 14 4 -7
BITMAP
FC
80
80
80
80
80
80
80
80
80
80
80
80
80
ENDCHAR
STARTCHAR 250D
ENCODING 9485
SWIDTH 540 0
DWIDTH 9 0
BBX 6 15 4 -7
BITMAP
FC
FC
FC
80
80
80
80
80
80
80
80
80
80
80
80
ENDCHAR
STARTCHAR 250E
ENCODING 9486
SWIDTH 540 0
DWIDTH 9 0
BBX 7 14 3 -7
BITMAP
FE
E0
E0
E0
E0
E0
E0
E0
E0
E0
E0
E0
E0
E0
ENDCHAR
STARTCHAR 250F
ENCODING 9487
SWIDTH 540 0
DWIDTH 9 0
BBX 7 15 3 -7
BITMAP
FE
FE
FE
E0
E0
E0
E0
E0
E0
E0
E0
E0
E0
E0
E0
ENDCHAR
STARTCHAR 2510
ENCODING 9488
SWIDTH 540 0
DWIDTH 9 0
BBX 6 14 -1 -7
BITMAP
FC
04
04
04
04
04
04
04
04
04
04
04
04
04
ENDCHAR
STARTCHAR 2511
ENCODING 9489
SWIDTH 540 0
DWIDTH 9 0
BBX 6 15 -1 -7
BITMAP
FC
FC
FC
04
04
04
04
04
04
04
04
04
04
04
04
ENDCHAR
STARTCHAR 2512
ENCODING 9490
SWIDTH 540 0
DWIDTH 9 0
BBX 7 14 -1 -7
BITMAP
FE
0E
0E
0E
0E
0E
0E
0E
0E
0E
0E
0E
0E
0E
ENDCHAR
STARTCHAR 2513
ENCODING 9491
SWIDTH 540 0
DWIDTH 9 0
BBX 7 15 -1 -7
BITMAP
FE
FE
FE
0E
0E
0E
0E
0E
0E
0E
0E
0E
0E
0E
0E
ENDCHAR
STARTCHAR 2514
ENCODING 9492
SWIDTH 540 0
DWIDTH 9 0
BBX 6 14 4 6
BITMAP
80
80
80
80
80
80
80
80
80
80
80
80
80
FC
ENDCHAR
STARTCHAR 2515
ENCODING 9493
SWIDTH 540 0
DWIDTH 9 0
BBX 6 15 4 5
BITMAP
80
80
80
80
80
80
80
80
80
80
80
80
FC
FC
FC
ENDCHAR
STARTCHAR 2516
ENCODING 9494
SWIDTH 540 0
DWIDTH 9 0
BBX 7 14 3 6
BITMAP
E0
E0
E0
E0
E0
E0
E0
E0
E0
E0
E0
E0
E0
FE
ENDCHAR
STARTCHAR 2517
ENCODING 9495
SWIDTH 540 0
DWIDTH 9 0
BBX 7 15 3 5
BITMAP
E0
E0
E0
E0
E0
E0
E0
E0
E0
E0
E0
E0
FE
FE
FE
ENDCHAR
STARTCHAR 2518
ENCODING 9496
SWIDTH 540 0
DWIDTH 9 0
BBX 6 14 -1 6
BITMAP
04
04
04
04
04
04
04
04
04
04
04
04
04
FC
ENDCHAR
STARTCHAR 2519
ENCODING 9497
SWIDTH 540 0
DWIDTH 9 0
BBX 6 15 -1 5
BITMAP
04
04
04
04
04
04
04
04
04
04
04
04
FC
FC
FC
ENDCHAR
STARTCHAR 251A
ENCODING 9498
SWIDTH 540 0
DWIDTH 9 0
BBX 7 14 -1 6
BITMAP
0E
0E
0E
0E
0E
0E
0E
0E
0E
0E
0E
0E
0E
FE
ENDCHAR
STARTCHAR 251B
ENCODING 9499
SWIDTH 540 0
DWIDTH 9 0
BBX 7 15 -1 5
BITMAP
0E
0E
0E
0E
0E
0E
0E
0E
0E
0E
0E
0E
FE
FE
FE
ENDCHAR
STARTCHAR 251C
ENCODING 9500
SWIDTH 540 0
DWIDTH 9 0
BBX 6 27 4 -7
BITMAP
80
80
80
80
80
80
80
80
80
80
80
80
80
FC
80
80
80
80
80
80
80
80
80
80
80
80
80
ENDCHAR
STARTCHAR 251D
ENCODING 9501
SWIDTH 540 0
DWIDTH 9 0
BBX 6 27 4 -7
BITMAP
80
80
80
80
80
80
80
80
80
80
80
80
FC
FC
FC
80
80
80
80
80
80
80
80
80
80
80
80
ENDCHAR
STARTCHAR 251E
ENCODING 9502
SWIDTH 540 0
DWIDTH 9 0
BBX 7 27 3 -7
BITMAP
E0
E0
E0
E0
E0
E0
E0
E0
E0
E0
E0
E0
E0
FE
40
40
40
40
40
40
40
40
40
40
40
40
40
ENDCHAR
STARTCHAR 251F
ENCODING 9503
SWIDTH 540 0
DWIDTH 9 0
BBX 7 27 3 -7
BITMAP
40
40
40
40
40
40
40
40
40
40
40
40
40
FE
E0
E0
E0
E0
E0
E0
E0
E0
E0
E0
E0
E0
E0
ENDCHAR
STARTCHAR 2520
ENCODING 9504
SWIDTH 540 0
DWIDTH 9 0
BBX 7 27 3 -7
BITMAP
E0
E0
E0
E0
E0
E0
E0
E0
E0
E0
E0
E0
E0
FE
E0
E0
E0
E0
E0
E0
E0
E0
E0
E0
E0
E0
E0
ENDCHAR
STARTCHAR 2521
ENCODING 9505
SWIDTH 540 0
DWIDTH 9 0
BBX 7 27 3 -7
BITMAP
E0
E0
E0
E0
E0
E0
E0
E0
E0
E0
E0
E0
FE
FE
FE
40
40
40
40
40
40
40
40
40
40
40
40
ENDCHAR
STARTCHAR 2522
ENCODING 9506
SWIDTH 540 0
DWIDTH 9 0
BBX 7 27 3 -7
BITMAP
40
40
40
40
40
40
40
40
40
40
40
40
FE
FE
FE
E0
E0
E0
E0
E0
E0
E0
E0
E0
E0
E0
E0
ENDCHAR
STARTCHAR 2523
ENCODING 9507
SWIDTH 540 0
DWIDTH 9 0
BBX 7 27 3 -7
BITMAP
E0
E0
E0
E0
E0
E0
E0
E0
E0
E0
E0
E0
FE
FE
FE
E0
E0
E0
E0
E0
E0
E0
E0
E0
E0
E0
E0
ENDCHAR
STARTCHAR 2524
ENCODING 9508
SWIDTH 540 0
DWIDTH 9 0
BBX 6 27 -1 -7
BITMAP
04
04
04
04
04
04
04
04
04
04
04
04
04
FC
04
04
04
04
04
04
04
04
04
04
04
04
04
ENDCHAR
STARTCHAR 2525
ENCODING 9509
SWIDTH 540 0
DWIDTH 9 0
BBX 6 27 -1 -7
BITMAP
04
04
04
04
04
04
04
04
04
04
04
04
FC
FC
FC
04
04
04
04
04
04
04
04
04
04
04
04
ENDCHAR
STARTCHAR 2526
ENCODING 9510
SWIDTH 540 0
DWIDTH 9 0
BBX 7 27 -1 -7
BITMAP
0E
0E
0E
0E
0E
0E
0E
0E
0E
0E
0E
0E
0E
FE
04
04
04
04
04
04
04
04
04
04
04
04
04
ENDCHAR
STARTCHAR 2527
ENCODING 9511
SWIDTH 540 0
DWIDTH 9 0
BBX 7 27 -1 -7
BITMAP
04
04
04
04
04
04
04
04
04
04
04
04
04
FE
0E
0E
0E
0E
0E
0E
0E
0E
0E
0E
0E
0E
0E
ENDCHAR
STARTCHAR 2528
ENCODING 9512
SWIDTH 540 0
DWIDTH 9 0
BBX 7 27 -1 -7
BITMAP
0E
0E
0E
0E
0E
0E
0E
0E
0E
0E
0E
0E
0E
FE
0E
0E
0E
0E
0E
0E
0E
0E
0E
0E
0E
0E
0E
ENDCHAR
STARTCHAR 2529
ENCODING 9513
SWIDTH 540 0
DWIDTH 9 0
BBX 7 27 -1 -7
BITMAP
0E
0E
0E
0E
0E
0E
0E
0E
0E
0E
0E
0E
FE
FE
FE
04
04
04
04
04
04
04
04
04
04
04
04
ENDCHAR
STARTCHAR 252A
ENCODING 9514
SWIDTH 540 0
DWIDTH 9 0
BBX 7 27 -1 -7
BITMAP
04
04
04
04
04
04
04
04
04
04
04
04
FE
FE
FE
0E
0E
0E
0E
0E
0E
0E
0E
0E
0E
0E
0E
ENDCHAR
STARTCHAR 252B
ENCODING 9515
SWIDTH 540 0
DWIDTH 9 0
BBX 7 27 -1 -7
BITMAP
0E
0E
0E
0E
0E
0E
0E
0E
0E
0E
0E
0E
FE
FE
FE
0E
0E
0E
0E
0E
0E
0E
0E
0E
0E
0E
0E
ENDCHAR
STARTCHAR 252C
ENCODING 9516
SWIDTH 540 0
DWIDTH 9 0
BBX 11 14 -1 -7
BITMAP
FFE0
0400
0400
0400
0400
0400
0400
0400
0400
0400
0400
0400
0400
0400
ENDCHAR
STARTCHAR 252D
ENCODING 9517
SWIDTH 540 0
DWIDTH 9 0
BBX 11 15 -1 -7
BITMAP
FC00
FFE0
FC00
0400
0400
0400
0400
0400
0400
0400
0400
0400
0400
0400
0400
ENDCHAR
STARTCHAR 252E
ENCODING 9518
SWIDTH 540 0
DWIDTH 9 0
BBX 11 15 -1 -7
BITMAP
07E0
FFE0
07E0
0400
0400
0400
0400
0400
0400
0400
0400
0400
0400
0400
0400
ENDCHAR
STARTCHAR 252F
ENCODING 9519
SWIDTH 540 0
DWIDTH 9 0
BBX 11 15 -1 -7
BITMAP
FFE0
FFE0
FFE0
0400
0400
0400
0400
0400
0400
0400
0400
0400
0400
0400
0400
ENDCHAR
STARTCHAR 2530
ENCODING 9520
SWIDTH 540 0
DWIDTH 9 0
BBX 11 14 -1 -7
BITMAP
FFE0
0E00
0E00
0E00
0E00
0E00
0E00
0E00
0E00
0E00
0E00
0E00
0E00
0E00
ENDCHAR
STARTCHAR 2531
ENCODING 9521
SWIDTH 540 0
DWIDTH 9 0
BBX 11 15 -1 -7
BITMAP
FE00
FFE0
FE00
0E00
0E00
0E00
0E00
0E00
0E00
0E00
0E00
0E00
0E00
0E00
0E00
ENDCHAR
STARTCHAR 2532
ENCODING 9522
SWIDTH 540 0
DWIDTH 9 0
BBX 11 15 -1 -7
BITMAP
0FE0
FFE0
0FE0
0E00
0E00
0E00
0E00
0E00
0E00
0E00
0E00
0E00
0E00
0E00
0E00
ENDCHAR
STARTCHAR 2533
ENCODING 9523
SWIDTH 540 0
DWIDTH 9 0
BBX 11 15 -1 -7
BITMAP
FFE0
FFE0
FFE0
0E00
0E00
0E00
0E00
0E00
0E00
0E00
0E00
0E00
0E00
0E00
0E00
ENDCHAR
STARTCHAR 2534
ENCODING 9524
SWIDTH 540 0
DWIDTH 9 0
BBX 11 14 -1 6
BITMAP
0400
0400
0400
0400
0400
0400
0400
0400
0400
0400
0400
0400
0400
FFE0
ENDCHAR
STARTCHAR 2535
ENCODING 9525
SWIDTH 540 0
DWIDTH 9 0
BBX 11 15 -1 5
BITMAP
0400
0400
0400
0400
0400
0400
0400
0400
0400
0400
0400
0400
FC00
FFE0
FC00
ENDCHAR
STARTCHAR 2536
ENCODING 9526
SWIDTH 540 0
DWIDTH 9 0
BBX 11 15 -1 5
BITMAP
0400
0400
0400
0400
0400
0400
0400
0400
0400
0400
0400
0400
07E0
FFE0
07E0
ENDCHAR
STARTCHAR 2537
ENCODING 9527
SWIDTH 540 0
DWIDTH 9 0
BBX 11 15 -1 5
BITMAP
0400
0400
0400
0400
0400
0400
0400
0400
0400
0400
0400
0400
FFE0
FFE0
FFE0
ENDCHAR
STARTCHAR 2538
ENCODING 9528
SWIDTH 540 0
DWIDTH 9 0
BBX 11 14 -1 6
BITMAP
0E00
0E00
0E00
0E00
0E00
0E00
0E00
0E00
0E00
0E00
0E00
0E00
0E00
FFE0
ENDCHAR
STARTCHAR 2539
ENCODING 9529
SWIDTH 540 0
DWIDTH 9 0
BBX 11 15 -1 5
BITMAP
0E00
0E00
0E00
0E00
0E00
0E00
0E00
0E00
0E00
0E00
0E00
0E00
FE00
FFE0
FE00
ENDCHAR
STARTCHAR 253A
ENCODING 9530
SWIDTH 540 0
DWIDTH 9 0
BBX 11 15 -1 5
BITMAP
0E00
0E00
0E00
0E00
0E00
0E00
0E00
0E00
0E00
0E00
0E00
0E00
0FE0
FFE0
0FE0
ENDCHAR
STARTCHAR 253B
ENCODING 9531
SWIDTH 540 0
DWIDTH 9 0
BBX 11 15 -1 5
BITMAP
0E00
0E00
0E00
0E00
0E00
0E00
0E00
0E00
0E00
0E00
0E00
0E00
FFE0
FFE0
FFE0
ENDCHAR
STARTCHAR 253C
ENCODING 9532
SWIDTH 540 0
DWIDTH 9 0
BBX 11 27 -1 -7
BITMAP
0400
0400
0400
0400
0400
0400
0400
0400
0400
0400
0400
0400
0400
FFE0
0400
0400
0400
0400
0400
0400
0400
0400
0400
0400
0400
0400
0400
ENDCHAR
STARTCHAR 253D
ENCODING 9533
SWIDTH 540 0
DWIDTH 9 0
BBX 11 27 -1 -7
BITMAP
0400
0400
0400
0400
0400
0400
0400
0400
0400
0400
0400
0400
FC00
FFE0
FC00
0400
0400
0400
0400
0400
0400
0400
0400
0400
0400
0400
0400
ENDCHAR
STARTCHAR 253E
ENCODING 9534
SWIDTH 540 0
DWIDTH 9 0
BBX 11 27 -1 -7
BITMAP
0400
0400
0400
0400
0400
0400
0400
0400
0400
0400
0400
0400
07E0
FFE0
07E0
0400
0400
0400
0400
0400
0400
0400
0400
0400
0400
0400
0400
ENDCHAR
STARTCHAR 253F
ENCODING 9535
SWIDTH 540 0
DWIDTH 9 0
BBX 11 27 -1 -7
BITMAP
0400
0400
0400
0400
0400
0400
0400
0400
0400
0400
0400
0400
FFE0
FFE0
FFE0
0400
0400
0400
0400
0400
0400
0400
0400
0400
0400
0400
0400
ENDCHAR
STARTCHAR 2540
ENCODING 9536
SWIDTH 540 0
DWIDTH 9 0
BBX 11 27 -1 -7
BITMAP
0E00
0E00
0E00
0E00
0E00
0E00
0E00
0E00
0E00
0E00
0E00
0E00
0E00
FFE0
0400
0400
0400
0400
0400
0400
0400
0400
0400
0400
0400
0400
0400
ENDCHAR
STARTCHAR 2541
ENCODING 9537
SWIDTH 540 0
DWIDTH 9 0
BBX 11 27 -1 -7
BITMAP
0400
0400
0400
0400
0400
0400
0400
0400
0400
0400
0400
0400
0400
FFE0
0E00
0E00
0E00
0E00
0E00
0E00
0E00
0E00
0E00
0E00
0E00
0E00
0E00
ENDCHAR
STARTCHAR 2542
ENCODING 9538
SWIDTH 540 0
DWIDTH 9 0
BBX 11 27 -1 -7
BITMAP
0E00
0E00
0E00
0E00
0E00
0E00
0E00
0E00
0E00
0E00
0E00
0E00
0E00
FFE0
0E00
0E00
0E00
0E00
0E00
0E00
0E00
0E00
0E00
0E00
0E00
0E00
0E00
ENDCHAR
STARTCHAR 2543
ENCODING 9539
SWIDTH 540 0
DWIDTH 9 0
BBX 11 27 -1 -7
BITMAP
0E00
0E00
0E00
0E00
0E00
0E00
0E00
0E00
0E00
0E00
0E00
0E00
FE00
FFE0
FE00
0400
0400
0400
0400
0400
0400
0400
0400
0400
0400
0400
0400
ENDCHAR
STARTCHAR 2544
ENCODING 9540
SWIDTH 540 0
DWIDTH 9 0
BBX 11 27 -1 -7
BITMAP
0E00
0E00
0E00
0E00
0E00
0E00
0E00
0E00
0E00
0E00
0E00
0E00
0FE0
FFE0
0FE0
0400
0400
0400
0400
0400
0400
0400
0400
0400
0400
0400
0400
ENDCHAR
STARTCHAR 2545
ENCODING 9541
SWIDTH 540 0
DWIDTH 9 0
BBX 11 27 -1 -7
BITMAP
0400
0400
0400
0400
0400
0400
0400
0400
0400
0400
0400
0400
FE00
FFE0
FE00
0E00
0E00
0E00
0E00
0E00
0E00
0E00
0E00
0E00
0E00
0E00
0E00
ENDCHAR
STARTCHAR 2546
ENCODING 9542
SWIDTH 540 0
DWIDTH 9 0
BBX 11 27 -1 -7
BITMAP
0400
0400
0400
0400
0400
0400
0400
0400
0400
0400
0400
0400
0FE0
FFE0
0FE0
0E00
0E00
0E00
0E00
0E00
0E00
0E00
0E00
0E00
0E00
0E00
0E00
ENDCHAR
STARTCHAR 2547
ENCODING 9543
SWIDTH 540 0
DWIDTH 9 0
BBX 11 27 -1 -7
BITMAP
0E00
0E00
0E00
0E00
0E00
0E00
0E00
0E00
0E00
0E00
0E00
0E00
FFE0
FFE0
FFE0
0400
0400
0400
0400
0400
0400
0400
0400
0400
0400
0400
0400
ENDCHAR
STARTCHAR 2548
ENCODING 9544
SWIDTH 540 0
DWIDTH 9 0
BBX 11 27 -1 -7
BITMAP
0400
0400
0400
0400
0400
0400
0400
0400
0400
0400
0400
0400
FFE0
FFE0
FFE0
0E00
0E00
0E00
0E00
0E00
0E00
0E00
0E00
0E00
0E00
0E00
0E00
ENDCHAR
STARTCHAR 2549
ENCODING 9545
SWIDTH 540 0
DWIDTH 9 0
BBX 11 27 -1 -7
BITMAP
0E00
0E00
0E00
0E00
0E00
0E00
0E00
0E00
0E00
0E00
0E00
0E00
FE00
FFE0
FE00
0E00
0E00
0E00
0E00
0E00
0E00
0E00
0E00
0E00
0E00
0E00
0E00
ENDCHAR
STARTCHAR 254A
ENCODING 9546
SWIDTH 540 0
DWIDTH 9 0
BBX 11 27 -1 -7
BITMAP
0E00
0E00
0E00
0E00
0E00
0E00
0E00
0E00
0E00
0E00
0E00
0E00
0FE0
FFE0
0FE0
0E00
0E00
0E00
0E00
0E00
0E00
0E00
0E00
0E00
0E00
0E00
0E00
ENDCHAR
STARTCHAR 254B
ENCODING 9547
SWIDTH 540 0
DWIDTH 9 0
BBX 11 27 -1 -7
BITMAP
0E00
0E00
0E00
0E00
0E00
0E00
0E00
0E00
0E00
0E00
0E00
0E00
FFE0
FFE0
FFE0
0E00
0E00
0E00
0E00
0E00
0E00
0E00
0E00
0E00
0E00
0E00
0E00
ENDCHAR
STARTCHAR 254C
ENCODING 9548
SWIDTH 540 0
DWIDTH 9 0
BBX 7 1 1 6
BITMAP
C6
ENDCHAR
STARTCHAR 254D
ENCODING 9549
SWIDTH 540 0
DWIDTH 9 0
BBX 7 3 1 5
BITMAP
C6
C6
C6
ENDCHAR
STARTCHAR 254E
ENCODING 9550
SWIDTH 540 0
DWIDTH 9 0
BBX 1 18 4 -2
BITMAP
80
80
80
80
80
80
00
00
00
00
00
00
80
80
80
80
80
80
ENDCHAR
STARTCHAR 254F
ENCODING 9551
SWIDTH 540 0
DWIDTH 9 0
BBX 3 18 3 -2
BITMAP
E0
E0
E0
E0
E0
E0
00
00
00
00
00
00
E0
E0
E0
E0
E0
E0
ENDCHAR
STARTCHAR 2550
ENCODING 9552
SWIDTH 540 0
DWIDTH 9 0
BBX 11 4 -1 4
BITMAP
FFE0
0000
0000
FFE0
ENDCHAR
STARTCHAR 2551
ENCODING 9553
SWIDTH 540 0
DWIDTH 9 0
BBX 3 27 3 -7
BITMAP
A0
A0
A0
A0
A0
A0
A0
A0
A0
A0
A0
A0
A0
A0
A0
A0
A0
A0
A0
A0
A0
A0
A0
A0
A0
A0
A0
ENDCHAR
STARTCHAR 2552
ENCODING 9554
SWIDTH 540 0
DWIDTH 9 0
BBX 6 15 4 -7
BITMAP
FC
80
80
FC
80
80
80
80
80
80
80
80
80
80
80
ENDCHAR
STARTCHAR 2553
ENCODING 9555
SWIDTH 540 0
DWIDTH 9 0
BBX 7 14 3 -7
BITMAP
FE
A0
A0
A0
A0
A0
A0
A0
A0
A0
A0
A0
A0
A0
ENDCHAR
STARTCHAR 2554
ENCODING 9556
SWIDTH 540 0
DWIDTH 9 0
BBX 7 15 3 -7
BITMAP
FE
80
80
BE
A0
A0
A0
A0
A0
A0
A0
A0
A0
A0
A0
ENDCHAR
STARTCHAR 2555
ENCODING 9557
SWIDTH 540 0
DWIDTH 9 0
BBX 6 15 -1 -7
BITMAP
FC
04
04
FC
04
04
04
04
04
04
04
04
04
04
04
ENDCHAR
STARTCHAR 2556
ENCODING 9558
SWIDTH 540 0
DWIDTH 9 0
BBX 7 14 -1 -7
BITMAP
FE
0A
0A
0A
0A
0A
0A
0A
0A
0A
0A
0A
0A
0A
ENDCHAR
STARTCHAR 2557
ENCODING 9559
SWIDTH 540 0
DWIDTH 9 0
BBX 7 15 -1 -7
BITMAP
FE
02
02
FA
0A
0A
0A
0A
0A
0A
0A
0A
0A
0A
0A
ENDCHAR
STARTCHAR 2558
ENCODING 9560
SWIDTH 540 0
DWIDTH 9 0
BBX 6 15 4 4
BITMAP
80
80
80
80
80
80
80
80
80
80
80
FC
80
80
FC
ENDCHAR
STARTCHAR 2559
ENCODING 9561
SWIDTH 540 0
DWIDTH 9 0
BBX 7 14 3 6
BITMAP
A0
A0
A0
A0
A0
A0
A0
A0
A0
A0
A0
A0
A0
FE
ENDCHAR
STARTCHAR 255A
ENCODING 9562
SWIDTH 540 0
DWIDTH 9 0
BBX 7 15 3 4
BITMAP
A0
A0
A0
A0
A0
A0
A0
A0
A0
A0
A0
BE
80
80
FE
ENDCHAR
STARTCHAR 255B
ENCODING 9563
SWIDTH 540 0
DWIDTH 9 0
BBX 6 15 -1 4
BITMAP
04
04
04
04
04
04
04
04
04
04
04
FC
04
04
FC
ENDCHAR
STARTCHAR 255C
ENCODING 9564
SWIDTH 540 0
DWIDTH 9 0
BBX 7 14 -1 6
BITMAP
0A
0A
0A
0A
0A
0A
0A
0A
0A
0A
0A
0A
0A
FE
ENDCHAR
STARTCHAR 255D
ENCODING 9565
SWIDTH 540 0
DWIDTH 9 0
BBX 7 15 -1 4
BITMAP
0A
0A
0A
0A
0A
0A
0A
0A
0A
0A
0A
FA
02
02
FE
ENDCHAR
STARTCHAR 255E
ENCODING 9566
SWIDTH 540 0
DWIDTH 9 0
BBX 6 26 4 -7
BITMAP
80
80
80
80
80
80
80
80
80
80
80
FC
80
80
FC
80
80
80
80
80
80
80
80
80
80
80
ENDCHAR
STARTCHAR 255F
ENCODING 9567
SWIDTH 540 0
DWIDTH 9 0
BBX 7 27 3 -7
BITMAP
A0
A0
A0
A0
A0
A0
A0
A0
A0
A0
A0
A0
A0
BE
A0
A0
A0
A0
A0
A0
A0
A0
A0
A0
A0
A0
A0
ENDCHAR
STARTCHAR 2560
ENCODING 9568
SWIDTH 540 0
DWIDTH 9 0
BBX 7 26 3 -7
BITMAP
A0
A0
A0
A0
A0
A0
A0
A0
A0
A0
A0
BE
80
80
BE
A0
A0
A0
A0
A0
A0
A0
A0
A0
A0
A0
ENDCHAR
STARTCHAR 2561
ENCODING 9569
SWIDTH 540 0
DWIDTH 9 0
BBX 6 26 -1 -7
BITMAP
04
04
04
04
04
04
04
04
04
04
04
FC
04
04
FC
04
04
04
04
04
04
04
04
04
04
04
ENDCHAR
STARTCHAR 2562
ENCODING 9570
SWIDTH 540 0
DWIDTH 9 0
BBX 7 27 -1 -7
BITMAP
0A
0A
0A
0A
0A
0A
0A
0A
0A
0A
0A
0A
0A
FA
0A
0A
0A
0A
0A
0A
0A
0A
0A
0A
0A
0A
0A
ENDCHAR
STARTCHAR 2563
ENCODING 9571
SWIDTH 540 0
DWIDTH 9 0
BBX 7 26 -1 -7
BITMAP
0A
0A
0A
0A
0A
0A
0A
0A
0A
0A
0A
FA
02
02
FA
0A
0A
0A
0A
0A
0A
0A
0A
0A
0A
0A
ENDCHAR
STARTCHAR 2564
ENCODING 9572
SWIDTH 540 0
DWIDTH 9 0
BBX 11 15 -1 -7
BITMAP
FFE0
0000
0000
FFE0
0400
0400
0400
0400
0400
0400
0400
0400
0400
0400
0400
ENDCHAR
STARTCHAR 2565
ENCODING 9573
SWIDTH 540 0
DWIDTH 9 0
BBX 11 14 -1 -7
BITMAP
FFE0
0A00
0A00
0A00
0A00
0A00
0A00
0A00
0A00
0A00
0A00
0A00
0A00
0A00
ENDCHAR
STARTCHAR 2566
ENCODING 9574
SWIDTH 540 0
DWIDTH 9 0
BBX 11 15 -1 -7
BITMAP
FFE0
0000
0000
FBE0
0A00
0A00
0A00
0A00
0A00
0A00
0A00
0A00
0A00
0A00
0A00
ENDCHAR
STARTCHAR 2567
ENCODING 9575
SWIDTH 540 0
DWIDTH 9 0
BBX 11 15 -1 4
BITMAP
0400
0400
0400
0400
0400
0400
0400
0400
0400
0400
0400
FFE0
0000
0000
FFE0
ENDCHAR
STARTCHAR 2568
ENCODING 9576
SWIDTH 540 0
DWIDTH 9 0
BBX 11 14 -1 6
BITMAP
0A00
0A00
0A00
0A00
0A00
0A00
0A00
0A00
0A00
0A00
0A00
0A00
0A00
FFE0
ENDCHAR
STARTCHAR 2569
ENCODING 9577
SWIDTH 540 0
DWIDTH 9 0
BBX 11 15 -1 4
BITMAP
0A00
0A00
0A00
0A00
0A00
0A00
0A00
0A00
0A00
0A00
0A00
FBE0
0000
0000
FFE0
ENDCHAR
STARTCHAR 256A
ENCODING 9578
SWIDTH 540 0
DWIDTH 9 0
BBX 11 26 -1 -7
BITMAP
0400
0400
0400
0400
0400
0400
0400
0400
0400
0400
0400
FFE0
0400
0400
FFE0
0400
0400
0400
0400
0400
0400
0400
0400
0400
0400
0400
ENDCHAR
STARTCHAR 256B
ENCODING 9579
SWIDTH 540 0
DWIDTH 9 0
BBX 11 27 -1 -7
BITMAP
0A00
0A00
0A00
0A00
0A00
0A00
0A00
0A00
0A00
0A00
0A00
0A00
0A00
FFE0
0A00
0A00
0A00
0A00
0A00
0A00
0A00
0A00
0A00
0A00
0A00
0A00
0A00
ENDCHAR
STARTCHAR 256C
ENCODING 9580
SWIDTH 540 0
DWIDTH 9 0
BBX 11 26 -1 -7
BITMAP
0A00
0A00
0A00
0A00
0A00
0A00
0A00
0A00
0A00
0A00
0A00
FBE0
0000
0000
FBE0
0A00
0A00
0A00
0A00
0A00
0A00
0A00
0A00
0A00
0A00
0A00
ENDCHAR
STARTCHAR 256D
ENCODING 9581
SWIDTH 540 0
DWIDTH 9 0
BBX 6 14 4 -7
BITMAP
1C
70
40
C0
80
80
80
80
80
80
80
80
80
80
ENDCHAR
STARTCHAR 256E
ENCODING 9582
SWIDTH 540 0
DWIDTH 9 0
BBX 6 14 -1 -7
BITMAP
E0
38
08
04
04
04
04
04
04
04
04
04
04
04
ENDCHAR
STARTCHAR 256F
ENCODING 9583
SWIDTH 540 0
DWIDTH 9 0
BBX 6 14 -1 6
BITMAP
04
04
04
04
04
04
04
04
04
04
04
0C
18
F0
ENDCHAR
STARTCHAR 2570
ENCODING 9584
SWIDTH 540 0
DWIDTH 9 0
BBX 6 14 4 6
BITMAP
80
80
80
80
80
80
80
80
80
80
80
C0
60
3C
ENDCHAR
STARTCHAR 2571
ENCODING 9585
SWIDTH 540 0
DWIDTH 9 0
BBX 9 24 0 -6
BITMAP
0080
0080
0180
0100
0100
0300
0200
0200
0400
0400
0C00
0800
0800
1800
1000
1000
2000
2000
6000
4000
4000
C000
8000
8000
ENDCHAR
STARTCHAR 2572
ENCODING 9586
SWIDTH 540 0
DWIDTH 9 0
BBX 9 24 0 -6
BITMAP
8000
8000
C000
4000
4000
6000
2000
3000
1000
1000
1800
0800
0800
0C00
0400
0600
0200
0200
0300
0100
0100
0180
0080
0080
ENDCHAR
STARTCHAR 2573
ENCODING 9587
SWIDTH 540 0
DWIDTH 9 0
BBX 9 24 0 -6
BITMAP
8080
8080
C180
4100
4100
6300
2200
3600
1400
1400
1C00
0800
0800
1C00
1400
1600
2200
2200
6300
4100
4100
C180
8080
8080
ENDCHAR
STARTCHAR 2574
ENCODING 9588
SWIDTH 540 0
DWIDTH 9 0
BBX 6 1 -1 6
BITMAP
FC
ENDCHAR
STARTCHAR 2575
ENCODING 9589
SWIDTH 540 0
DWIDTH 9 0
BBX 1 14 4 5
BITMAP
80
80
80
80
80
80
80
80
80
80
80
80
80
80
ENDCHAR
STARTCHAR 2576
ENCODING 9590
SWIDTH 540 0
DWIDTH 9 0
BBX 6 1 4 6
BITMAP
FC
ENDCHAR
STARTCHAR 2577
ENCODING 9591
SWIDTH 540 0
DWIDTH 9 0
BBX 1 14 4 -7
BITMAP
80
80
80
80
80
80
80
80
80
80
80
80
80
80
ENDCHAR
STARTCHAR 2578
ENCODING 9592
SWIDTH 540 0
DWIDTH 9 0
BBX 6 3 -1 5
BITMAP
FC
FC
FC
ENDCHAR
STARTCHAR 2579
ENCODING 9593
SWIDTH 540 0
DWIDTH 9 0
BBX 3 14 3 5
BITMAP
E0
E0
E0
E0
E0
E0
E0
E0
E0
E0
E0
E0
E0
E0
ENDCHAR
STARTCHAR 257A
ENCODING 9594
SWIDTH 540 0
DWIDTH 9 0
BBX 6 3 4 5
BITMAP
FC
FC
FC
ENDCHAR
STARTCHAR 257B
ENCODING 9595
SWIDTH 540 0
DWIDTH 9 0
BBX 3 14 3 -7
BITMAP
E0
E0
E0
E0
E0
E0
E0
E0
E0
E0
E0
E0
E0
E0
ENDCHAR
STARTCHAR 257C
ENCODING 9596
SWIDTH 540 0
DWIDTH 9 0
BBX 11 3 -1 5
BITMAP
07E0
FFE0
07E0
ENDCHAR
STARTCHAR 257D
ENCODING 9597
SWIDTH 540 0
DWIDTH 9 0
BBX 3 27 3 -7
BITMAP
40
40
40
40
40
40
40
40
40
40
40
40
40
E0
E0
E0
E0
E0
E0
E0
E0
E0
E0
E0
E0
E0
E0
ENDCHAR
STARTCHAR 257E
ENCODING 9598
SWIDTH 540 0
DWIDTH 9 0
BBX 11 3 -1 5
BITMAP
FC00
FFE0
FC00
ENDCHAR
STARTCHAR 257F
ENCODING 9599
SWIDTH 540 0
DWIDTH 9 0
BBX 3 27 3 -7
BITMAP
E0
E0
E0
E0
E0
E0
E0
E0
E0
E0
E0
E0
E0
E0
40
40
40
40
40
40
40
40
40
40
40
40
40
ENDCHAR
STARTCHAR 2580
ENCODING 9600
SWIDTH 540 0
DWIDTH 9 0
BBX 9 13 0 6
BITMAP
FF80
FF80
FF80
FF80
FF80
FF80
FF80
FF80
FF80
FF80
FF80
FF80
FF80
ENDCHAR
STARTCHAR 2581
ENCODING 9601
SWIDTH 540 0
DWIDTH 9 0
BBX 9 3 0 -7
BITMAP
FF80
FF80
FF80
ENDCHAR
STARTCHAR 2582
ENCODING 9602
SWIDTH 540 0
DWIDTH 9 0
BBX 9 7 0 -7
BITMAP
FF80
FF80
FF80
FF80
FF80
FF80
FF80
ENDCHAR
STARTCHAR 2583
ENCODING 9603
SWIDTH 540 0
DWIDTH 9 0
BBX 9 10 0 -7
BITMAP
FF80
FF80
FF80
FF80
FF80
FF80
FF80
FF80
FF80
FF80
ENDCHAR
STARTCHAR 2584
ENCODING 9604
SWIDTH 540 0
DWIDTH 9 0
BBX 9 13 0 -7
BITMAP
FF80
FF80
FF80
FF80
FF80
FF80
FF80
FF80
FF80
FF80
FF80
FF80
FF80
ENDCHAR
STARTCHAR 2585
ENCODING 9605
SWIDTH 540 0
DWIDTH 9 0
BBX 9 17 0 -7
BITMAP
FF80
FF80
FF80
FF80
FF80
FF80
FF80
FF80
FF80
FF80
FF80
FF80
FF80
FF80
FF80
FF80
FF80
ENDCHAR
STARTCHAR 2586
ENCODING 9606
SWIDTH 540 0
DWIDTH 9 0
BBX 9 20 0 -7
BITMAP
FF80
FF80
FF80
FF80
FF80
FF80
FF80
FF80
FF80
FF80
FF80
FF80
FF80
FF80
FF80
FF80
FF80
FF80
FF80
FF80
ENDCHAR
STARTCHAR 2587
ENCODING 9607
SWIDTH 540 0
DWIDTH 9 0
BBX 9 23 0 -7
BITMAP
FF80
FF80
FF80
FF80
FF80
FF80
FF80
FF80
FF80
FF80
FF80
FF80
FF80
FF80
FF80
FF80
FF80
FF80
FF80
FF80
FF80
FF80
FF80
ENDCHAR
STARTCHAR 2588
ENCODING 9608
SWIDTH 540 0
DWIDTH 9 0
BBX 9 27 0 -7
BITMAP
FF80
FF80
FF80
FF80
FF80
FF80
FF80
FF80
FF80
FF80
FF80
FF80
FF80
FF80
FF80
FF80
FF80
FF80
FF80
FF80
FF80
FF80
FF80
FF80
FF80
FF80
FF80
ENDCHAR
STARTCHAR 2589
ENCODING 9609
SWIDTH 540 0
DWIDTH 9 0
BBX 8 27 0 -7
BITMAP
FF
FF
FF
FF
FF
FF
FF
FF
FF
FF
FF
FF
FF
FF
FF
FF
FF
FF
FF
FF
FF
FF
FF
FF
FF
FF
FF
ENDCHAR
STARTCHAR 258A
ENCODING 9610
SWIDTH 540 0
DWIDTH 9 0
BBX 7 27 0 -7
BITMAP
FE
FE
FE
FE
FE
FE
FE
FE
FE
FE
FE
FE
FE
FE
FE
FE
FE
FE
FE
FE
FE
FE
FE
FE
FE
FE
FE
ENDCHAR
STARTCHAR 258B
ENCODING 9611
SWIDTH 540 0
DWIDTH 9 0
BBX 6 27 0 -7
BITMAP
FC
FC
FC
FC
FC
FC
FC
FC
FC
FC
FC
FC
FC
FC
FC
FC
FC
FC
FC
FC
FC
FC
FC
FC
FC
FC
FC
ENDCHAR
STARTCHAR 258C
ENCODING 9612
SWIDTH 540 0
DWIDTH 9 0
BBX 5 27 0 -7
BITMAP
F8
F8
F8
F8
F8
F8
F8
F8
F8
F8
F8
F8
F8
F8
F8
F8
F8
F8
F8
F8
F8
F8
F8
F8
F8
F8
F8
ENDCHAR
STARTCHAR 258D
ENCODING 9613
SWIDTH 540 0
DWIDTH 9 0
BBX 3 27 0 -7
BITMAP
E0
E0
E0
E0
E0
E0
E0
E0
E0
E0
E0
E0
E0
E0
E0
E0
E0
E0
E0
E0
E0
E0
E0
E0
E0
E0
E0
ENDCHAR
STARTCHAR 258E
ENCODING 9614
SWIDTH 540 0
DWIDTH 9 0
BBX 2 27 0 -7
BITMAP
C0
C0
C0
C0
C0
C0
C0
C0
C0
C0
C0
C0
C0
C0
C0
C0
C0
C0
C0
C0
C0
C0
C0
C0
C0
C0
C0
ENDCHAR
STARTCHAR 258F
ENCODING 9615
SWIDTH 540 0
DWIDTH 9 0
BBX 1 27 0 -7
BITMAP
80
80
80
80
80
80
80
80
80
80
80
80
80
80
80
80
80
80
80
80
80
80
80
80
80
80
80
ENDCHAR
STARTCHAR 2590
ENCODING 9616
SWIDTH 540 0
DWIDTH 9 0
BBX 4 27 5 -7
BITMAP
F0
F0
F0
F0
F0
F0
F0
F0
F0
F0
F0
F0
F0
F0
F0
F0
F0
F0
F0
F0
F0
F0
F0
F0
F0
F0
F0
ENDCHAR
STARTCHAR 2591
ENCODING 9617
SWIDTH 540 0
DWIDTH 9 0
BBX 7 26 1 -8
BITMAP
92
00
00
00
92
00
00
92
00
00
92
00
00
92
00
00
92
00
00
92
00
00
92
00
00
92
ENDCHAR
STARTCHAR 2592
ENCODING 9618
SWIDTH 540 0
DWIDTH 9 0
BBX 9 28 -1 -8
BITMAP
2480
2480
D900
2480
2480
D900
2480
2480
0000
D900
2480
2480
D900
2480
2480
D900
2480
2480
D900
2480
2480
D900
2480
2480
D900
2480
2480
D900
ENDCHAR
STARTCHAR 2593
ENCODING 9619
SWIDTH 540 0
DWIDTH 9 0
BBX 10 28 -1 -8
BITMAP
26C0
7FC0
DB00
27C0
7FC0
DB00
27C0
7FC0
0000
DB00
7FC0
36C0
DB00
7FC0
36C0
DB00
7FC0
36C0
DB00
7FC0
36C0
DB00
7FC0
36C0
DB00
7FC0
36C0
DB00
ENDCHAR
STARTCHAR 2594
ENCODING 9620
SWIDTH 540 0
DWIDTH 9 0
BBX 9 3 0 16
BITMAP
FF80
FF80
FF80
ENDCHAR
STARTCHAR 2595
ENCODING 9621
SWIDTH 540 0
DWIDTH 9 0
BBX 1 27 8 -7
BITMAP
80
80
80
80
80
80
80
80
80
80
80
80
80
80
80
80
80
80
80
80
80
80
80
80
80
80
80
ENDCHAR
STARTCHAR 2596
ENCODING 9622
SWIDTH 540 0
DWIDTH 9 0
BBX 5 13 0 -7
BITMAP
F8
F8
F8
F8
F8
F8
F8
F8
F8
F8
F8
F8
F8
ENDCHAR
STARTCHAR 2597
ENCODING 9623
SWIDTH 540 0
DWIDTH 9 0
BBX 4 13 5 -7
BITMAP
F0
F0
F0
F0
F0
F0
F0
F0
F0
F0
F0
F0
F0
ENDCHAR
STARTCHAR 2598
ENCODING 9624
SWIDTH 540 0
DWIDTH 9 0
BBX 5 13 0 6
BITMAP
F8
F8
F8
F8
F8
F8
F8
F8
F8
F8
F8
F8
F8
ENDCHAR
STARTCHAR 2599
ENCODING 9625
SWIDTH 540 0
DWIDTH 9 0
BBX 9 27 0 -7
BITMAP
F800
F800
F800
F800
F800
F800
F800
F800
F800
F800
F800
F800
F800
F800
FF80
FF80
FF80
FF80
FF80
FF80
FF80
FF80
FF80
FF80
FF80
FF80
FF80
ENDCHAR
STARTCHAR 259A
ENCODING 9626
SWIDTH 540 0
DWIDTH 9 0
BBX 9 27 0 -7
BITMAP
F800
F800
F800
F800
F800
F800
F800
F800
F800
F800
F800
F800
F800
F800
0780
0780
0780
0780
0780
0780
0780
0780
0780
0780
0780
0780
0780
ENDCHAR
STARTCHAR 259B
ENCODING 9627
SWIDTH 540 0
DWIDTH 9 0
BBX 9 27 0 -7
BITMAP
FF80
FF80
FF80
FF80
FF80
FF80
FF80
FF80
FF80
FF80
FF80
FF80
FF80
FF80
F800
F800
F800
F800
F800
F800
F800
F800
F800
F800
F800
F800
F800
ENDCHAR
STARTCHAR 259C
ENCODING 9628
SWIDTH 540 0
DWIDTH 9 0
BBX 9 27 0 -7
BITMAP
FF80
FF80
FF80
FF80
FF80
FF80
FF80
FF80
FF80
FF80
FF80
FF80
FF80
FF80
0780
0780
0780
0780
0780
0780
0780
0780
0780
0780
0780
0780
0780
ENDCHAR
STARTCHAR 259D
ENCODING 9629
SWIDTH 540 0
DWIDTH 9 0
BBX 4 13 5 6
BITMAP
F0
F0
F0
F0
F0
F0
F0
F0
F0
F0
F0
F0
F0
ENDCHAR
STARTCHAR 259E
ENCODING 9630
SWIDTH 540 0
DWIDTH 9 0
BBX 9 27 0 -7
BITMAP
0780
0780
0780
0780
0780
0780
0780
0780
0780
0780
0780
0780
0780
0780
F800
F800
F800
F800
F800
F800
F800
F800
F800
F800
F800
F800
F800
ENDCHAR
STARTCHAR 259F
ENCODING 9631
SWIDTH 540 0
DWIDTH 9 0
BBX 9 27 0 -7
BITMAP
0780
0780
0780
0780
0780
0780
0780
0780
0780
0780
0780
0780
0780
0780
FF80
FF80
FF80
FF80
FF80
FF80
FF80
FF80
FF80
FF80
FF80
FF80
FF80
ENDCHAR
STARTCHAR 25CA
ENCODING 9674
SWIDTH 540 0
DWIDTH 9 0
BBX 7 12 1 0
BITMAP
10
10
38
6C
44
C6
C6
44
6C
38
10
10
ENDCHAR
STARTCHAR 2640
ENCODING 9792
SWIDTH 540 0
DWIDTH 9 0
BBX 7 12 1 0
BITMAP
3C
C6
82
82
82
C2
7C
38
10
FE
10
10
ENDCHAR
STARTCHAR 2642
ENCODING 9794
SWIDTH 540 0
DWIDTH 9 0
BBX 9 10 0 1
BITMAP
1F80
0180
0380
7E80
4680
8280
8200
C200
4600
3C00
ENDCHAR
STARTCHAR 2716
ENCODING 10006
SWIDTH 540 0
DWIDTH 9 0
BBX 9 8 0 2
BITMAP
6300
F780
7F00
1E00
3E00
7700
E380
4100
ENDCHAR
STARTCHAR 27E8
ENCODING 10216
SWIDTH 540 0
DWIDTH 9 0
BBX 7 17 1 -3
BITMAP
06
04
0C
08
10
30
20
40
C0
40
20
30
10
08
0C
04
02
ENDCHAR
STARTCHAR 27E9
ENCODING 10217
SWIDTH 540 0
DWIDTH 9 0
BBX 7 17 1 -3
BITMAP
C0
40
60
30
10
18
0C
04
06
04
08
18
10
30
60
40
40
ENDCHAR
STARTCHAR E0A0
ENCODING 57504
SWIDTH 540 0
DWIDTH 9 0
BBX 8 19 1 -3
BITMAP
C0
C0
C0
C4
CE
DF
CC
CC
CC
8C
18
30
60
C0
C0
C0
C0
C0
C0
ENDCHAR
STARTCHAR E0A1
ENCODING 57505
SWIDTH 540 0
DWIDTH 9 0
BBX 5 15 2 -2
BITMAP
80
80
80
80
80
80
F0
00
68
68
78
78
58
78
78
ENDCHAR
STARTCHAR E0A2
ENCODING 57506
SWIDTH 540 0
DWIDTH 9 0
BBX 7 10 1 1
BITMAP
38
44
44
44
FE
EE
EE
EE
EE
FE
ENDCHAR
STARTCHAR E0B0
ENCODING 57520
SWIDTH 540 0
DWIDTH 9 0
BBX 9 20 0 -4
BITMAP
8000
C000
E000
F000
F800
F800
FC00
FE00
FF00
FF80
FF80
FF00
FE00
FC00
F800
F800
F000
E000
C000
8000
ENDCHAR
STARTCHAR E0B1
ENCODING 57521
SWIDTH 540 0
DWIDTH 9 0
BBX 9 22 0 -5
BITMAP
8000
4000
6000
2000
1000
1800
0C00
0400
0200
0300
0180
0180
0300
0200
0400
0C00
0800
1000
2000
6000
4000
8000
ENDCHAR
STARTCHAR E0B2
ENCODING 57522
SWIDTH 540 0
DWIDTH 9 0
BBX 9 20 0 -4
BITMAP
0080
0180
0380
0780
0780
0F80
1F80
3F80
7F80
FF80
FF80
7F80
3F80
1F80
0F80
0780
0780
0380
0180
0080
ENDCHAR
STARTCHAR E0B3
ENCODING 57523
SWIDTH 540 0
DWIDTH 9 0
BBX 9 22 0 -5
BITMAP
0080
0180
0300
0200
0400
0C00
1800
1000
2000
6000
C000
C000
6000
2000
1000
1800
0C00
0400
0200
0300
0180
0080
ENDCHAR
ENDFONT
